<?xml version="1.0" encoding="UTF-8" standalone="no"?>
<!-- Created with Inkscape (http://www.inkscape.org/) -->

<svg
   version="1.1"
   id="svg1"
   width="1874.8302"
   height="1961.9988"
   viewBox="0 0 1874.8302 1961.9988"
   xmlns="http://www.w3.org/2000/svg"
   xmlns:svg="http://www.w3.org/2000/svg">
  <defs
     id="defs1" />
  <g
     id="g1"
     transform="translate(-115.24348,-27.011168)">
    <path
       fill="oklch(54.6% 0.245 262.881)"
       d="m 1037.0186,1985.75 c -0.6542,-1.7875 -2.4646,-6.85 -4.023,-11.25 -1.5584,-4.4 -5.5939,-15.2 -8.9677,-24 -3.3738,-8.8 -7.4132,-19.6 -8.9764,-24 -1.5633,-4.4 -6.0831,-16.55 -10.044,-27 -3.9609,-10.45 -8.43123,-22.375 -9.93413,-26.5 -1.5028,-4.125 -4.5871,-12.45 -6.8539,-18.5 -11.434,-30.5167 -17.3291,-46.8601 -17.8599,-49.5145 -0.4627,-2.3133 0.4172,-4.6959 4.1406,-11.2115 11.3606,-19.8805 15.5968,-28.1862 21.8165,-42.774 16.20813,-38.0151 25.94163,-75.3278 32.34703,-124 2.6856,-20.4069 2.7005,-20.8678 3.2733,-101.5 l 0.5755,-81 19.32,58.5 c 21.6201,65.4647 20.8998,63.327 22.7972,67.6511 0.7606,1.7332 1.3828,3.6441 1.3828,4.2465 0,0.6024 4.7836,15.6094 10.6303,33.3489 17.4127,52.8319 43.1083,130.0334 44.3518,133.2535 1.8228,4.72 0.5566,8.5837 18.5148,-56.5 4.0557,-14.6983 11.02,-39.3142 18.9558,-67 9.1371,-31.8767 22.2568,-78.1864 24.9307,-88 0.8242,-3.025 2.6669,-9.325 4.0948,-14 1.428,-4.675 3.8895,-13.45 5.47,-19.5 1.5806,-6.05 6.1061,-22.25 10.0567,-36 9.0701,-31.5682 13.9421,-48.798 19.5111,-69 2.4258,-8.8 4.9003,-17.575 5.4988,-19.5 0.5985,-1.925 2.4131,-8.225 4.0325,-14 4.923,-17.5561 5.1362,-18.2999 7.0232,-24.5 1.0043,-3.3 3.6052,-12.525 5.7797,-20.5 4.7367,-17.372 7.6658,-27.7977 14.3105,-50.9353 2.7539,-9.5895 6.2699,-22.1895 7.8133,-28 2.2435,-8.4461 9.9887,-35.6235 12.6291,-44.3147 0.5008,-1.6484 5.366,-1.75 83.7997,-1.75 h 83.2681 l 1.524,5.25 c 0.8383,2.8875 3.8483,13.575 6.6889,23.75 2.8407,10.175 6.0697,21.425 7.1755,25 1.1059,3.575 6.005,20.45 10.8869,37.5 4.882,17.05 11.4424,39.775 14.5788,50.5 3.1364,10.725 7.2478,25.125 9.1366,32 3.4088,12.4081 8.393,29.6962 16.8658,58.5 2.4268,8.25 7.1445,24.45 10.4837,36 3.3392,11.55 7.6752,26.4 9.6354,33 1.9602,6.6 4.6564,16.05 5.9915,21 1.3351,4.95 4.3965,15.75 6.8032,24 8.0277,27.5188 12.4575,42.8787 16.4387,57 2.1709,7.7 6.9456,24.35 10.6105,37 3.6649,12.65 8.192,28.4 10.0602,35 1.8682,6.6 5.934,20.55 9.0351,31 3.1011,10.45 7.5004,25.4909 9.7763,33.4242 2.2759,7.9334 4.6068,14.5771 5.1798,14.764 0.5736,0.187 4.5682,-10.5663 8.8874,-23.9243 4.3151,-13.3451 11.5675,-35.5139 16.1166,-49.2639 4.5491,-13.75 14.2192,-43.225 21.4891,-65.5 7.2699,-22.275 15.594,-47.7 18.498,-56.5 2.9039,-8.8 9.1007,-27.7 13.7706,-42 4.6699,-14.3 15.4551,-47.15 23.9671,-73 8.512,-25.85 22.3142,-67.925 30.6717,-93.5 16.6342,-50.9034 37.4397,-114.3921 44.8134,-136.75 l 4.6997,-14.25 h 94.7723 c 105.2677,0 96.3786,-0.6471 93.1632,6.7821 -0.885,2.0449 -4.4269,11.8179 -7.8708,21.7179 -3.4438,9.9 -11.6694,33.3 -18.2791,52 -6.6096,18.7 -12.3448,35.125 -12.7448,36.5 -0.7624,2.6203 -7.3402,21.1732 -18.2592,51.5 -3.5645,9.9 -9.3761,26.325 -12.9148,36.5 -11.1822,32.1526 -16.1478,46.2476 -19.3762,55 -3.2563,8.8278 -11.621,32.5434 -22.397,63.5 -11.449,32.89 -32.5627,92.9198 -34.6445,98.5 -1.1285,3.025 -4.681,13.15 -7.8944,22.5 -3.2133,9.35 -7.055,20.375 -8.537,24.5 -4.2882,11.9354 -16.1622,45.9836 -22.4937,64.5 -3.1971,9.35 -11.0714,31.85 -17.4984,50 -6.4269,18.15 -13.3654,37.95 -15.4187,44 -2.0534,6.05 -7.5884,22.025 -12.3,35.5 -4.7115,13.475 -13.5683,38.9 -19.6817,56.5 -6.1134,17.6 -13.0753,37.4 -15.4709,44 -2.3956,6.6 -6.2508,17.7397 -8.5671,24.7549 l -4.2115,12.755 -97.1636,-0.255 -97.1636,-0.2549 -4.1394,-14.5 c -2.2767,-7.975 -7.5989,-26.875 -11.8272,-42 -4.2283,-15.125 -8.5406,-30.2 -9.5829,-33.5 -1.0424,-3.3 -2.9818,-10.275 -4.3098,-15.5 -1.3281,-5.225 -4.0052,-14.9 -5.9492,-21.5 -3.3874,-11.5003 -9.0415,-31.7309 -12.7166,-45.5 -0.9542,-3.575 -3.4256,-12.125 -5.492,-19 -2.0664,-6.875 -4.9955,-17.225 -6.509,-23 -1.5136,-5.775 -4.5756,-16.8 -6.8046,-24.5 -2.2289,-7.7 -5.2206,-18.5 -6.6482,-24 -1.4276,-5.5 -3.447,-12.7 -4.4876,-16 -1.0406,-3.3 -4.3803,-15 -7.4216,-26 -3.0413,-11 -7.3789,-26.525 -9.6391,-34.5 -2.2601,-7.975 -5.6129,-20.125 -7.4507,-27 -1.8377,-6.875 -4.3258,-15.875 -5.5291,-20 -2.8713,-9.8432 -8.6996,-30.7268 -15.4891,-55.5 -8.4615,-30.8736 -15.237,-54.7035 -16.4664,-57.9128 -1.4129,-3.6887 -2.4712,-2.6162 -4.3543,4.4128 -1.903,7.1035 -10.8064,38.2114 -15.1691,53 -1.866,6.325 -6.1546,21.625 -9.5304,34 -3.3757,12.375 -7.4834,26.9402 -9.1281,32.367 -1.6447,5.4269 -4.725,16.4519 -6.8451,24.5 -4.0536,15.3885 -9.664,35.5508 -15.4805,55.633 -4.2297,14.6039 -7.2806,25.3439 -9.0901,32 -8.9795,33.03 -19.3358,70.2478 -22.9566,82.5 -4.086,13.8262 -11.338,39.7366 -14.974,53.5 -1.453,5.5 -3.5051,12.7 -4.5601,16 -1.0551,3.3 -4.1241,14.1 -6.82,24 -5.6635,20.798 -10.6765,38.6882 -12.0489,43 -0.5252,1.65 -3.4871,12.2009 -6.5819,23.4464 -3.0948,11.2454 -5.8505,20.8079 -6.1237,21.25 -0.2731,0.442 -43.8511,0.8036 -96.8398,0.8036 h -96.3431 z m -496.00613,1.6138 c -25.6987,-0.7652 -64.5982,-5.4518 -82,-9.8792 -3.025,-0.7696 -11.125,-2.8005 -18,-4.513 -34.1809,-8.514 -78.43621,-26.7153 -109.614,-45.0818 -74.21894,-43.7217 -133.28412,-106.7734 -168.98415,-180.3898 -12.63689,-26.0583 -18.72025,-42.1244 -27.26244,-72 -7.94365,-27.7822 -13.13944,-69.282 -13.13944,-104.9471 0,-73.9014 16.98687,-139.8295 52.31813,-203.0529 20.35898,-36.4313 51.08524,-74.8114 81.86018,-102.2513 45.76296,-40.8036 93.39144,-69.346 146.32172,-87.6865 37.3879,-12.9549 64.5203,-19.2248 104,-24.0328 14.3114,-1.7428 78.8182,-2.1086 96,-0.5443 11.9089,1.0843 13.6027,1.3481 42,6.5418 18.8349,3.4448 50.6562,12.1322 67.5,18.4279 4.675,1.7474 10.525,3.8635 13,4.7025 2.475,0.8389 5.4,2.0769 6.5,2.7509 1.1,0.6741 4.7,2.2699 8,3.5463 8.9622,3.4664 35.597,16.7251 38.7686,19.2988 l 2.7687,2.2467 -0.2687,110.3717 -0.2686,110.3718 -4,-5.8318 c -17.5871,-25.6409 -42.7868,-50.297 -69.6088,-68.107 -44.9919,-29.875 -96.0325,-45.3047 -149.8657,-45.3047 -32.1959,0 -57.0213,4.197 -88.6798,14.9921 -63.4792,21.6455 -116.75664,67.2356 -148.82713,127.3528 -38.39075,71.9648 -37.90986,162.7625 1.22956,232.1551 13.95447,24.7407 25.4925,39.8589 46.19667,60.5312 17.952,17.9244 38.1618,33.6135 54.5552,42.3519 2.75,1.4659 6.575,3.6222 8.5,4.7919 10.4648,6.3587 43.0327,19.4335 58.3452,23.4233 28.5838,7.4478 66.7798,10.1879 96.6548,6.9337 22.0314,-2.3999 45.6216,-7.2017 54.9243,-11.18 1.9666,-0.841 6.0507,-2.3444 9.0757,-3.3408 14.3987,-4.7431 43.9366,-20.0508 59.5,-30.8353 23.6826,-16.4108 45.7573,-37.6994 62.9159,-60.6759 25.7776,-34.5176 39.9058,-67.7551 48.2454,-113.5 l 2.8257,-15.5 0.2786,-302.75 c 0.1815,-197.2839 -0.063,-302.75 -0.7017,-302.75 -0.933,0 -46.7064,15.59429 -54.0639,18.4187 -1.925,0.739 -13.625,4.7611 -26,8.9379 -12.375,4.1769 -31.725,10.785 -43,14.6847 -19.2112,6.6446 -41.7165,14.1917 -52,17.4382 -13.994,4.4179 -33.0916,3.8406 -45.9415,-1.3887 -13.6336,-5.5482 -15.2927,-6.9107 -41.5618,-34.13 -8.2482,-8.54654 -29.2184,-30.14654 -46.6005,-47.99999 -17.3821,-17.85345 -33.489,-34.64813 -35.7932,-37.32152 -8.4229,-9.7726 -14.103,-25.33078 -14.103,-38.62885 0,-12.89478 2.3104,-19.65992 16.7161,-48.94655 27.1727,-55.24199 30.2124,-61.87734 28.6251,-62.48644 -0.8089,-0.31042 -65.6792,-0.31184 -144.15602,-0.003 -78.47686,0.30869 -156.63521,0.15955 -173.68521,-0.33141 -27.95458,-0.80498 -31.58277,-1.10521 -36.93216,-3.05612 -20.73203,-7.56093 -33.49115,-23.12498 -37.56495,-45.82312 -1.10076,-6.13318 -1.05396,-8.26214 0.3329,-15.14501 3.07072,-15.23958 8.30357,-25.10955 22.64856,-42.71864 3.13634,-3.85 12.78169,-16 21.43411,-27 8.65242,-11 17.38539,-22.01868 19.4066,-24.48595 2.02122,-2.46727 7.92164,-9.89227 13.11204,-16.5 5.19041,-6.60773 17.12565,-21.68905 26.52277,-33.51405 9.39712,-11.825 20.00043,-25.24044 23.5629,-29.8121 6.35005,-8.14889 24.27902,-30.70509 54.80537,-68.94992 8.43047,-10.56209 19.23047,-22.86277 24,-27.33484 27.45748,-25.74505 55.93869,-40.20378 91.53459,-46.46832 6.7859,-1.19426 29.994,-1.43231 139.7494,-1.43345 l 131.6122,-0.002 13.8878,-17.71119 c 7.6383,-9.74115 18.3017,-23.12865 23.6963,-29.75 5.3946,-6.62134 12.1446,-14.91458 15,-18.42942 5.3704,-6.61079 16.5069,-19.99471 29.6288,-35.6082 20.0414,-23.84687 61.7799,-66.92522 80.5628,-83.14892 11.673,-10.08259 31.609,-26.58673 38.4962,-31.86945 25.0677,-19.22758 63.5282,-44.22877 88.0038,-57.20666 23.247,-12.32646 27.38893,-14.42388 39.09433,-19.796943 28.5843,-13.120872 77.3927,-31.276733 101.9269,-37.914929 11.7852,-3.188719 39.1829,-9.777272 52.4788,-12.620024 5.5,-1.175935 12.7,-2.757628 16,-3.514874 7.5652,-1.735964 39.9438,-6.903323 52.5,-8.378563 5.225,-0.613889 12.425,-1.539947 16,-2.057906 17.5641,-2.544744 64.7288,-4.965832 97.0383,-4.981228 23.7184,-0.0113 64.6709,2.114661 75.9617,3.943398 3.025,0.489948 8.875,1.41343 13,2.052181 13.9966,2.167358 30.2982,6.899735 39.7509,11.539739 29.7634,14.609795 39.419,36.463821 47.6962,107.952989 4.7742,41.23454 4.7953,120.21645 0.042,156.13117 -0.8641,6.52786 -1.9843,15.01883 -2.4894,18.86883 -2.0213,15.40777 -3.1941,23.38425 -4.6313,31.5 -0.8279,4.675 -2.1164,12.1 -2.8633,16.5 -7.4893,44.12052 -26.6232,106.42295 -46.9881,153 -7.2877,16.66788 -23.1038,48.68014 -29.1497,59 -2.5777,4.4 -7.1827,12.275 -10.2332,17.5 -14.5849,24.98108 -33.6414,51.76741 -59.0448,82.99523 -26.6448,32.75381 -51.0288,59.0149 -94.6796,101.96781 -46.3775,45.63593 -99.5098,99.04919 -106.9238,107.48902 -3.842,4.37364 -9.2619,10.44864 -12.0441,13.5 -37.3015,40.90952 -77.3259,100.06912 -101.4942,150.01722 -21.8973,45.2544 -41.0639,102.8602 -50.5838,152.0307 -1.97,10.175 -3.9946,20.525 -4.49923,23 -1.3454,6.5995 -3.8477,23.2496 -4.9596,33 -4.1384,36.2917 -4.1612,37.1629 -4.9042,187.5 -0.7501,151.7674 -0.7474,151.6729 -5.0396,181.5 -4.4061,30.6196 -15.5055,69.3311 -27.6238,96.3443 -36.9491,82.3645 -96.3167,147.2044 -178.9251,195.4179 -28.9075,16.8716 -73.7804,35.1103 -106.4119,43.2515 -25.0579,6.2517 -27.6458,6.8254 -36,7.9807 -4.675,0.6465 -10.3,1.5625 -12.5,2.0354 -12.0009,2.5799 -58.8168,5.0393 -82.5,4.334 z M 1195.5125,497.57947 c 28.861,-3.91691 51.1536,-15.10989 70.7374,-35.51672 17.3,-18.02703 27.7961,-39.35247 31.2849,-63.56275 2.3924,-16.60141 1.7766,-29.71154 -2.2076,-47 -2.3409,-10.15748 -10.0819,-27.77329 -16.2593,-37 -10.0977,-15.08223 -28.7246,-31.33713 -45.5554,-39.75432 -6.282,-3.14168 -25.0567,-9.18545 -33.0602,-10.64245 -8.4558,-1.53933 -29.369,-1.3443 -39.0241,0.36394 -8.7888,1.55496 -25.3686,6.9426 -32.4645,10.54939 -30.219,15.36016 -53.5898,44.31898 -61.3213,75.98344 -6.8263,27.95711 -4.2874,53.52567 7.9111,79.67261 17.1399,36.73839 51.2671,61.41081 92.459,66.84351 12.5819,1.6594 15.6871,1.66656 27.5,0.0634 z"
       id="path1" />
  </g>
  <path
     fill="oklch(54.6% 0.245 262.881)"
     d="m 390.30707,1956.9629 c -37.9737,-4.3655 -67.55167,-11.3568 -103.98059,-24.5775 -22.79166,-8.2715 -60.07406,-26.2849 -79.53485,-38.4281 -51.971,-32.4293 -99.79929,-78.8794 -133.345502,-129.5035 C 49.567022,1728.4183 25.594893,1672.2847 16.720676,1631.6245 5.8092617,1581.6302 5.5149092,1508.8351 16.01877,1458.039 c 15.173131,-73.3766 51.568386,-142.5525 103.7625,-197.2199 66.83759,-70.0048 149.55592,-113.2838 249.41262,-130.4948 19.25785,-3.3193 27.54268,-3.738 73.81095,-3.7304 49.87478,0.01 53.13138,0.2061 75.65547,4.5979 46.46824,9.0605 82.86319,20.752 121.04876,38.8856 28.83111,13.6914 25.55573,-2.5779 24.72041,122.7906 -0.66903,100.4111 -0.90095,107.32 -3.47188,103.4232 -13.5184,-20.4898 -43.14808,-49.3194 -68.04088,-66.2037 -16.00613,-10.8567 -48.58435,-26.6032 -68.37209,-33.0474 -45.46903,-14.8076 -101.75303,-16.707 -147.27389,-4.9699 -51.59697,13.3037 -89.38057,34.6887 -126.01395,71.3221 -53.07435,53.0743 -79.77303,120.8924 -75.75833,192.4359 3.58989,63.9733 27.77892,116.4144 75.70479,164.1259 32.78103,32.6342 64.85397,52.4371 108.58462,67.0434 26.9278,8.994 46.1382,11.7173 82.37635,11.6776 48.69062,-0.053 77.68363,-6.644 118.49948,-26.9375 29.33339,-14.5845 44.73604,-25.8132 69.86991,-50.9352 40.65653,-40.6375 61.13342,-78.3825 72.99148,-134.5452 l 4.27391,-20.2424 v -305.117 c 0,-167.8143 -0.25134,-305.11696 -0.55855,-305.11696 -0.30722,0 -17.14056,5.75259 -37.40743,12.78352 -20.26688,7.03095 -61.24694,21.02721 -91.06682,31.10281 -51.14132,17.27973 -54.98364,18.31923 -67.71162,18.31923 -16.10173,0 -28.98468,-4.0012 -39.65907,-12.3176 -4.01449,-3.1277 -30.36351,-29.43906 -58.55337,-58.4698 -54.89268,-56.53009 -60.06559,-63.2217 -63.36859,-81.97323 -2.61171,-14.82691 0.81295,-25.31798 23.82613,-72.98884 11.05984,-22.90997 20.10879,-43.26126 20.10879,-45.22506 v -3.57055 l -134.07831,1.07226 C 185.58708,745.10332 106.33797,744.97679 83.221027,744.23241 42.201995,742.91155 40.979085,742.77039 32.41993,738.36869 20.979915,732.48545 12.291455,723.63781 7.345858,712.8352 2.1432746,701.47126 0.3564343,691.10564 1.9856074,681.73989 4.7874741,665.63261 14.126221,651.86585 69.843743,581.70654 99.951674,543.79474 140.21486,493.10558 159.3175,469.06395 c 19.10264,-24.04163 39.67957,-48.68408 45.72649,-54.76098 18.62559,-18.71794 42.32213,-33.84055 65.40162,-41.73783 25.10847,-8.59157 24.84951,-8.57824 166.6853,-8.57824 h 132.60795 l 23.11167,-29.00127 C 703.40781,196.25474 771.34209,135.41414 875.08166,82.224957 950.04681,43.788959 1034.3481,18.747328 1128.9478,6.8142173 c 60.5799,-7.64174441 148.7271,-7.68421739 192.4812,-0.092746 49.7254,8.6274897 68.4219,24.0597237 78.9301,65.1492947 9.1165,35.647554 12.4221,77.883234 11.4511,146.309974 -0.8127,57.2617 -2.6272,76.22604 -12.3165,128.7231 -17.5907,95.30762 -58.6816,194.54153 -111.2576,268.68489 -34.9183,49.24245 -58.1046,75.10739 -153.4953,171.22821 -88.6891,89.36793 -104.3302,106.17076 -127.4669,136.93436 -73.88639,98.2429 -113.71446,198.9125 -129.73806,327.9265 -1.01578,8.1787 -2.41443,81.1608 -3.27025,170.6451 -0.90781,94.9193 -2.24335,162.9606 -3.39896,173.167 -9.95273,87.9024 -50.31893,170.2653 -115.28935,235.2357 -66.01318,66.0133 -154.46423,110.4628 -247.84498,124.55 -25.19213,3.8004 -90.83884,4.7437 -117.42523,1.6873 z M 1083.5545,470.65591 c 46.4429,-5.95465 86.919,-43.07911 97.7129,-89.62177 3.3485,-14.43829 3.323,-40.09491 -0.054,-54.57076 -9.4655,-40.57302 -38.5214,-72.09106 -78.7381,-85.40997 -13.6947,-4.5354 -17.874,-5.15629 -34.8924,-5.18383 -32.6874,-0.0529 -58.4128,9.47832 -80.31542,29.75683 -39.33403,36.41728 -50.20435,90.86091 -27.52726,137.86946 18.60533,38.56802 51.63858,62.46156 93.82208,67.86331 11.3685,1.45578 13.5523,1.40457 29.9923,-0.70327 z"
     id="path2" />
  <path
     fill="oklch(54.6% 0.245 262.881)"
     d="m 892.27216,1876.6897 c -17.27934,-46.4725 -32.62259,-88.0459 -34.09611,-92.3853 l -2.67913,-7.8897 11.79611,-22.3725 c 21.49594,-40.7691 34.70068,-80.4321 43.12017,-129.5199 5.34543,-31.1652 7.31305,-68.6417 7.61488,-145.0375 l 0.2192,-55.4806 48.6683,146.6875 c 26.76756,80.6782 49.30002,146.6876 50.07202,146.6876 1.5379,0 2.4962,-3.2302 32.1721,-108.4395 11.2152,-39.7612 32.4863,-115.0384 47.269,-167.2827 14.7827,-52.2443 38.1954,-135.087 52.0282,-184.095 13.8328,-49.0079 25.5558,-90.4293 26.051,-92.0475 0.8416,-2.75 6.3059,-2.9421 83.6747,-2.9421 h 82.7744 l 9.5069,33.2043 c 5.2287,18.2624 21.3003,74.0583 35.7146,123.9909 14.4143,49.9326 43.5295,150.9327 64.7004,224.4446 45.813,159.0767 49.1231,170.0603 51.3026,170.2332 2.4917,0.1977 3.5807,-3.0399 96.9808,-288.3146 l 86.2736,-263.508 93.7287,-0.025 c 53.069,-0.014 93.7287,0.6184 93.7287,1.4586 0,0.816 -4.1078,13.1101 -9.1284,27.32 -98.1836,277.8901 -157.0979,445.7376 -230.6552,657.1391 -20.7523,59.6418 -38.0609,109.3853 -38.4635,110.5411 -0.5741,1.6483 -21.524,2.1015 -97.1362,2.1015 h -96.4042 l -6.35,-22.2763 c -3.4925,-12.252 -15.6908,-55.5647 -27.1073,-96.2506 -11.4165,-40.6858 -28.4127,-101.2102 -37.7693,-134.4986 -9.3566,-33.2884 -28.325,-101.151 -42.152,-150.8058 -27.9868,-100.5043 -27.8736,-100.14 -30.333,-97.6806 -1.5864,1.5864 -14.3275,46.052 -60.3618,210.6587 -36.7,131.2299 -74.3877,265.3707 -77.9382,277.4034 l -3.7206,12.6092 -95.8422,0.434 -95.84226,0.4339 z"
     id="path3" />
  <path
     fill="oklch(54.6% 0.245 262.881)"
     d="m 395.8741,1956.563 c -50.17563,-6.0575 -87.7005,-16.0572 -131.57647,-35.0625 C 149.98537,1871.9848 66.451699,1781.1716 27.51416,1664.0825 14.964078,1626.3432 10.468683,1593.9726 10.568647,1542.0608 10.682283,1483.049 16.390034,1448.4422 33.733713,1401.6083 83.205048,1268.0186 197.257,1170.7869 345.03297,1136.219 c 26.16398,-6.1204 32.73805,-6.6761 88.88308,-7.5138 57.75934,-0.8618 62.06626,-0.6132 90.98347,5.2518 48.28019,9.792 118.59066,34.8324 131.60539,46.8698 7.62596,7.0533 8.43558,22.0846 6.59695,122.4761 l -1.66146,90.7155 -10.24677,-12.579 c -68.38324,-83.9476 -186.15248,-118.3092 -292.06763,-85.2168 -77.28033,24.1456 -142.39512,86.135 -170.03697,161.8755 -11.4955,31.4984 -15.08119,56.3336 -13.64231,94.4892 1.90076,50.4033 12.52088,84.6357 38.25626,123.3136 41.7226,62.7052 109.73179,108.5735 178.82178,120.605 21.95561,3.8234 97.94427,1.5701 115.6869,-3.4304 45.47381,-12.8163 82.68321,-33.5712 115.05461,-64.1758 43.61577,-41.2353 64.38083,-76.0976 78.40854,-131.6395 l 8.28014,-32.7848 -0.71177,-303.544 c -0.39147,-166.9491 -1.34937,-304.18112 -2.12864,-304.95994 -0.77929,-0.77881 -11.47859,2.19574 -23.77622,6.61008 -12.29765,4.41436 -53.00212,18.33693 -90.45438,30.93904 -70.72515,23.79792 -82.33453,26.14802 -101.7137,20.59012 -14.14638,-4.0571 -25.47774,-13.9637 -74.78295,-65.38019 -56.43712,-58.85371 -63.77068,-68.50943 -65.20933,-85.85748 -1.28444,-15.48869 0.8189,-21.87791 22.58687,-68.61114 9.71092,-20.84823 18.24791,-40.86424 18.97107,-44.48004 l 1.31482,-6.57417 -176.81557,-0.69476 -176.815569,-0.69479 -8.321677,-5.1831 C 5.2356997,719.90408 -3.6832039,691.91531 9.4495467,665.56132 19.942241,644.50524 179.85455,442.70429 209.06949,413.65144 c 13.88544,-13.8084 24.43451,-21.78694 38.20322,-28.89403 36.9642,-19.08014 28.57752,-18.18641 184.51102,-19.66237 l 139.3362,-1.31884 26.95738,-33.28671 C 678.81002,230.80154 737.11255,172.15011 796.50344,130.87594 906.69807,54.29527 1040.4083,10.940598 1189.1982,3.5471955 c 44.6414,-2.2182405 109.1218,0.065646 133.9486,4.7444383 36.9478,6.9631152 56.818,19.0457302 67.5987,41.1052572 22.7404,46.531562 27.2817,183.026379 9.4911,285.264559 -19.9656,114.73696 -69.7123,227.92721 -137.6681,313.2406 -23.1818,29.10302 -51.379,59.21775 -140.668,150.23398 -46.5483,47.44866 -93.0661,96.75413 -103.373,109.56773 -72.72708,90.41491 -115.75163,186.95924 -136.41782,306.11294 -5.73067,33.041 -6.06467,40.4984 -8.25085,184.2252 -1.25313,82.3846 -2.7909,162.1501 -3.41726,177.2567 -3.7293,89.9422 -42.6495,177.3005 -110.21299,247.3784 -52.42336,54.3744 -110.01907,90.5928 -181.26942,113.9893 -44.48716,14.6083 -72.48457,19.0154 -127.21094,20.0245 -26.15385,0.4823 -51.2972,0.4248 -55.87412,-0.1278 z M 1102.0279,467.14572 c 48.4912,-14.12129 83.334,-62.2869 83.1816,-114.98775 -0.1631,-56.42128 -42.7844,-106.29472 -99.0896,-115.94998 -60.3334,-10.34605 -119.58564,28.07982 -135.09082,87.60822 -17.49348,67.16193 27.77205,136.11158 97.13782,147.96283 15.64,2.67214 34.2813,1.06855 53.861,-4.63332 z"
     id="path4" />
  <path
     fill="oklch(54.6% 0.245 262.881)"
     d="m 891.61983,1871.7797 c -18.27451,-49.4065 -33.46436,-91.1686 -33.75522,-92.8048 -0.29086,-1.6362 5.88693,-15.9448 13.72842,-31.7968 32.6663,-66.037 46.39431,-131.7213 46.41428,-222.0779 0.004,-18.2051 0.60038,-46.0649 1.32522,-61.9105 l 1.31791,-28.8104 45.372,135.8104 C 990.97703,1644.8853 1012.77,1709.15 1014.4512,1713 l 3.0568,7 2.1388,-5.3483 c 1.1764,-2.9416 36.7018,-127.5916 78.9454,-277 L 1175.3988,1166 l 5.8006,-1.2634 c 3.1903,-0.6948 40.1558,-1.3698 82.1455,-1.5 l 76.3449,-0.2366 2.0719,6.5 c 1.1396,3.575 25.1227,86.6 53.2959,184.5 107.0595,372.0249 103.9657,361.6589 107.5786,360.4546 3.2475,-1.0825 7.8444,-14.6578 92.598,-273.4546 42.3283,-129.25 80.1411,-244.675 84.0285,-256.5 l 7.068,-21.5 79.3347,0.2484 c 43.634,0.1366 85.3283,0.8116 92.654,1.5 l 13.3195,1.2516 -65.9016,187 c -36.2459,102.85 -98.7385,280.9989 -138.8725,395.8864 -40.134,114.8874 -73.3891,209.3046 -73.9004,209.8158 -0.5112,0.5113 -43.5767,1.3612 -95.7011,1.8887 l -94.7716,0.9591 -2.1406,-6.775 c -2.2357,-7.0756 -42.8653,-151.6848 -99.1163,-352.775 -38.9282,-139.1632 -39.6159,-141.4604 -42.6546,-142.4733 -3.1255,-1.0418 -1.7769,-5.6378 -77.7476,264.9611 L 1115,1958.9755 l -53.1775,0.012 c -29.2477,0.01 -72.03227,0.5994 -95.07692,1.3171 l -41.89936,1.3048 z"
     id="path25" />
  <path
     fill="oklch(54.6% 0.245 262.881)"
     d="M 392.13904,1954.7856 C 318.76542,1947.913 234.78452,1913.9669 171.64641,1865.6598 92.865688,1805.3846 35.42344,1713.8335 16.883689,1619 c -4.514422,-23.0919 -6.212439,-97.5132 -2.949165,-129.257 8.998864,-87.5372 54.911038,-177.8856 123.285596,-242.6078 58.11396,-55.0098 136.94656,-95.4586 218.3905,-112.0558 25.30082,-5.156 117.8439,-7.9267 144.57118,-4.3283 38.3213,5.1592 106.44504,25.3662 137.9404,40.916 25.46236,12.5713 23.91712,5.5557 23.64092,107.3329 -0.12686,46.75 -0.80046,90.777 -1.49688,97.8377 L 659,1389.6754 l -7.26002,-8.8377 c -38.17562,-46.4717 -92.2088,-78.8227 -153.82664,-92.0998 -27.65312,-5.9585 -81.70222,-6.5359 -108.33296,-1.1573 -54.54488,11.0165 -100.2262,35.6524 -139.58038,75.2758 -41.94356,42.2304 -67.5595,92.8899 -74.22227,146.786 -4.23506,34.258 0.51211,83.882 10.96082,114.5778 27.58227,81.03 114.02343,155.4915 199.28321,171.665 19.14886,3.6324 66.09696,4.1433 98.48812,1.0717 69.98106,-6.6362 147.25074,-58.6417 188.90426,-127.1398 12.58434,-20.6946 20.22878,-40.0056 29.75516,-75.166 l 7.18494,-26.5185 -0.67712,-305.4001 c -0.37242,-167.97 -1.37222,-306.0949 -2.22176,-306.94422 -0.84956,-0.84934 -36.84956,10.3087 -80,24.79566 C 535.3744,1011.4984 523.11196,1015 506.93288,1015 c -20.4604,0 -28.89034,-5.6082 -68.67188,-45.68516 -47.50852,-47.86138 -75.42904,-79.29722 -81.60864,-91.88352 -8.19176,-16.68464 -6.34592,-28.39316 10.3152,-65.43132 18.83886,-41.8793 26.95316,-61.47052 26.99584,-65.17902 0.0322,-2.79254 -6.34614,-3.33914 -52.4634,-4.49592 -28.875,-0.72428 -108.3707,-1.31872 -176.65711,-1.32096 L 40.685782,741 l -9.4487,-6.25856 C 10.765924,721.1819 1.0327605,699.7058 5.9912032,679.03668 7.3733898,673.27508 12.215811,663.03062 16.752137,656.2712 37.004674,626.09362 142.31639,492.55472 188.35196,438.67666 c 12.30878,-14.40566 28.0886,-30.90116 35.0663,-36.6567 13.90182,-11.46686 44.4101,-27.6408 58.58174,-31.05706 9.64642,-2.32538 142.97264,-5.65308 234.22796,-5.84608 L 571.45592,365 596.18722,334.5 C 655.06582,261.88768 707.37264,205.40014 749,169.4734 843.23626,88.142243 969.08282,32.812291 1104.8287,13.029033 1153.1294,5.9898166 1178.7008,4.244902 1232,4.3512392 c 71.2541,0.1421588 99.2495,3.6632544 126,15.8475408 27.9016,12.708599 39.1537,34.932949 47.4837,93.78685 4.2403,29.95896 4.7855,135.96287 0.8745,170.01437 -15.1749,132.11902 -61.2875,251.8313 -134.6671,349.6067 -26.5794,35.41598 -34.0013,43.56144 -131.5677,144.3933 -99.8094,103.14996 -113.4918,117.7991 -130.7615,140 -36.85106,47.3737 -74.48502,114.442 -94.0093,167.536 -16.82522,45.7542 -31.54322,104.705 -37.31606,149.464 -1.06406,8.25 -2.8775,64.05 -4.02988,124 -3.82248,198.8562 -5.32024,238.5083 -9.96274,263.754 C 841.845,1743.4716 752.65084,1856.4671 635,1912.918 c -36.62674,17.5741 -77.53376,31.1256 -112,37.1028 -26.52026,4.5993 -102.92692,7.3813 -130.86096,4.7648 z M 1096.808,469.04912 c 42.4303,-10.85184 73.9587,-43.1274 85.248,-87.26808 7.2241,-28.24586 3.4395,-59.04034 -10.4965,-85.40894 -13.4533,-25.45502 -44.3963,-49.89936 -73.5595,-58.11044 -40.8018,-11.48802 -84.9726,0.13888 -115.71764,30.45988 -21.27618,20.98272 -36.1323,55.35396 -36.24764,83.86278 -0.10988,27.16468 12.99868,60.23438 32.16968,81.15614 14.97722,16.34498 30.2959,26.49948 50.6828,33.59672 20.3492,7.08412 44.5325,7.69366 67.9208,1.71194 z"
     id="path26" />
  <path
     fill="oklch(54.6% 0.245 262.881)"
     d="M 925.01709,1959 C 921.90206,1953.803 860,1781.8343 860,1778.3774 c 0,-2.5239 3.69347,-12.1914 8.20771,-21.4832 20.7236,-42.6561 33.0054,-78.3213 40.74714,-118.3258 6.72299,-34.7404 8.7186,-60.0848 10.12343,-128.5684 0.67693,-33 1.69231,-61.35 2.2564,-63 0.56408,-1.65 18.93841,50.1 40.83184,115 50.51768,149.7525 54.02068,159.6151 55.98838,157.6345 1.6028,-1.6133 42.6317,-144.6256 118.6083,-413.4269 21.4209,-75.7859 40.1372,-138.5471 41.5919,-139.4694 1.4547,-0.9223 30.9949,-1.6961 65.6449,-1.7196 34.65,-0.023 70.2,-0.5915 79,-1.2624 l 16,-1.2198 36.7411,127.7318 c 105.968,368.4014 121.2905,420.5479 124.5074,423.7318 1.3512,1.3373 2.9953,0.6793 4.9617,-1.9856 2.7989,-3.7931 59.065,-172.8947 143.0812,-430.0144 21.2066,-64.9 38.5915,-118.0503 38.6331,-118.1119 0.5349,-0.792 181.0626,2.4272 181.8766,3.2434 0.6207,0.6223 -8.3953,28.0723 -20.0356,61 -26.3805,74.6246 -243.3859,692.5752 -250.1733,712.4006 -2.7364,7.9927 -6.4641,15.2945 -8.2837,16.2262 -1.8197,0.9318 -44.7127,2.2652 -95.3178,2.9632 l -92.0093,1.269 -34.687,-123.4952 c -19.0778,-67.9224 -49.9842,-177.9453 -68.681,-244.4953 -18.6968,-66.55 -35.2457,-124.0043 -36.7753,-127.6762 -1.5491,-3.7185 -3.8954,-6.3047 -5.2962,-5.8378 -3.3773,1.1258 -7.6504,15.7254 -80.2222,274.0875 -34.54,122.9654 -63.142,223.909 -63.5599,224.319 -1.1693,1.1474 -188.06151,2.244 -188.74271,1.1075 z"
     id="path27" />
  <path
     fill="oklch(54.6% 0.245 262.881)"
     d="m 369.75096,1952.0139 c -26.64734,-4.7659 -43.46443,-8.9113 -65.12101,-16.0527 -48.8461,-16.1071 -100.52278,-43.8973 -140.70974,-75.6696 -32.49755,-25.6928 -72.722751,-71.5565 -94.72828,-108.0066 -12.950555,-21.4514 -30.973666,-59.7615 -38.687802,-82.2352 -14.09923,-41.0755 -18.735496,-72.9278 -18.735496,-128.7175 0,-51.2452 4.13585,-82.022 16.096897,-119.7846 45.845895,-144.7418 165.276571,-250.3715 323.419981,-286.0469 18.43184,-4.158 78.83376,-7.19 121.14093,-6.081 25.3171,0.6637 34.99095,1.6575 52.00462,5.3424 53.55843,11.6 120.45364,35.6526 131.31663,47.2157 1.96702,2.0938 4.25174,6.7171 5.07714,10.274 1.66117,7.1586 1.73192,132.955 0.0975,173.3639 l -1.03841,25.6732 -7.51575,-9.4306 c -12.6378,-15.8578 -39.169,-40.074 -56.66841,-51.7239 -29.7361,-19.7961 -63.33157,-33.7976 -100.30034,-41.802 -14.65878,-3.1739 -22.34794,-3.705 -54.07578,-3.7347 -32.13318,-0.03 -39.2484,0.4593 -54.21813,3.729 -83.56803,18.2533 -151.71338,71.09 -187.99793,145.7649 -17.62142,36.2654 -24.25935,64.8445 -24.25935,104.4465 0,68.4442 15.86272,113.0713 58.31602,164.0625 36.59153,43.9504 93.65013,79.743 146.79439,92.0833 27.56188,6.3999 102.91499,5.0418 131.22015,-2.365 50.0059,-13.0854 99.10455,-44.4624 135.76538,-86.762 30.19846,-34.8434 44.61175,-64.6665 58.9544,-121.985 l 5.01092,-20.0254 -0.74583,-247.9819 c -0.9054,-301.0419 -1.75089,-359.7838 -5.17852,-359.7838 -1.33355,0 -39.64113,12.44016 -85.12793,27.64483 -45.48682,15.20465 -88.75573,28.88177 -96.15316,30.39367 -28.44069,5.8127 -39.29048,1.0013 -73.79391,-32.72421 -29.62417,-28.95628 -74.18291,-76.1559 -84.21022,-89.20114 -9.71021,-12.6327 -12.39591,-18.33935 -13.64909,-29.00199 -1.4873,-12.65454 1.42392,-21.56294 22.31143,-68.27337 9.72325,-21.744 18.07355,-41.968 18.5562,-44.94223 l 0.87755,-5.40771 -12.3827,-0.94137 c -6.81047,-0.51775 -86.42078,-1.32261 -176.91178,-1.78858 l -164.529093,-0.84722 -8.171128,-5.2434 C 7.0441996,719.56161 -1.9971815,691.25652 10.03225,667.29767 15.519049,656.36971 41.723601,621.05713 89.153791,560.67553 159.94451,470.55454 204.98746,417.14804 222.6754,402.36173 c 13.54085,-11.31952 47.58443,-29.12561 60.61234,-31.70255 12.77302,-2.52652 94.26591,-4.83958 173.32148,-4.91949 38.92145,-0.0393 80.91024,-0.57374 93.30842,-1.18754 l 22.54216,-1.11599 24.74738,-30.40713 C 685.95458,223.98506 741.94991,168.54159 807.8324,124.47959 909.96448,56.173972 1031.5273,16.139744 1168.2905,5.7700554 c 35.1869,-2.6679455 126.328,-1.1845654 148.5377,2.417547 41.2195,6.6852206 62.2179,19.1696346 73.7562,43.8509826 19.7239,42.191245 25.6008,153.483425 13.2767,251.423955 -15.9144,126.47356 -68.8052,252.93481 -145.5528,348.0152 -20.6701,25.60758 -34.0404,39.96821 -115.8313,124.41124 -115.3668,119.10763 -125.272,130.06206 -151.75723,167.83322 -56.53283,80.6228 -92.00587,168.9955 -109.77971,273.4904 -4.42181,25.9964 -6.10846,68.8878 -8.3963,213.5166 -2.06617,130.615 -3.58277,165.5789 -8.31842,191.7713 -13.72696,75.9227 -52.30747,147.1711 -111.91246,206.6738 -49.81515,49.7297 -104.68193,83.6313 -171.33762,105.8674 -47.77523,15.9378 -70.77437,19.3236 -137.97039,20.3115 -47.8104,0.7029 -51.62522,0.5289 -73.25391,-3.3393 z M 1097.0045,469.22509 c 5.548,-1.49401 16.5087,-5.8608 24.357,-9.70398 11.2836,-5.52539 17.0885,-9.83166 27.7403,-20.57866 15.3727,-15.51003 24.1941,-29.56969 30.679,-48.89642 4.0296,-12.00965 4.517,-15.97023 4.5509,-36.98712 0.035,-21.50533 -0.3682,-24.69837 -4.6668,-36.98713 -13.3878,-38.27259 -45.8859,-68.342 -84.5489,-78.23032 -24.8753,-6.36205 -54.0097,-3.82729 -77.2788,6.72347 -31.33097,14.20612 -54.01678,39.48762 -65.67376,73.18809 -4.15392,12.00906 -4.65229,15.79114 -4.65229,35.30589 0,19.54073 0.49435,23.28082 4.66656,35.30589 6.74143,19.42994 14.9831,33.16097 28.35065,47.23351 17.14731,18.05167 33.49384,27.82358 57.63294,34.45289 14.1788,3.8939 42.8078,3.49197 58.8432,-0.82611 z"
     id="path5" />
  <path
     fill="oklch(54.6% 0.245 262.881)"
     d="m 367.34939,1950.9195 c -53.66513,-10.1565 -99.70175,-26.8737 -144.21988,-52.3706 -39.67499,-22.7231 -66.61423,-43.1944 -93.28846,-70.8911 -34.236117,-35.5483 -57.053091,-67.3385 -76.005486,-105.8963 -19.924609,-40.5356 -30.428416,-70.8246 -36.209919,-104.4155 -4.142143,-24.0661 -6.075388,-72.8115 -4.223315,-106.4879 2.317448,-42.1384 5.898664,-61.2839 18.290356,-97.7819 43.748008,-128.8534 147.401854,-225.9129 286.082704,-267.8825 26.36801,-7.9799 40.58081,-10.6853 67.14269,-12.7807 29.36233,-2.3164 105.39781,-2.2975 122.27229,0.03 27.11551,3.7406 87.89301,21.4525 119.9095,34.9443 18.35982,7.7369 25.47908,12.1759 29.79217,18.5761 l 3.83248,5.6871 -0.14729,90.1176 c -0.081,49.5647 -0.64842,93.7199 -1.26092,98.1227 l -1.11363,8.0051 -8.96602,-10.527 c -29.81635,-35.007 -72.11115,-63.5701 -117.12645,-79.0991 -36.08664,-12.449 -44.16907,-13.669 -90.78658,-13.7035 -38.58039,-0.029 -43.34198,0.2943 -58.00253,3.9328 -85.01346,21.0986 -149.33585,72.4381 -185.59498,148.1342 -17.70966,36.9714 -22.8779,60.4377 -22.8779,103.8765 0,47.423 6.79319,78.543 24.72147,113.2504 35.14081,68.0293 109.70605,125.819 183.18942,141.9758 16.58347,3.6462 83.64035,4.1503 108.16089,0.8129 61.01413,-8.304 128.4621,-51.2141 170.91446,-108.735 18.74911,-25.404 29.61708,-49.7718 41.88048,-93.9029 l 7.44657,-26.7971 -0.0973,-173.2696 c -0.11068,-197.1367 -2.31388,-430.74188 -4.10376,-435.12155 -0.66131,-1.61818 -2.07529,-2.94215 -3.14219,-2.94215 -1.06687,0 -37.81615,11.75215 -81.66504,26.11588 C 530.561,1011.9 520.96313,1014.624 506.84362,1014.624 c -17.58474,0 -27.00896,-6.0321 -60.25282,-38.56614 -33.2387,-32.52893 -72.70376,-74.42226 -82.13448,-87.18815 -8.94942,-12.11441 -11.39741,-18.61875 -11.39741,-30.28312 0,-12.10599 2.25066,-18.67004 21.71354,-63.32742 8.45436,-19.39844 16.42097,-38.80365 17.7036,-43.12268 l 2.33202,-7.85279 -4.48255,-0.95982 c -2.46541,-0.5279 -82.02944,-1.45156 -176.80894,-2.05255 L 41.190208,740.1786 33.293092,735.21883 C 15.362015,723.95724 6.1074962,708.34686 6.0273674,689.22742 5.986669,679.51639 6.8293702,675.69747 10.701903,668.04354 22.103398,645.50888 148.67072,483.93794 198.45989,428.35897 c 24.75108,-27.62928 42.65767,-40.53708 73.20423,-52.7685 12.19178,-4.88183 13.54023,-5.04298 55.7708,-6.66484 23.8023,-0.91414 88.60263,-2.24696 144.00072,-2.96185 l 100.72379,-1.29978 6.0345,-7.40613 c 24.74,-30.36334 74.77663,-89.82242 88.42209,-105.07294 25.18282,-28.14495 66.57751,-68.7979 89.22785,-87.62896 96.66227,-80.363184 219.74328,-132.907995 355.45103,-151.746463 47.0229,-6.5275414 64.1845,-7.3599506 133.0907,-6.4554518 74.215,0.9741841 87.6466,2.6262318 111.6976,13.7384578 23.1089,10.676988 33.8123,25.16472 41.7252,56.477906 8.2939,32.820571 10.2241,55.977171 10.2241,122.655681 0,64.6373 -1.1273,81.49995 -8.5423,127.7737 -17.7932,111.03995 -65.735,224.39571 -131.3998,310.68788 -23.503,30.88603 -35.6658,44.08904 -145.8988,158.37609 -101.5678,105.3031 -109.2045,113.94948 -137.56155,155.74853 -41.67931,61.4364 -70.40039,124.915 -90.03428,198.9916 -7.4837,28.2352 -14.95263,67.1201 -16.91569,88.0669 -1.91324,20.4153 -4.21835,99.5909 -6.85657,235.5085 -1.8564,95.6404 -3.38106,125.4873 -7.60366,148.8511 -14.65296,81.0752 -60.34497,160.0838 -127.68046,220.7793 -46.98624,42.3528 -95.28805,70.2456 -157.54228,90.9754 -47.34619,15.7657 -77.03682,19.5572 -150.96396,19.278 -34.50801,-0.1303 -46.15122,-0.7826 -59.68376,-3.3436 z M 1091.9608,470.72757 c 38.3628,-8.0878 72.6227,-38.38522 86.912,-76.85985 4.5059,-12.13238 5.2705,-16.70093 5.986,-35.76512 0.9814,-26.14638 -1.1669,-36.76446 -11.735,-58.00253 -5.7072,-11.46942 -10.1057,-17.27756 -22.281,-29.422 -25.9335,-25.86773 -45.4576,-34.58217 -80.1919,-35.79297 -19.3061,-0.673 -22.7839,-0.32317 -36.9871,3.72067 -38.81892,11.05224 -69.2659,40.96125 -83.13802,81.6691 -2.49021,7.30752 -3.15105,14.18306 -3.15105,32.78404 0,26.47499 1.39623,32.37286 13.13413,55.48068 9.21519,18.14151 33.42353,42.69772 51.11504,51.84959 23.6342,12.22601 53.2845,16.04166 80.3369,10.33839 z"
     id="path6" />
  <path
     fill="oklch(54.6% 0.245 262.881)"
     d="m 915.6509,1934.8306 c -31.29862,-84.6058 -56.54089,-154.4777 -56.54089,-156.5082 0,-1.2822 4.99876,-13.0601 11.10837,-26.1731 15.56544,-33.4081 25.07242,-58.581 31.7988,-84.1978 11.76086,-44.7903 15.254,-76.2448 16.72898,-150.6388 0.52249,-26.3533 1.41369,-54.3459 1.98042,-62.2056 l 1.03043,-14.2905 23.13837,68.9305 c 43.25719,128.8657 70.17202,207.7955 71.21262,208.836 2.7622,2.7622 -0.2161,12.7782 74.3451,-250.0262 30.0384,-105.8756 61.5799,-217.185 70.0923,-247.3542 l 15.477,-54.8531 10.0874,-1.0322 c 5.5481,-0.5677 42.241,-1.0756 81.5398,-1.1287 l 71.4524,-0.097 3.014,9.7479 c 1.6577,5.3614 25.352,87.2948 52.6539,182.0743 91.0963,316.2442 101.6441,351.9579 105.5097,357.2444 2.2047,3.0151 2.4746,2.8908 5.2105,-2.4 4.3565,-8.4245 75.4534,-222.94 176.8099,-533.4754 l 4.2527,-13.0295 80.1408,0.2197 c 44.0775,0.1209 85.4827,0.6883 92.0117,1.2609 l 11.8708,1.0412 -58.2423,165.6015 c -32.0333,91.0808 -91.0091,259.0359 -131.0573,373.2337 -40.0482,114.1977 -76.3565,217.4674 -80.6851,229.4883 l -7.8702,21.856 -12.4857,1.0621 c -6.8672,0.5842 -49.6186,1.529 -95.0032,2.0996 l -82.5176,1.0374 -6.9211,-24.7962 c -26.4085,-94.6135 -125.3566,-446.7001 -127.4516,-453.5106 -7.2212,-23.4754 -9.9106,-27.1094 -13.7792,-18.6189 -2.6388,5.7917 -27.9126,94.2987 -85.2512,298.5442 -27.3866,97.5535 -50.9139,181.2488 -52.2831,185.9895 l -2.4893,8.6195 -78.5385,1.0752 c -43.19614,0.5914 -85.72933,1.5095 -94.51817,2.0401 l -15.97969,0.9648 z"
     id="path7" />
  <path
     fill="oklch(54.6% 0.245 262.881)"
     d="m 924.54376,1956.7378 c -12.33164,-31.5454 -63.75252,-175.1669 -63.75252,-178.0644 0,-2.1211 4.21556,-13.1864 9.36792,-24.5895 19.73918,-43.6861 29.22149,-70.6483 36.83766,-104.7447 8.46879,-37.9135 8.83327,-42.4612 13.95006,-174.0573 l 1.20936,-31.1028 9.89855,29.4215 c 33.72883,100.2526 76.93691,227.5665 80.02391,235.7929 1.9951,5.3169 4.2674,9.6671 5.0494,9.6671 2.9267,0 17.2492,-49.3347 124.4612,-428.7144 18.6838,-66.1144 34.8625,-121.1581 35.9526,-122.3191 1.5254,-1.6247 20.3373,-2.2056 81.6665,-2.5219 l 79.6845,-0.4108 47.5781,164.7608 c 116.1514,402.2273 112.4781,390.26 117.8113,383.8258 0.9965,-1.2023 7.4725,-18.4518 14.391,-38.3324 11.575,-33.261 104.6024,-315.1081 149.4123,-452.6776 l 19.0316,-58.4285 87.4241,1.115 c 48.0833,0.6132 89.0629,1.5614 91.0659,2.1071 4.0099,1.0926 24.4042,-58.1043 -203.9355,591.9456 -37.5152,106.8003 -68.8745,194.8876 -69.6873,195.7495 -1.8694,1.9822 -58.0215,3.8999 -131.7629,4.5002 l -57.0911,0.4647 -32.4873,-115.9086 c -76.1059,-271.532 -104.7856,-372.4151 -107.4777,-378.0603 -3.1217,-6.5464 -6.296,-7.6625 -8.7107,-3.0628 -2.5999,4.9525 -30.887,104.2764 -126.3612,443.6907 l -13.7892,49.0212 -18.7373,0.9436 c -10.3055,0.519 -50.3185,1.3632 -88.9176,1.8759 -38.59917,0.5127 -72.43899,1.3839 -75.19961,1.9361 -4.38161,0.8763 -5.25901,0.3907 -6.90603,-3.8226 z"
     id="path8" />
  <path
     fill="oklch(54.6% 0.245 262.881)"
     d="m 925.80612,1959.942 c -1.06393,-1.7215 -23.97357,-64.0904 -49.24718,-134.0698 -8.67223,-24.0124 -15.7677,-45.2946 -15.7677,-47.2938 0,-1.9993 6.06068,-17.3594 13.46819,-34.1337 22.10892,-50.0655 33.70463,-89.2696 39.33341,-132.983 2.39791,-18.6223 4.74285,-63.1753 7.01751,-133.3307 0.59379,-18.3136 1.35396,-33.0231 1.68928,-32.6877 0.33533,0.3353 17.58139,50.8772 38.3246,112.3153 55.23287,163.5912 55.11697,163.2671 57.53867,160.8454 2.4651,-2.4651 20.5187,-65.1935 129.5452,-450.1138 15.3217,-54.0937 28.7482,-99.3021 29.8367,-100.4631 1.5233,-1.6248 20.341,-2.2056 81.7068,-2.5219 l 79.7278,-0.4108 55.8447,193.3418 c 92.3318,319.665 100.9258,348.5577 105.5303,354.7909 2.3259,3.1486 2.6235,2.9134 6.0437,-4.777 6.0092,-13.5118 90.4583,-267.3185 159.1757,-478.3929 l 21.5434,-66.1733 87.236,1.2331 c 47.9799,0.6782 88.9493,1.7071 91.0432,2.2864 4.2226,1.1684 6.9374,-7.6485 -30.3481,98.565 -5.8428,16.6442 -42.8892,122.1836 -82.3252,234.532 -39.4361,112.3483 -83.8231,238.693 -98.6378,280.7658 -14.8147,42.0729 -34.5153,98.058 -43.7791,124.4113 -9.2637,26.3533 -17.5295,48.6415 -18.3684,49.5292 -1.9316,2.044 -50.7895,3.7605 -128.4029,4.5112 l -60.5028,0.5851 -4.4502,-15.9644 c -2.4477,-8.7805 -17.0792,-60.9795 -32.5146,-115.9978 -65.5975,-233.8176 -95.5002,-339.5611 -99.4477,-351.6719 -4.323,-13.2629 -7.8918,-18.3563 -10.814,-15.434 -0.8877,0.8877 -5.7647,15.6498 -10.8377,32.8046 -7.5694,25.5962 -122.1973,431.3314 -128.4811,454.7694 l -1.8727,6.9849 -17.211,0.952 c -9.466,0.5236 -48.2297,1.3729 -86.1415,1.8873 -37.91182,0.5145 -72.42726,1.3777 -76.701,1.9182 -4.27374,0.5406 -8.21326,0.2664 -8.75448,-0.6093 z"
     id="path9" />
  <path
     fill="oklch(54.6% 0.245 262.881)"
     d="m 363.98692,1950.2821 c -44.52782,-8.5556 -76.66563,-19.3873 -118.11673,-39.8101 -47.49676,-23.4014 -87.03876,-51.9756 -119.6656,-86.4739 -32.989471,-34.8817 -54.830443,-66.0714 -74.072169,-105.7781 -31.065167,-64.1052 -39.055979,-99.9331 -39.184393,-175.6888 -0.09638,-56.8591 3.768806,-84.8798 17.352977,-125.8006 34.226408,-103.1031 106.791405,-187.2826 205.198965,-238.0426 35.75152,-18.4411 67.68895,-30.5558 104.45267,-39.6218 27.38232,-6.7524 61.23615,-8.9785 121.54579,-7.9922 54.21313,0.8866 58.71433,1.5665 108.70715,16.4193 47.84157,14.2136 80.05361,28.497 86.70139,38.4448 l 3.81755,5.7127 v 87.7694 c 0,48.2733 -0.45961,92.2307 -1.02134,97.6832 l -1.02135,9.9137 -22.93622,-22.7758 c -33.65939,-33.424 -64.01511,-52.3934 -107.09829,-66.9263 -33.82812,-11.411 -41.68222,-12.5331 -88.1643,-12.5962 -37.02958,-0.05 -42.7186,0.3217 -56.32131,3.6827 -24.28613,6.0006 -38.81559,11.4137 -63.88684,23.8017 -57.09202,28.2097 -100.82669,74.237 -126.68953,133.3307 -15.3105,34.9827 -19.74694,61.0472 -18.21856,107.0357 1.44231,43.3992 8.61909,72.7972 25.14662,103.0073 34.92156,63.8319 100.40531,116.7657 169.16883,136.7477 24.04042,6.986 80.15488,8.7884 120.39716,3.8675 73.59647,-8.9997 155.86785,-69.7843 192.15431,-141.9697 6.65862,-13.2461 15.6053,-39.0767 23.04395,-66.5316 l 5.93912,-21.9203 -0.34586,-178.4821 c -0.43362,-223.7729 -2.23585,-420.79257 -3.90609,-427.01254 -1.10171,-4.10278 -1.87819,-4.60473 -5.68489,-3.67493 -2.42489,0.59229 -35.42765,11.18829 -73.33945,23.54666 -100.92019,32.89771 -101.03885,32.93231 -116.41423,33.99301 -13.17965,0.9092 -14.41583,0.6857 -25.21849,-4.5587 -9.94772,-4.8293 -16.70142,-10.86576 -54.34278,-48.5717 -68.73974,-68.85766 -78.90607,-81.9968 -78.90607,-101.97941 0,-12.8364 -0.11545,-12.49785 22.08771,-64.77051 10.04403,-23.64654 18.26188,-44.54425 18.26188,-46.43933 0,-2.68171 -1.39783,-3.66903 -6.30463,-4.45317 -3.46754,-0.55413 -82.71666,-1.49569 -176.10914,-2.09236 L 41.190208,740.19059 34.368572,736.30253 C 25.27615,731.12022 13.972544,718.62365 9.6136256,708.935 4.1502987,696.79156 4.6156622,680.07277 10.754737,667.93912 25.76921,638.26354 187.41814,435.4407 218.40118,407.40267 c 12.44274,-11.26004 35.2144,-24.96568 52.65442,-31.69127 12.44532,-4.79941 15.30404,-5.20146 47.20513,-6.63885 18.67667,-0.84154 75.1898,-1.9716 125.58475,-2.51126 50.39496,-0.53966 100.0441,-1.4084 110.33141,-1.93054 l 18.70424,-0.94933 9.82457,-12.0362 C 660.09798,256.83122 711.58222,201.11318 755.41632,164.73178 845.64609,89.842934 961.40891,37.838845 1084.3952,16.944721 c 52.0144,-8.8367169 63.6124,-9.7838235 129.8875,-10.6067754 87.9343,-1.091897 116.5853,1.6728955 141.8957,13.6927504 23.3596,11.093432 33.7286,25.27425 41.7832,57.143465 7.2439,28.661829 9.4167,50.507119 10.4134,104.698519 0.9544,51.88865 -0.6465,87.63511 -5.5583,124.11171 -10.1177,75.13727 -31.6723,147.07756 -64.5588,215.47043 -17.1315,35.62795 -27.0187,53.08201 -47.9399,84.62964 -30.5968,46.13785 -39.5289,56.35035 -147.0432,168.12328 -118.5835,123.28069 -127.7336,133.38941 -151.83305,167.74006 -45.55446,64.932 -78.57382,137.0245 -97.67562,213.2591 -17.38633,69.3881 -17.85005,75.3668 -22.08761,284.7691 -2.63344,130.1328 -4.15579,160.8655 -9.28613,187.464 -20.65406,107.0821 -94.73812,207.8443 -197.96055,269.2473 -24.00286,14.2783 -54.61809,27.8418 -86.92834,38.5118 -47.16344,15.5751 -76.51163,19.3251 -149.45357,19.0968 -38.50787,-0.1206 -46.36148,-0.6127 -64.06301,-4.0138 z M 1101.2075,468.25658 c 20.0592,-6.76664 33.5758,-15.10104 47.9152,-29.54456 27.625,-27.82576 37.6653,-54.57041 35.6322,-94.91447 -1.4451,-28.67445 -11.884,-51.20188 -33.8922,-73.14024 -24.3561,-24.27872 -46.984,-34.38768 -79.9174,-35.70288 -22.1198,-0.88337 -35.1694,1.47668 -53.0871,9.60095 -29.88559,13.55079 -52.37842,37.56779 -64.41519,68.78016 -6.06865,15.73653 -8.17174,38.28006 -5.40254,57.91109 5.98172,42.40495 41.12391,83.5658 82.55533,96.69418 15.7099,4.97801 17.2305,5.1531 39.5089,4.54911 15.2172,-0.41254 22.8602,-1.45283 31.1028,-4.23334 z"
     id="path10" />
  <path
     fill="oklch(54.6% 0.245 262.881)"
     d="M 374.91493,1952.5094 C 301.45829,1940.3492 226.6736,1907.8079 167.31246,1862.1747 139.68183,1840.9339 98.856551,1796.103 76.917225,1762.9102 56.138106,1731.4728 31.950212,1678.0948 23.526143,1645.0864 11.777526,1599.0512 9.008601,1535.5488 16.204274,1477.1669 c 6.057846,-49.1502 28.584275,-107.9411 59.665148,-155.7179 31.105238,-47.8141 77.579368,-93.3931 127.106248,-124.6579 15.35618,-9.6939 54.87668,-30.1379 69.92898,-36.1744 38.47703,-15.4305 78.7091,-25.8248 109.39967,-28.2643 32.93675,-2.6181 109.64302,-2.1863 128.79048,0.7249 47.63316,7.2423 131.9518,36.6357 144.58603,50.4027 l 4.20308,4.5798 0.51726,89.3913 c 0.28448,49.1652 0.033,94.1394 -0.55882,99.9428 l -1.07607,10.5515 -15.03771,-15.8894 c -34.768,-36.7372 -71.47682,-60.2713 -118.07504,-75.6981 -29.12335,-9.6415 -40.20555,-11.0554 -86.65571,-11.0554 -38.38635,0 -42.66025,0.3037 -57.5919,4.0914 -90.13779,22.8653 -157.72385,81.2726 -191.50407,165.496 -9.29238,23.1684 -13.25742,42.9953 -14.50082,72.5102 -3.35193,79.5657 18.67644,137.0526 73.45462,191.6926 35.40542,35.3162 78.71422,61.113 124.37805,74.0856 13.64889,3.8774 16.51717,4.0597 63.88685,4.0597 55.29151,0 64.44507,-1.0434 91.62719,-10.4442 38.09032,-13.1731 72.59633,-35.3229 104.209,-66.8926 38.62584,-38.5733 54.43922,-67.5523 72.47651,-132.8174 l 6.04033,-21.856 -1.17943,-260.5911 c -1.17877,-260.44 -2.28863,-345.85489 -4.52297,-348.08427 -0.65299,-0.65153 -35.24877,9.91331 -76.87949,23.47743 -101.91018,33.20434 -101.41113,33.06014 -117.98906,34.11394 -23.375,1.4859 -26.33364,-0.559 -83.04772,-57.39892 -47.57711,-47.68271 -66.07394,-68.54405 -71.66173,-80.82255 -4.02506,-8.84458 -4.02202,-24.64516 0.007,-36.30361 1.7277,-4.99932 10.41615,-26.14699 19.30763,-46.99483 8.89151,-20.84785 16.63015,-40.22412 17.19702,-43.05841 l 1.03064,-5.15325 -11.5118,-1.0306 c -6.33149,-0.56682 -85.65418,-1.51042 -176.27263,-2.09688 L 41.190208,740.21844 34.368572,736.31645 C 25.417999,731.19671 13.962438,718.63202 9.9263034,709.50767 1.9535249,691.48387 4.1755958,676.81554 18.015122,656.11176 53.914543,602.40664 189.68601,433.75087 217.99271,407.69898 c 12.2036,-11.23151 35.18545,-25.0933 52.98034,-31.95574 12.19879,-4.70435 15.53992,-5.19149 45.52388,-6.6374 17.7974,-0.85824 71.32147,-1.99795 118.94239,-2.53266 47.62092,-0.53474 97.98672,-1.40876 111.92399,-1.94228 l 25.3405,-0.97004 28.45895,-34.61226 C 660.19062,257.25794 708.91343,204.74284 747.30802,171.52835 835.44595,95.281734 950.7526,41.511521 1075.602,18.43708 c 52.8541,-9.768391 69.3136,-11.2011106 138.7931,-12.0812737 90.2593,-1.1433988 118.4039,1.7180005 144.0031,14.6404607 27.2813,13.771528 38.7595,36.553483 46.5975,92.486953 3.7704,26.90605 4.3068,137.22334 0.8216,168.96391 -13.3509,121.58903 -52.7116,230.7156 -118.4102,328.28984 -30.3249,45.03806 -37.9146,53.51273 -180.1842,201.19641 -81.8711,84.98673 -95.0737,100.07968 -120.8326,138.13326 -19.46335,28.7532 -30.09298,46.77361 -44.22174,74.96906 -34.09142,68.033 -59.21593,154.1517 -64.46718,220.9725 -1.78357,22.6953 -4.30831,108.7991 -5.98332,204.0552 -1.43367,81.5306 -3.97581,142.9326 -6.73004,162.5552 -17.47129,124.4746 -113.09067,246.4509 -237.81102,303.3621 -44.69287,20.3939 -90.39996,33.0894 -132.05391,36.6792 -24.31711,2.0956 -107.2672,1.9917 -120.20816,-0.1505 z M 1103.8976,466.76674 c 17.617,-6.07235 30.0487,-13.50847 42.5356,-25.44311 28.8348,-27.55962 40.807,-58.501 38.1381,-98.5656 -1.5712,-23.58656 -9.9975,-44.18823 -26.0238,-63.6266 -61.37,-74.43541 -176.7431,-51.98261 -207.09497,40.30282 -3.28745,9.99552 -3.86068,15.18819 -3.80478,34.46527 0.0613,21.14584 0.42,23.64557 5.24941,36.58449 7.41925,19.87755 15.91428,32.95167 31.41717,48.35197 18.05317,17.93371 40.70387,29.75767 63.93437,33.37466 2.774,0.43192 13.2439,0.48191 23.2663,0.11106 14.5371,-0.53788 21.0865,-1.66136 32.3826,-5.55496 z"
     id="path11" />
  <path
     fill="oklch(54.6% 0.245 262.881)"
     d="M 367.34939,1951.1336 C 282.03916,1935.787 198.62776,1894.2661 140.27328,1838.0985 101.87822,1801.1423 73.678466,1762.8374 52.019814,1718.22 23.777783,1660.0407 15.114641,1625.5439 12.543581,1561.0247 c -1.210548,-30.3779 1.050467,-72.4364 5.170744,-96.184 9.764983,-56.2814 37.727316,-118.173 76.903193,-170.217 14.125162,-18.7649 57.487782,-61.5507 77.775882,-76.7413 51.32189,-38.427 114.64482,-67.5396 176.46242,-81.1282 21.92456,-4.8194 53.81583,-6.4756 109.39495,-5.6811 50.22514,0.718 54.82222,1.042 71.33759,5.0279 59.73015,14.4158 115.35472,35.5142 126.2018,47.8683 l 4.93436,5.62 -0.0185,92.8296 c -0.0102,51.0563 -0.46763,95.5447 -1.01659,98.8631 l -0.99808,6.0335 -21.26406,-21.1646 c -34.97094,-34.8073 -67.23679,-54.7585 -112.88262,-69.7996 -29.09488,-9.5873 -40.65199,-11.0513 -87.12546,-11.037 -32.35837,0.01 -40.28835,0.5247 -52.41687,3.4023 -90.96699,21.5821 -160.36317,80.5594 -194.3773,165.1942 -11.87317,29.5431 -14.73616,46.3181 -14.6945,86.0985 0.0602,57.4907 9.26104,92.3672 34.97005,132.5568 39.69645,62.0555 118.51476,116.0053 180.78258,123.7423 18.26954,2.27 72.02871,2.2828 94.05678,0.022 50.96703,-5.2304 105.31093,-33.8229 149.27164,-78.5382 35.73027,-36.3436 51.16289,-64.5485 68.75901,-125.6651 l 7.74472,-26.8997 -1.03112,-230.3289 c -1.39011,-310.5201 -2.27442,-372.69176 -5.37228,-377.7042 -0.85677,-1.38628 -11.26515,1.79004 -89.5996,27.34308 -87.44999,28.52652 -95.02401,30.56352 -110.95532,29.84002 -11.83247,-0.5374 -14.04158,-1.2132 -23.02955,-7.046 -11.61113,-7.53498 -95.35164,-91.07692 -111.50101,-111.23657 -13.6677,-17.06172 -16.88365,-24.11688 -16.9306,-37.14234 -0.0447,-12.38791 1.67718,-17.50007 22.56761,-67.00372 8.95434,-21.21892 16.68561,-40.60485 17.18062,-43.07984 l 0.89999,-4.49999 -20.76289,-1.02437 c -11.41957,-0.5634 -90.74419,-1.48843 -176.27691,-2.0556 L 41.190208,740.25814 34.368572,736.33631 C 12.631307,723.83932 1.0278398,698.09574 7.3421633,676.37522 11.669625,661.48928 42.94295,618.78377 119.14353,523.70404 c 71.4839,-89.19444 94.03971,-114.47422 114.4337,-128.25328 17.32543,-11.70582 41.72513,-22.78723 54.36598,-24.69096 5.76158,-0.8677 57.00375,-2.40287 113.87145,-3.41146 56.8677,-1.0086 118.66851,-2.25905 137.33512,-2.77879 l 33.93929,-0.94499 7.49935,-9.54546 C 598.13386,331.74657 644.41554,277.00381 667.84096,250.87535 739.7011,170.72328 803.33018,120.9274 885.16627,80.797389 964.82396,41.735606 1060.5133,15.552521 1152.4851,7.6520435 c 25.5927,-2.1984396 126.8961,-2.2632121 151.3659,-0.096782 42.2052,3.7366305 69.9128,16.5056775 82.5289,38.0334985 10.0161,17.091119 17.5759,49.989449 20.7767,90.41494 2.2151,27.97694 2.1948,99.43861 -0.037,129.6311 -8.9983,121.73652 -50.0222,240.83868 -118.1342,342.97151 -27.8802,41.80583 -41.9774,57.92745 -138.9267,158.8765 -125.8316,131.0229 -134.6315,140.74046 -158.44634,174.96818 -51.88752,74.57501 -83.83244,148.55131 -104.49236,241.97761 -6.60588,29.8724 -9.31823,54.3233 -11.09677,100.0333 -1.52233,39.1251 -2.13263,63.1878 -4.32814,170.6452 -2.32479,113.7863 -4.15666,148.0055 -9.2786,173.3237 -14.34329,70.9002 -49.26495,136.0409 -103.40023,192.8765 -51.55595,54.1277 -110.626,90.9956 -184.87533,115.3881 -41.82021,13.7389 -74.76733,17.7696 -143.74541,17.5858 -36.74558,-0.098 -49.6842,-0.7437 -63.04623,-3.1476 z M 1081.7119,471.52453 c 43.9243,-5.03202 82.8476,-37.45187 97.8231,-81.4785 4.0559,-11.92389 4.5869,-16.02494 4.6803,-36.14651 0.08,-17.28875 -0.6188,-25.10015 -2.9337,-32.78404 -11.3592,-37.70528 -43.6456,-70.01143 -81.7553,-81.80524 -10.5099,-3.25252 -16.2481,-3.89379 -34.4653,-3.85171 -19.4278,0.0449 -23.3297,0.56402 -35.1212,4.67289 -32.13916,11.19926 -55.75598,31.78354 -70.84659,61.74948 -9.7089,19.2793 -11.25814,27.35986 -10.55885,55.07309 0.5689,22.54511 1.04146,25.70645 5.44923,36.45451 16.2851,39.71004 49.45461,68.90297 87.56681,77.06865 14.3706,3.07898 20.9337,3.25013 40.1615,1.04738 z"
     id="path12" />
  <path
     fill="oklch(54.6% 0.245 262.881)"
     d="m 379.11802,1953.3937 c -15.09524,-2.1913 -49.25323,-10.179 -65.47972,-15.3121 -54.74646,-17.3188 -110.02035,-46.5224 -151.39933,-79.9913 -27.19644,-21.9975 -63.882717,-62.8458 -85.605685,-95.3176 -26.309852,-39.3284 -51.576208,-100.6804 -58.851897,-142.9048 -4.883745,-28.3428 -6.884859,-74.6773 -4.724938,-109.403 2.284652,-36.731 5.422657,-56.1185 13.313945,-82.2576 32.966936,-109.1994 108.319085,-198.6869 211.524055,-251.2039 35.61543,-18.1233 77.14095,-33.1988 111.15485,-40.3538 22.58721,-4.7514 54.15367,-6.3634 109.20147,-5.5765 50.76525,0.7257 54.6854,1.008 72.08757,5.1919 58.75741,14.1265 114.62165,35.3695 125.45182,47.7043 l 4.93436,5.62 -0.16758,95.3514 c -0.0922,52.4433 -0.68238,97.1949 -1.31156,99.448 -1.10965,3.9736 -1.34439,3.8512 -7.81827,-4.0766 -9.87711,-12.0953 -41.72392,-40.2426 -57.11128,-50.4769 -25.41626,-16.9046 -55.012,-29.9837 -88.26473,-39.0064 -14.64051,-3.9725 -19.47527,-4.3984 -58.00723,-5.1096 -46.72218,-0.8624 -58.22144,0.4308 -87.03256,9.7877 -19.28563,6.2634 -55.28365,23.7312 -71.26789,34.5824 -37.31963,25.335 -66.43533,58.435 -87.78651,99.7993 -20.40193,39.5253 -25.95281,62.8805 -25.97282,109.2801 -0.0207,48.0659 6.16507,78.6272 22.50887,111.2068 22.76025,45.3701 68.38032,91.6249 116.56808,118.1899 20.66612,11.3927 46.80764,21.8373 64.41024,25.7344 17.09605,3.7848 98.41599,4.2093 118.17365,0.6169 71.97742,-13.0877 149.81494,-72.6821 183.78647,-140.7116 7.35352,-14.7258 15.79323,-38.7756 23.92999,-68.191 l 6.21486,-22.4675 -1.05409,-217.7197 c -1.17996,-243.7152 -2.35284,-362.24408 -3.73905,-377.85707 -0.78535,-8.84552 -1.43453,-10.5077 -4.10384,-10.5077 -1.74399,0 -29.10888,8.42185 -60.81086,18.71521 -108.44055,35.20976 -115.104,37.14196 -131.17837,38.03766 -23.90498,1.3321 -25.21483,0.4294 -82.06234,-56.55262 -48.16334,-48.27731 -66.72527,-69.22525 -72.42965,-81.74005 -3.86275,-8.47445 -4.07102,-24.87806 -0.45124,-35.53988 1.47836,-4.35438 10.10851,-25.51834 19.17814,-47.03103 9.06963,-21.51268 16.97935,-41.34094 17.57718,-44.06277 l 1.08693,-4.9488 -29.93217,-1.01951 c -16.4627,-0.56075 -96.12793,-1.4979 -177.03389,-2.08256 L 39.521276,740.17473 32.694035,735.47747 C 9.9286551,719.81446 0.06334434,694.73866 8.2455061,673.33377 13.783844,658.84524 49.234895,610.88612 117.4059,525.6587 c 69.09869,-86.38725 96.12895,-116.69413 116.09272,-130.16553 18.57527,-12.53446 41.21902,-22.72436 54.95165,-24.72876 6.4074,-0.93522 54.01687,-2.48444 105.79884,-3.44273 51.78197,-0.95827 113.10404,-2.18177 136.27126,-2.71887 l 42.12221,-0.97656 22.8852,-27.98031 C 684.2543,227.1655 740.67628,170.80164 802.61481,128.77226 894.82919,66.19872 998.75159,27.776138 1121.9658,10.700631 c 21.1918,-2.936853 36.8138,-3.6672039 92.9031,-4.3433734 71.8832,-0.8665691 98.3047,0.4805846 120.4353,6.1406524 44.8433,11.468983 60.2022,33.499472 69.8176,100.14469 2.3954,16.60265 2.8994,32.37965 2.847,89.10535 -0.058,62.12722 -0.4432,71.75144 -3.9073,97.5115 -8.8332,65.6847 -22.0592,117.1837 -45.1208,175.68884 -26.1017,66.21771 -64.27,132.14995 -104.4961,180.50707 -20.4145,24.54095 -41.1636,46.69637 -135.6194,144.81149 -61.9115,64.30995 -79.3139,82.85691 -96.2264,102.55521 -65.47233,76.25679 -114.40446,179.19164 -136.55472,287.26004 -7.69793,37.5572 -10.3488,77.4113 -12.65172,190.2101 -4.65788,228.1483 -5.54595,239.9055 -21.86735,289.5059 -19.04987,57.8921 -51.92149,110.4169 -98.28185,157.0423 -57.71955,58.0495 -121.42977,95.0998 -199.27692,115.8886 -33.96017,9.0689 -46.88449,10.3372 -110.96137,10.8897 -32.36374,0.2789 -61.11282,0.1777 -63.88685,-0.225 z M 1096.0934,468.86413 c 5.1245,-1.29548 15.7479,-5.47859 23.6077,-9.29579 11.7569,-5.70992 16.982,-9.6563 29.4723,-22.25963 25.2126,-25.4409 34.6496,-47.96932 34.9395,-83.40919 0.1868,-22.83042 -1.9397,-33.01131 -10.772,-51.57316 -7.9138,-16.63138 -27.919,-38.77182 -44.4871,-49.23553 -35.0561,-22.13995 -77.5752,-24.41237 -114.2298,-6.10501 -25.0087,12.49081 -43.28608,30.58032 -55.59604,55.02465 -8.54587,16.96981 -10.81873,27.72721 -10.77151,50.98136 0.0503,24.75038 1.43287,31.19494 10.83515,50.50406 17.51185,35.96344 50.3319,61.39232 87.9187,68.11905 10.1389,1.81452 36.9732,0.31063 49.0831,-2.75081 z"
     id="path13" />
  <path
     fill="oklch(54.6% 0.245 262.881)"
     d="m 925.54221,1959.515 c -1.01335,-1.6397 -30.95041,-83.1363 -50.59497,-137.7329 -7.7858,-21.6385 -14.156,-41.0767 -14.156,-43.196 0,-2.1192 5.57099,-16.5686 12.37997,-32.1096 28.21171,-64.3913 39.0867,-106.6066 43.00977,-166.9582 1.52304,-23.4301 5.10581,-114.3689 5.12781,-130.1555 0.004,-2.6969 0.36158,-4.5488 0.79517,-4.1152 0.43359,0.4336 20.41269,58.6253 44.398,129.3148 51.50794,151.8042 48.95354,144.4982 50.52024,144.4982 2.47,0 17.6267,-52.2203 121.9925,-420.3082 20.0567,-70.7379 37.3763,-129.5643 38.4879,-130.7253 1.5551,-1.6242 20.4219,-2.2058 81.8073,-2.5219 l 79.7861,-0.4108 17.3025,59.6838 c 9.5164,32.826 33.2253,114.9122 52.6865,182.4137 81.677,283.2982 90.2129,311.2218 93.9841,307.4506 0.908,-0.908 5.4694,-12.2011 10.1364,-25.0958 8.5622,-23.657 98.1876,-294.0087 147.3292,-444.4131 l 26.5825,-81.3592 85.7429,1.1456 c 47.1586,0.63 88.1253,1.5643 91.0373,2.0762 l 5.2944,0.9306 -7.2179,21.2805 c -3.9698,11.7042 -14.4145,41.7074 -23.2103,66.6737 -14.0204,39.7955 -49.9655,142.1874 -101.2202,288.3314 -43.6959,124.5915 -135.7112,385.8286 -140.0255,397.5413 -4.2576,11.5585 -5.5891,13.559 -9.7828,14.6982 -5.975,1.6231 -182.6188,4.7443 -184.2049,3.2548 -0.6269,-0.5887 -14.4901,-48.7333 -30.8072,-106.9881 -77.1061,-275.2828 -105.9531,-376.789 -109.4745,-385.2168 -2.7464,-6.573 -5.5382,-8.5898 -7.5649,-5.4649 -3.0478,4.6991 -23.984,77.6586 -110.589,385.3848 -16.616,59.0401 -30.634,107.7687 -31.1511,108.2858 -0.5171,0.5172 -32.9108,1.5326 -71.9859,2.2566 -39.0751,0.7239 -81.06461,1.6752 -93.31006,2.1139 -12.24545,0.4386 -22.64284,0.1853 -23.10533,-0.563 z"
     id="path14" />
  <path
     fill="oklch(54.6% 0.245 262.881)"
     d="m 378.2774,1953.3786 c -57.06498,-10.5966 -94.23203,-22.8984 -139.80791,-46.2744 -44.36601,-22.7555 -75.45784,-45.3834 -107.41615,-78.1745 -34.114603,-35.0038 -56.068115,-64.8369 -74.573518,-101.3395 -31.923413,-62.9703 -41.715938,-100.3754 -44.046331,-168.2467 -1.758612,-51.2185 2.772911,-94.1584 13.786123,-130.6348 41.315648,-136.8396 147.215716,-240.2639 290.480446,-283.6894 23.30542,-7.0642 40.12775,-10.4514 63.01639,-12.6885 22.90522,-2.2387 112.39681,-2.1883 129.15515,0.073 43.37063,5.8515 127.99065,34.6731 144.52672,49.2258 l 7.3262,6.4475 -0.16758,96.1077 c -0.0922,52.8592 -0.67781,97.9318 -1.30141,100.1612 -1.07547,3.8449 -1.62797,3.4906 -10.73662,-6.8843 -11.8614,-13.5103 -35.83469,-34.5504 -53.03147,-46.5429 -24.99795,-17.4329 -70.0972,-36.5135 -100.36435,-42.4623 -8.20405,-1.6125 -25.2631,-2.3076 -56.32131,-2.2951 -37.54452,0.015 -46.27164,0.4906 -55.48068,3.0222 -61.2305,16.8324 -107.65612,44.4196 -143.92393,85.5229 -26.95061,30.5439 -49.1093,71.8195 -57.97482,107.9912 -6.75775,27.5719 -7.07695,84.9745 -0.64565,116.1104 8.40149,40.6743 28.34752,77.298 61.00019,112.005 38.40002,40.8162 85.73593,69.9161 133.97866,82.3641 14.00095,3.6127 18.58428,3.9094 61.365,3.9725 50.73441,0.075 60.86023,-1.0158 87.05711,-9.3753 40.51925,-12.9297 78.28355,-37.2714 112.17829,-72.3068 35.88971,-37.0974 48.76424,-60.5857 66.68398,-121.6585 l 8.38612,-28.581 -0.97768,-205.1104 c -1.16049,-243.4603 -2.35316,-369.78547 -3.67062,-388.7851 -0.82043,-11.83173 -1.40271,-13.87017 -3.96195,-13.87017 -1.65009,0 -35.81629,10.63913 -75.92486,23.64249 -93.86532,30.43148 -104.91643,33.51938 -119.96069,33.51938 -20.6008,0 -23.5882,-2.1735 -78.32289,-56.98632 -48.08888,-48.15748 -66.67257,-69.12955 -72.40931,-81.71535 -4.43674,-9.7337 -4.07692,-25.18322 0.91106,-39.12023 2.22762,-6.22421 10.88081,-27.58268 19.22931,-47.46326 8.3485,-19.88058 15.66287,-38.1326 16.25417,-40.56005 l 1.07508,-4.41352 -39.21825,-1.03952 c -21.57003,-0.57174 -101.25575,-1.52027 -177.07935,-2.10786 L 39.508975,740.14956 32.784043,735.47774 C 10.46154,719.97028 0.48879345,696.32112 7.4428959,675.38429 11.674072,662.6454 33.240051,632.44449 88.142819,562.3724 146.92359,487.35085 195.86042,428.79736 215.47595,410.01681 c 15.48991,-14.83056 39.97564,-29.56045 60.92381,-36.65001 10.44866,-3.53617 49.30179,-5.48727 134.66168,-6.76233 35.13777,-0.52489 85.82694,-1.40757 112.6426,-1.96153 l 48.75576,-1.00721 4.20308,-5.27931 c 2.3117,-2.90361 19.01481,-23.06243 37.11802,-44.79737 C 711.41422,196.3393 770.60474,143.17362 856.44216,95.597629 935.42125,51.822909 1019.197,25.250566 1126.426,9.9630178 c 25.5253,-3.6391208 144.7148,-5.3366485 176.6219,-2.5154955 43.5701,3.8523617 70.468,16.1903587 83.3985,38.2546497 17.0171,29.037505 23.4964,80.169248 21.8969,172.800828 -0.9934,57.53338 -2.2901,73.24921 -9.5605,115.8708 -19.2199,112.67288 -70.8306,229.3157 -139.4378,315.13641 -18.6579,23.33925 -24.8762,30.04522 -121.0854,130.58185 -47.7834,49.93262 -92.804,97.21729 -100.0458,105.07706 -72.83653,79.05225 -126.68546,185.57618 -150.42872,297.57818 -9.10436,42.9472 -11.08334,68.0367 -13.52636,171.4858 -5.60237,237.2321 -5.89386,243.9476 -11.95141,275.3386 -7.1438,37.02 -25.51821,83.4852 -47.24567,119.4749 -32.52761,53.8791 -89.35987,110.6656 -144.24972,144.1336 -32.99241,20.1165 -74.78732,38.006 -113.72392,48.6772 -36.36727,9.9672 -48.68482,11.2313 -114.92375,11.7944 -32.82607,0.2791 -61.57516,0.156 -63.88685,-0.2732 z M 1107.164,465.14852 c 16.6468,-6.53361 26.9464,-12.96042 38.986,-24.32653 17.3278,-16.35857 31.3764,-39.94268 35.5531,-59.68518 1.0367,-4.90007 1.8849,-18.28987 1.8849,-29.7551 0,-17.63763 -0.6553,-22.92001 -4.2574,-34.32284 -11.1083,-35.16406 -46.4571,-68.5189 -83.1668,-78.47556 -17.2796,-4.68671 -47.6329,-4.03747 -64.167,1.37252 -20.5294,6.71727 -34.24256,15.29481 -50.19007,31.39388 -15.68521,15.83431 -26.2179,33.82424 -31.06604,53.06116 -3.31053,13.13586 -3.31053,44.16022 0,57.29608 4.51025,17.89617 15.35556,36.89 29.74197,52.08824 15.73306,16.6209 30.16784,26.37883 48.83824,33.01482 13.4501,4.78054 14.6724,4.91465 39.1026,4.29024 23.5287,-0.60136 26.1246,-1.00016 38.7405,-5.95173 z"
     id="path15" />
  <path
     fill="oklch(54.6% 0.245 262.881)"
     d="m 370.71185,1951.639 c -23.54482,-5.0618 -62.68653,-15.7383 -77.33671,-21.0947 -39.11792,-14.3025 -84.60593,-38.5944 -116.84569,-62.399 -19.21897,-14.1904 -54.02188,-47.9183 -72.86683,-70.6158 -44.7944,-53.952 -78.115516,-126.4243 -87.095703,-189.4302 -1.526634,-10.7111 -2.269627,-33.1382 -2.255765,-68.09 0.02202,-55.5214 2.003634,-74.5712 11.002935,-105.774 38.715263,-134.2356 140.418443,-238.1477 278.213313,-284.2558 46.811,-15.6636 65.83225,-18.0809 141.99932,-18.0454 67.17715,0.031 73.79506,0.8061 118.4736,13.8709 41.09539,12.017 73.44436,25.3053 88.73835,36.4521 l 7.98585,5.8203 -0.002,29.6987 c -10e-4,16.3343 -0.50236,60.8917 -1.11362,99.0165 l -1.1114,69.3177 -19.48148,-18.8932 c -10.71482,-10.3913 -26.29048,-24.0403 -34.61259,-30.331 -30.3212,-22.9202 -86.35373,-46.4544 -118.71952,-49.8634 -20.21432,-2.129 -77.95757,-2.1438 -92.61651,-0.024 -25.8804,3.7431 -73.63778,23.6083 -102.52903,42.648 -57.18805,37.6878 -102.83323,106.0534 -112.3886,168.3314 -2.97052,19.3607 -2.56506,71.9945 0.70788,91.8894 7.75923,47.1654 28.38874,85.6888 67.23576,125.5555 33.78752,34.6745 72.2141,59.3866 114.13011,73.397 22.20828,7.4231 37.0702,9.2294 76.05662,9.2441 53.64241,0.02 76.41572,-3.7702 110.22172,-18.3448 32.7581,-14.1227 55.90427,-30.6798 88.17874,-63.0767 38.19605,-38.3408 49.7129,-59.055 69.6963,-125.3561 l 6.84086,-22.6966 -0.0755,-141.2236 c -0.0913,-170.7538 -2.74288,-452.95019 -4.35054,-463.00395 -1.13075,-7.0713 -1.3033,-7.2384 -6.58823,-6.38078 -2.9849,0.48438 -37.4876,11.10114 -76.67268,23.59279 -82.22221,26.21134 -90.91652,28.79564 -105.64346,31.40264 -13.56846,2.4019 -23.94717,0.9624 -33.69208,-4.6732 -8.40231,-4.8591 -73.47492,-68.25991 -99.63578,-97.07598 -28.59916,-31.50183 -33.39456,-41.53179 -29.702,-62.12419 1.00289,-5.59284 10.08718,-30.36831 20.18732,-55.05656 10.10014,-24.68827 18.36389,-45.94564 18.36389,-47.23861 0,-3.65021 -23.47967,-4.38254 -173.16699,-5.40113 -74.43659,-0.50654 -146.179736,-1.35919 -159.429221,-1.89482 L 36.722313,738.53906 26.028466,728.53549 C 11.803643,715.22887 6.7249331,704.99552 6.7249331,689.63985 c 0,-17.47484 4.7174489,-25.70283 45.9779389,-80.19293 55.952308,-73.89266 127.543298,-161.6128 154.806208,-189.68342 9.27168,-9.54637 21.85626,-20.68015 27.96571,-24.74171 16.24619,-10.80044 38.0385,-20.76296 49.53144,-22.64369 14.85921,-2.43158 81.73981,-4.73927 174.81096,-6.03182 45.30923,-0.62924 83.51525,-1.35963 84.90227,-1.62308 1.38701,-0.26347 8.25014,-0.5369 15.25138,-0.60765 l 12.72956,-0.12863 35.3299,-42.45113 C 717.84974,189.5807 782.38425,133.23193 880.11799,83.960463 944.63503,51.434862 1010.1335,30.561848 1093.6286,15.919015 c 39.6038,-6.9454647 65.5748,-8.5613332 140.3963,-8.7352243 79.7327,-0.1853048 96.8583,1.819486 123.5707,14.4656573 26.0212,12.318983 38.2092,34.203566 45.579,81.841012 3.6271,23.44502 5.2045,135.26487 2.4238,171.81761 -8.6784,114.08041 -53.5987,239.92623 -120.7701,338.34193 -27.5798,40.40835 -33.9291,47.53779 -160.9576,180.73254 -93.2998,97.82881 -94.9773,99.64528 -113.5627,122.97428 -58.98444,74.03899 -103.89118,172.09478 -124.34897,271.52128 -8.22339,39.9663 -10.04157,71.0584 -14.24112,243.5323 -4.21063,172.9294 -5.40734,187.6726 -18.64353,229.6875 -21.19954,67.2926 -56.60721,122.82 -111.76507,175.2736 -21.50071,20.4465 -50.66997,43.0727 -72.17862,55.9878 -50.66071,30.4197 -116.36102,53.4146 -164.76082,57.6657 -18.48319,1.6234 -126.65126,2.1204 -133.65802,0.614 z M 1106.6528,465.8634 c 19.4255,-7.85402 26.8531,-12.85113 42.5206,-28.60677 16.5792,-16.67247 27.0288,-33.85186 31.8502,-52.36215 3.4775,-13.35133 3.4622,-50.37882 -0.026,-63.77274 -4.6302,-17.77652 -13.6468,-32.20923 -31.0338,-49.67509 -24.1609,-24.27053 -45.2354,-34.25006 -76.4961,-36.22364 -21.8888,-1.38189 -39.729,2.23537 -59.5907,12.08256 -13.1423,6.51581 -18.35729,10.36691 -30.26217,22.34761 -14.9699,15.06524 -22.64315,26.3831 -30.01312,44.26866 -3.76014,9.12514 -4.44474,13.64852 -5.05025,33.36849 -0.81658,26.59381 0.85669,36.64094 8.89594,53.41603 7.46344,15.57363 16.14663,27.13508 30.61997,40.76984 13.18003,12.41638 25.74933,20.20577 42.28383,26.20405 10.4283,3.7831 12.9661,4.01032 38.0728,3.40859 24.5637,-0.58872 27.8836,-1.0425 38.2293,-5.22544 z"
     id="path16" />
  <path
     fill="oklch(54.6% 0.245 262.881)"
     d="m 924.48437,1954.8535 c -11.39768,-29.4108 -40.91863,-110.3696 -53.67207,-147.1913 l -9.78253,-28.2441 3.06881,-8.743 c 1.68784,-4.8087 6.61498,-17.0651 10.9492,-27.2366 19.77489,-46.4073 31.89596,-85.9282 36.93291,-120.4201 3.73834,-25.5992 5.5026,-50.811 7.63235,-109.0682 1.03102,-28.2027 2.02503,-54.6821 2.20889,-58.8431 0.39587,-8.9588 -0.37117,-11.0739 56.35812,155.4046 20.14549,59.1192 37.47655,107.7723 38.51335,108.1179 2.9577,0.9859 7.559,-14.6386 107.0627,-363.5559 24.5239,-85.9951 46.7209,-163.1636 49.3265,-171.4857 l 4.7376,-15.1311 15.9134,-1.2539 c 8.7524,-0.6896 45.0193,-1.0678 80.5932,-0.8406 l 64.6797,0.4132 63.4142,219.4009 c 85.8423,296.9975 95.4705,328.7105 99.7609,328.5856 0.9247,-0.027 3.8286,-5.3123 6.4532,-11.7454 5.7102,-13.9959 80.5512,-238.4851 137.2974,-411.8298 22.3999,-68.4262 41.3051,-125.0375 42.0115,-125.8029 1.3933,-1.5098 177.8625,1.3095 179.4194,2.8664 1.1423,1.1424 -2.1082,10.5268 -112.1725,323.8438 -107.6835,306.5397 -156.8486,445.9267 -160.5118,455.0641 -1.5469,3.8585 -4.0349,7.4845 -5.529,8.0578 -3.4643,1.3294 -104.6831,4.1725 -150.333,4.2226 l -34.7839,0.038 -4.198,-13.8701 c -4.4751,-14.7854 -19.5344,-68.0729 -68.2992,-241.6773 -45.2939,-161.2484 -65.2855,-230.346 -68.5384,-236.8923 -3.7528,-7.5522 -6.6438,-8.3483 -8.8873,-2.4472 -3.4516,9.0783 -23.4825,78.0358 -53.6519,184.6995 -89.491,316.3946 -86.1986,305.1898 -89.9036,305.9624 -3.6073,0.7522 -143.74888,4.2534 -169.526,4.2354 -14.53445,-0.01 -14.77887,-0.079 -16.54413,-4.6338 z"
     id="path17" />
  <path
     fill="oklch(54.6% 0.245 262.881)"
     d="m 925.83386,1958.3056 c -2.20992,-3.5757 -52.35927,-141.0323 -60.70954,-166.4015 l -4.52254,-13.7401 9.57878,-23.247 c 41.17721,-99.9344 44.55244,-117.2637 50.04402,-256.9385 1.95723,-49.781 2.01889,-50.3386 4.7405,-42.8714 1.51662,4.161 20.90766,60.5243 43.09122,125.2518 22.18355,64.7275 42.2267,122.6039 44.5402,128.6143 l 4.2065,10.928 2.5928,-6.0101 c 4.0242,-9.3281 17.2872,-54.6661 68.3262,-233.5655 52.533,-184.1362 84.4126,-294.9756 87.7654,-305.1438 2.1929,-6.6506 2.3288,-6.7369 12.3042,-7.8034 5.5478,-0.5931 41.8621,-1.1549 80.6986,-1.2484 l 70.6118,-0.1699 29.1907,101.2817 c 115.1518,399.5371 129.3004,446.7751 133.8162,446.7751 3.8427,0 7.2462,-10.062 169.7542,-501.848 l 15.5555,-47.0745 69.6205,0.4346 c 38.2912,0.239 78.9502,0.8861 90.3533,1.4381 l 20.7329,1.0036 -1.0541,4.1998 c -2.7727,11.0474 -268.6374,767.413 -273.31,777.5469 -1.149,2.4919 -3.2601,4.9802 -4.6914,5.5294 -3.715,1.4256 -98.1083,4.1531 -145.1759,4.1948 l -39.7942,0.035 -2.5806,-7.9858 c -3.6135,-11.1824 -17.102,-58.6928 -59.0677,-208.0526 -75.237,-267.7758 -79.8728,-283.2877 -84.6625,-283.2877 -0.7525,0 -2.2119,1.8516 -3.243,4.1147 -2.5958,5.6971 -26.5445,88.2232 -61.7434,212.7643 -16.3338,57.7924 -40.7876,144.0396 -54.3418,191.6606 l -24.6439,86.5834 -28.581,1.0528 c -65.1499,2.3998 -158.42617,3.5578 -159.40194,1.979 z"
     id="path18" />
  <path
     fill="oklch(54.6% 0.245 262.881)"
     d="m 356.42137,1948.5983 c -46.66073,-10.6734 -79.77684,-22.6684 -120.26951,-43.5629 -42.91144,-22.1425 -71.10137,-42.9464 -105.35223,-77.7494 -35.97945,-36.5593 -55.611519,-63.9252 -77.694609,-108.3012 -32.564235,-65.438 -40.916737,-106.1535 -39.217621,-191.1722 0.957314,-47.9011 3.550486,-67.6673 13.067449,-99.6053 29.354249,-98.5098 96.455131,-183.6917 186.960011,-237.3384 48.09789,-28.51 103.97953,-49.3404 149.83585,-55.8527 23.6424,-3.3576 82.94821,-4.7576 122.12559,-2.8829 29.22889,1.3986 35.41064,2.2377 57.00521,7.7381 45.97727,11.7108 96.30862,31.1466 111.19972,42.9406 l 6.64329,5.2616 -0.22071,60.8034 c -0.1214,33.4419 -0.68882,77.976 -1.26092,98.9647 l -1.04021,38.1613 -18.40974,-17.7377 c -32.85519,-31.6557 -55.93991,-47.4686 -90.86559,-62.2421 -39.58589,-16.7448 -60.06945,-20.5828 -110.12557,-20.6342 -37.13038,-0.038 -51.78002,1.8823 -75.91425,9.9515 -46.34551,15.4954 -78.82079,35.1874 -110.80239,67.1871 -23.75996,23.7733 -35.57133,39.6685 -50.18977,67.5432 -19.65336,37.4753 -25.3409,62.5242 -25.34411,111.6198 -0.003,47.4591 5.16169,73.6399 20.89481,105.9176 12.57253,25.7936 26.90689,45.2561 51.3764,69.7567 38.34075,38.3896 80.10673,63.5949 124.41123,75.0809 30.53822,7.9171 108.77189,7.2432 139.72631,-1.2035 49.71135,-13.565 96.38377,-44.1199 135.30979,-88.5828 27.1637,-31.0276 37.32369,-50.9741 54.45597,-106.91 l 8.43574,-27.5422 -0.0194,-115.8136 c -0.0255,-152.4382 -3.22839,-478.81628 -4.78271,-487.36602 -1.12321,-6.17833 -1.62683,-6.69424 -6.1961,-6.34721 -2.73543,0.20773 -34.85744,9.91187 -71.38222,21.56475 -99.61022,31.77968 -104.41961,33.10418 -121.04877,33.33758 -12.93451,0.1816 -15.0881,-0.2643 -22.69664,-4.6991 -9.23967,-5.3855 -75.12818,-69.54005 -102.37668,-99.68239 -9.36682,-10.36157 -19.66358,-23.18368 -22.8817,-28.49356 -5.35978,-8.84361 -5.8422,-10.7243 -5.74467,-22.39613 0.10236,-12.25079 0.86933,-14.64175 19.90343,-62.04667 11.36893,-28.31464 19.16834,-49.93351 18.32038,-50.78147 -1.97187,-1.97187 -63.60466,-3.2722 -221.78734,-4.67929 l -131.312197,-1.16807 -8.77693,-6.67176 C 20.386092,725.36754 9.0419345,709.5352 7.4278736,700.93151 6.8282535,697.73527 6.6382525,690.39936 7.0056491,684.6295 7.548837,676.09891 8.9028039,672.10042 14.252434,663.22862 30.811912,635.7664 100.144,545.84154 163.95341,469.06398 c 47.39855,-57.03148 62.04319,-70.80585 90.92015,-85.51702 26.06086,-13.27655 31.08193,-13.81668 150.30357,-16.16866 47.62092,-0.93945 104.80926,-2.16827 127.0852,-2.73069 l 40.5017,-1.02261 34.59488,-41.42956 C 695.54108,216.5917 747.24998,166.15792 809.83008,124.71715 897.83494,66.439997 989.94019,32.02328 1107.9325,13.326041 c 54.2981,-8.6041661 190.649,-9.0153965 225.1802,-0.679137 37.8013,9.125716 55.1792,26.429615 64.8346,64.558748 7.4462,29.404658 8.4049,43.922688 8.3906,127.064148 -0.012,72.8743 -0.2757,79.94501 -3.8817,104.23643 -16.4083,110.53298 -54.0963,209.66886 -113.7681,299.25946 -30.441,45.70384 -30.3411,45.59024 -159.7656,181.57315 -90.0156,94.57707 -101.5528,106.9901 -115.2836,124.03581 -69.13869,85.83058 -121.08697,207.94985 -133.45773,313.73055 -2.96143,25.3228 -5.20624,81.8136 -8.49238,213.7114 -4.14478,166.3617 -5.38664,180.6536 -19.50257,224.4446 -23.59999,73.2126 -65.36681,134.0857 -130.09669,189.6093 -44.39693,38.0824 -101.20086,68.1871 -160.55775,85.0917 -38.5532,10.9798 -42.67001,11.3989 -118.52691,12.067 -67.84883,0.5977 -69.20759,0.5437 -86.5835,-3.4309 z M 1102.9266,466.94769 c 22.5076,-8.05733 39.0182,-19.75099 54.8439,-38.84334 10.4887,-12.65375 21.2685,-33.76285 23.9848,-46.96754 2.7125,-13.18616 2.2978,-46.56476 -0.7255,-58.40718 -9.5387,-37.3622 -46.6053,-74.08009 -85.075,-84.27457 -14.3766,-3.80977 -43.97,-3.81088 -58.6341,-0.002 -14.9545,3.88413 -32.9931,12.9867 -44.48619,22.4484 -21.79565,17.94337 -39.11094,45.44361 -43.04551,68.36512 -2.92192,17.02218 -1.28404,48.26857 3.17782,60.62459 12.1046,33.52064 42.19669,64.12834 75.49378,76.78742 12.8257,4.87613 13.5369,4.95392 39.1223,4.27969 20.4199,-0.53809 28.0683,-1.40594 35.3437,-4.01041 z"
     id="path19" />
  <path
     fill="oklch(54.6% 0.245 262.881)"
     d="m 358.1026,1949.0921 c -41.87956,-8.9179 -80.03678,-22.5699 -119.52009,-42.7625 -43.57906,-22.2872 -70.79543,-41.8069 -102.91841,-73.8133 -38.442388,-38.3029 -60.746705,-69.1994 -83.724792,-115.9775 -30.522319,-62.1365 -38.48508,-98.6607 -38.488038,-176.5398 -0.0028,-73.9421 10.035221,-118.39 40.244459,-178.2004 51.852691,-102.6616 141.393861,-177.4305 256.588851,-214.2577 29.6441,-9.477 52.3092,-13.4613 88.16761,-15.499 37.99556,-2.1591 104.34658,-0.5735 123.3494,2.9477 44.15774,8.1824 117.2489,34.727 133.45893,48.4684 l 5.464,4.6319 -0.22355,66.6796 c -0.12295,36.6737 -0.69036,81.2775 -1.26092,99.1195 l -1.03737,32.4399 -16.00754,-15.6276 c -18.86766,-18.4198 -36.936,-33.4321 -52.08507,-43.2753 -23.24898,-15.1062 -65.08723,-32.3856 -91.74898,-37.8927 -18.08939,-3.7365 -70.10408,-5.2305 -95.38656,-2.7399 -28.40568,2.7983 -63.44852,14.9941 -96.14953,33.4623 -54.6656,30.8731 -101.10386,87.4122 -120.84752,147.1332 -7.45925,22.5629 -8.61306,32.8463 -8.52552,75.9829 0.0702,34.5866 0.58588,42.6308 3.61055,56.3213 9.7552,44.1547 30.01377,79.4811 66.91939,116.6923 48.09357,48.492 100.76231,75.6888 155.51399,80.3035 25.55819,2.154 76.26026,0.7036 96.03401,-2.7473 49.60158,-8.6565 104.20836,-41.7536 145.73702,-88.3308 29.92007,-33.5575 40.32457,-53.9799 59.52882,-116.8457 l 6.67658,-21.856 -1.148,-228.6477 c -1.35371,-269.6217 -2.83766,-376.74046 -5.25254,-379.15533 -2.09095,-2.09095 -9.97381,0.15518 -91.27632,26.00814 -82.57553,26.25779 -90.67455,28.42119 -106.90374,28.55679 -11.91541,0.1 -14.40891,-0.4455 -21.85603,-4.778 -9.1876,-5.345 -87.38934,-81.81309 -107.31073,-104.93169 -30.90506,-35.86508 -31.15139,-39.92813 -6.18487,-102.01322 8.55244,-21.2676 16.92948,-42.63642 18.61564,-47.48627 l 3.06576,-8.8179 -3.68926,-0.75069 c -7.32991,-1.49146 -70.17962,-2.60122 -207.95908,-3.67198 C 67.831327,740.33729 40.327302,739.69393 36.643201,737.83114 29.019102,733.97618 14.935291,718.63582 10.731215,709.6073 6.0525343,699.55956 5.2830456,681.7204 9.1310632,672.51079 18.527268,650.02252 131.06054,504.87635 196.57098,430.74954 c 23.83228,-26.96685 47.5806,-44.54597 73.21256,-54.19381 15.29498,-5.75703 34.81235,-7.18602 124.46557,-9.11295 42.53519,-0.91421 100.05353,-2.1486 127.81852,-2.74307 l 50.48183,-1.08086 21.81119,-26.25872 C 692.65912,219.01759 744.21263,168.21158 810.35425,124.49828 842.42168,103.30477 859.96693,93.32556 893.09088,77.440176 958.52455,46.0599 1031.8793,24.509457 1116.3386,11.85356 c 27.9959,-4.1950657 123.4806,-6.8114718 166.6129,-4.5654095 80.1283,4.1725875 103.7389,19.6928495 116.6094,76.6524835 6.5329,28.912276 8.0929,58.204836 7.181,134.841346 -0.7076,59.45947 -1.3092,71.87736 -4.4692,92.2461 -22.7789,146.82863 -83.4798,276.4917 -175.9073,375.75555 -8.1795,8.78445 -50.126,53.0429 -93.2144,98.35213 -43.0885,45.30922 -84.9113,89.4394 -92.9395,98.06707 -70.66201,75.93788 -125.23703,180.81437 -149.75104,287.77587 -12.80916,55.8899 -13.2133,62.2283 -19.61639,307.6656 -2.99197,114.6849 -4.65118,135.4467 -13.53236,169.3313 -13.07411,49.882 -39.91566,102.8479 -72.46216,142.988 -15.07589,18.5934 -46.65346,50.6708 -65.28187,66.3154 -46.38329,38.9536 -108.29245,70.2841 -170.21646,86.1418 -30.14708,7.7201 -50.96996,9.3413 -118.11498,9.196 -50.69321,-0.1098 -58.96935,-0.5085 -73.13364,-3.5247 z M 1104.2919,466.02565 c 16.7314,-5.81974 28.8522,-13.37511 42.3256,-26.38325 13.1003,-12.64781 24.4313,-29.50043 31.0371,-46.16159 3.857,-9.72806 4.7843,-15.10348 5.51,-31.94343 1.1339,-26.31018 -1.3704,-41.12351 -9.7748,-57.81866 -16.1498,-32.08127 -46.2375,-56.97029 -78.7286,-65.12563 -15.9134,-3.99431 -50.9564,-2.68565 -65.7467,2.45526 -32.88047,11.42883 -61.26785,39.22366 -74.72334,73.16365 -5.60663,14.14208 -7.6522,42.13046 -4.43108,60.62753 7.15392,41.08084 41.54747,79.35397 84.19812,93.69568 7.7673,2.61183 13.1473,3.00295 33.6247,2.44448 20.6905,-0.56427 26.2431,-1.31361 36.709,-4.95404 z"
     id="path20" />
  <path
     fill="oklch(54.6% 0.245 262.881)"
     d="m 369.03062,1951.6958 c -1.84936,-0.4638 -13.19768,-3.1697 -25.21849,-6.013 -33.48927,-7.9215 -62.60486,-18.5146 -95.83028,-34.8661 -56.54477,-27.8278 -89.82017,-52.4113 -128.90057,-95.2301 -28.831084,-31.589 -46.509643,-57.212 -64.858032,-94.0041 -20.30374,-40.713 -29.852889,-67.6933 -35.999861,-101.7146 -4.405356,-24.3821 -6.259281,-99.2754 -3.228588,-130.4258 6.418868,-65.9751 34.983068,-135.0323 80.554604,-194.7497 15.327267,-20.085 47.614487,-53.0715 67.508227,-68.9703 42.50776,-33.9716 93.3758,-60.9653 147.48148,-78.2626 39.99477,-12.786 71.79749,-16.7664 134.14699,-16.7896 46.801,-0.017 72.63267,2.3614 98.67438,9.0868 46.41094,11.9858 98.57986,32.4118 112.14775,43.9098 l 5.71172,4.8403 -0.89097,98.0771 c -0.49003,53.9424 -1.24124,98.4273 -1.66935,98.8554 -0.42809,0.4282 -8.53461,-6.7639 -18.01447,-15.9823 -30.38161,-29.5437 -54.13621,-46.2434 -86.67892,-60.9361 -19.16687,-8.6536 -46.53416,-17.4796 -62.20562,-20.0614 -17.8767,-2.9451 -88.71298,-2.9807 -102.55521,-0.052 -30.81483,6.5206 -77.88479,27.1012 -102.5552,44.8406 -37.9512,27.289 -65.75413,59.7375 -86.64054,101.1173 -16.45229,32.5951 -21.54599,53.8162 -22.93634,95.5561 -1.48456,44.5688 2.66814,74.2319 14.59554,104.2574 27.4659,69.1415 105.43724,137.5727 179.04298,157.1365 32.69268,8.6895 107.4612,8.3952 142.06418,-0.559 42.62309,-11.0296 82.70541,-35.1374 119.40383,-71.8165 35.11055,-35.0921 48.50278,-57.5344 66.97195,-112.2298 l 11.16908,-33.0765 v -120.2082 c 0,-154.7074 -2.54084,-464.23062 -3.954,-481.67319 -1.0785,-13.31165 -1.13552,-13.44516 -5.54913,-12.99163 -2.4527,0.25204 -38.01078,11.07729 -79.01795,24.05613 -107.8528,34.13559 -117.68711,36.06679 -136.02478,26.71159 -8.21652,-4.1918 -80.79772,-74.92719 -106.7876,-104.07193 -24.35867,-27.31553 -29.06278,-39.18893 -23.71236,-59.85132 1.42885,-5.51799 10.55645,-30.07201 20.28354,-54.56451 14.8389,-37.36386 17.27593,-44.76108 15.14034,-45.95622 -1.39991,-0.78342 -80.23378,-2.18841 -175.1864,-3.1222 C 106.49873,740.89045 41.17619,739.63222 38.271683,738.54849 30.505287,735.65075 15.395969,719.71194 10.707579,709.47115 6.9920363,701.35533 6.4628473,698.18024 6.9721667,687.0589 7.5115677,675.28071 8.234106,672.97671 14.914499,661.73273 36.886176,624.7515 175.43078,450.74955 212.21727,413.9348 c 13.84865,-13.85929 37.99139,-29.79049 55.22497,-36.44161 17.74457,-6.84832 32.72748,-8.03413 126.80687,-10.03597 44.38455,-0.94443 92.80406,-2.10305 107.59891,-2.57472 14.79485,-0.47167 36.73494,-0.89217 48.75575,-0.93445 l 21.85603,-0.0769 21.01541,-25.4451 C 702.27636,206.69146 760.86141,151.66127 844.43187,102.69711 866.11733,89.991533 913.9605,66.922667 938.12795,57.519031 988.54113,37.903088 1052.9593,21.150192 1110.4543,12.703024 c 45.0617,-6.6204563 167.9483,-8.6446635 205.1104,-3.3786084 50.2013,7.1137674 70.9161,24.1296254 82.3653,67.6576984 7.6758,29.182046 8.4223,40.486696 8.4056,127.287686 -0.017,89.93525 -0.2365,92.68766 -11.9492,150.08672 -21.8532,107.09345 -70.6947,213.65376 -135.0287,294.59937 -15.4474,19.43601 -27.5649,32.59644 -106.0319,115.15768 -108.1319,113.77387 -121.4774,128.03411 -134.7418,143.97766 -64.77877,77.86232 -114.33708,185.24747 -133.34906,288.94657 -6.7533,36.8352 -8.22318,60.7525 -11.77891,191.6606 -0.52743,19.4182 -1.68997,62.1636 -2.5834,94.9896 -2.71872,99.8896 -4.23601,122.3944 -10.19817,151.261 -7.73298,37.4403 -31.34356,92.2886 -55.0242,127.8237 -31.03724,46.5742 -85.58758,99.3366 -133.50589,129.1301 -29.33495,18.2392 -73.9624,37.6909 -110.79747,48.2932 -37.61417,10.8265 -40.83957,11.1473 -118.34203,11.773 -38.83648,0.3136 -72.1249,0.1907 -73.97425,-0.2732 z M 1100.3669,467.30857 c 32.7937,-11.10213 56.8034,-32.27159 72.374,-63.81268 5.2107,-10.55516 8.0445,-18.94436 9.3705,-27.74034 2.6577,-17.63082 0.934,-46.9645 -3.5063,-59.66759 -11.2085,-32.06628 -39.441,-60.85559 -72.2602,-73.68533 -10.6629,-4.16835 -15.832,-5.09937 -32.1871,-5.79728 -25.4337,-1.0853 -38.8638,1.33836 -57.8525,10.44046 -34.56109,16.56655 -61.69616,51.63977 -66.58548,86.06455 -2.19112,15.42717 -0.89128,41.60691 2.64158,53.20305 6.30975,20.71092 22.30642,43.94813 40.81434,59.28809 11.68096,9.68153 33.09466,21.19923 44.98556,24.19617 10.3046,2.5971 52.1248,0.92372 62.2056,-2.4891 z"
     id="path21" />
  <path
     fill="oklch(54.6% 0.245 262.881)"
     d="m 923.63788,1953.4096 c -4.69379,-11.1735 -50.26154,-136.648 -56.80925,-156.4289 l -6.20672,-18.7508 14.48523,-35.8893 c 35.50111,-87.959 39.61833,-110.2051 44.75493,-241.8179 1.89993,-48.6813 2.25969,-52.4653 4.47541,-47.0746 1.32517,3.2241 18.51686,52.7684 38.20375,110.0985 56.59507,164.8101 53.29287,155.705 55.62477,153.3731 1.8715,-1.8715 13.7156,-42.4602 83.0222,-284.5093 37.8615,-132.2289 70.5662,-245.7122 72.6772,-252.1849 l 3.8382,-11.7686 9.2468,-1.0947 c 5.0857,-0.6021 41.4114,-1.1695 80.7238,-1.2609 l 71.4769,-0.1663 33.3811,115.5848 c 116.832,404.5407 125.8779,434.5069 130.3334,431.7533 0.8534,-0.5275 3.9419,-7.1957 6.8632,-14.8184 6.7084,-17.5046 66.1201,-195.4249 128.6979,-385.4118 26.4976,-80.447 48.8104,-146.9361 49.584,-147.7535 1.5571,-1.6454 177.5241,1.1327 179.2207,2.8294 1.2609,1.2608 -7.4472,27.0494 -51.4912,152.4896 -18.6685,53.169 -53.9113,153.5526 -78.3175,223.0747 -86.3286,245.9111 -141.605,401.8772 -144.2287,406.9509 l -2.6562,5.1366 -20.6409,1.1608 c -11.3524,0.6384 -53.462,1.2832 -93.5767,1.4328 l -72.9359,0.2721 -4.0301,-13.4498 c -2.2166,-7.3975 -22.9789,-80.7833 -46.1385,-163.0796 -72.8517,-258.8748 -87.2244,-308.5893 -91.8032,-317.5418 -2.0909,-4.088 -2.8227,-4.4764 -4.7509,-2.5218 -2.8556,2.8948 -13.6656,38.8949 -48.1485,160.3464 -14.9647,52.7067 -42.3932,149.1674 -60.9524,214.3572 l -33.7439,118.5269 -25.2185,1.0507 c -13.8702,0.5778 -56.0421,1.6303 -93.71538,2.3388 l -68.49689,1.2882 z"
     id="path22" />
  <path
     fill="oklch(54.6% 0.245 262.881)"
     d="m 925.01161,1956.7377 c -3.95102,-7.3826 -61.22085,-165.6398 -63.19563,-174.6323 -0.87661,-3.9919 1.55534,-11.5387 11.64814,-36.1465 37.60183,-91.6792 41.17303,-111.9684 47.16332,-267.95 0.74288,-19.3438 1.69556,-29.0899 2.67284,-27.3436 0.83519,1.4924 14.0432,39.2278 29.35113,83.8565 55.79719,162.6709 62.93549,182.8576 64.66109,182.8576 0.6173,0 1.499,-1.324 1.9593,-2.9422 0.4603,-1.6181 4.2858,-14.2904 8.5012,-28.1606 10.1732,-33.4738 16.9712,-57.0349 82.7065,-286.6502 64.8332,-226.4641 65.3777,-228.3138 67.9601,-230.8983 1.4107,-1.4118 23.9569,-2.1009 81.4262,-2.4885 l 79.4752,-0.536 1.8527,6.4203 c 1.0189,3.5312 9.8132,34.0346 19.5429,67.7854 113.8508,394.9311 136.3572,470.6421 140.7056,473.3296 0.8924,0.5515 3.0859,-2.2632 4.8745,-6.2549 1.7886,-3.9916 41.1954,-121.4973 87.5706,-261.1237 46.3753,-139.6264 86.3633,-259.9186 88.8624,-267.316 l 4.5437,-13.4499 21.4152,-0.4711 c 28.868,-0.6349 157.2465,2.2191 158.5523,3.5249 1.341,1.341 -9.1725,32.1282 -76.4636,223.9126 -139.7254,398.2272 -193.9456,551.5 -197.5769,558.5221 -2.673,5.1691 -2.8004,5.2096 -19.9648,6.3431 -9.501,0.6275 -51.6645,1.269 -93.6966,1.4256 l -76.422,0.2847 -3.8884,-13.4498 c -2.1386,-7.3975 -16.3925,-57.7084 -31.6753,-111.802 -15.2828,-54.0937 -38.7953,-137.3147 -52.2499,-184.9357 -41.5457,-147.0454 -53.0935,-185.6117 -56.1413,-187.4953 -0.8122,-0.502 -2.5538,1.1926 -3.8703,3.7657 -3.5084,6.8573 -24.5449,79.305 -84.1225,289.7095 -29.2036,103.1358 -54.133,190.5179 -55.3987,194.1824 l -2.3013,6.6627 -22.5329,1.0415 c -12.3931,0.5729 -54.4121,1.6281 -93.37558,2.345 -68.82867,1.2663 -70.89177,1.2117 -72.56921,-1.9226 z"
     id="path23" />
  <path
     fill="oklch(54.6% 0.245 262.881)"
     d="m 342.13089,1945.3823 c -39.12995,-10.1503 -59.00687,-17.3821 -92.46781,-33.6426 -49.33638,-23.9753 -80.20505,-45.295 -113.33468,-78.2759 -37.573099,-37.4044 -60.701842,-68.8977 -82.257339,-112.0062 -20.542095,-41.0818 -31.948099,-74.2395 -37.259381,-108.3146 -2.953859,-18.9509 -4.154297,-102.182 -1.800086,-124.8071 4.640037,-44.593 16.173915,-82.2726 39.100496,-127.736 51.39002,-101.9065 140.74253,-175.9647 257.82642,-213.6948 41.43822,-13.3534 78.52142,-17.2414 150.40053,-15.7686 50.58854,1.0366 60.91775,2.4586 99.49429,13.6976 43.19602,12.5848 81.21646,28.3835 93.81187,38.9819 l 5.52549,4.6494 -0.7696,98.001 c -0.42328,53.9006 -1.22044,98.4519 -1.77147,99.003 -0.55102,0.551 -7.30322,-5.2083 -15.00488,-12.7984 -17.30856,-17.0578 -37.50177,-34.1129 -51.59586,-43.5776 -14.09253,-9.4637 -43.92189,-23.6107 -65.39778,-31.0159 -28.9378,-9.9782 -41.40577,-11.6494 -86.9887,-11.6604 -44.29067,-0.011 -53.74809,1.2603 -81.26116,10.9202 -71.64838,25.1562 -125.35251,71.6717 -157.88867,136.7544 -17.02305,34.0515 -21.99708,54.3719 -23.47694,95.9102 -1.76971,49.6751 4.23436,82.7899 21.37568,117.8952 31.7647,65.0539 105.40172,125.9359 173.60589,143.5347 27.0827,6.9882 87.85426,8.149 124.80712,2.3838 50.91064,-7.9426 104.77633,-40.1762 148.77166,-89.0261 25.50834,-28.3229 37.35091,-50.2209 54.39886,-100.5885 l 10.34605,-30.567 0.0951,-86.5835 c 0.15354,-139.8225 -2.5172,-490.22128 -3.88276,-509.41358 l -1.25603,-17.65294 -5.88432,0.16025 c -3.23637,0.0882 -37.65962,10.206 -76.4961,22.48411 -79.06927,24.99766 -104.79778,32.00326 -117.44534,31.97926 -16.83266,-0.032 -22.34724,-4.1185 -72.02214,-53.37184 -76.29986,-75.65236 -84.09273,-86.74294 -78.94856,-112.3576 1.01136,-5.03597 9.80557,-29.2473 19.54269,-53.80297 9.73711,-24.55568 17.70383,-45.71265 17.70383,-47.01551 0,-1.30285 -1.70225,-2.72193 -3.78277,-3.1535 -5.0457,-1.04664 -89.30711,-2.39334 -230.74922,-3.68794 C 27.343585,740.02971 37.336825,741.0929 23.207057,726.96313 11.666347,715.42243 6.7524077,704.15881 6.7782802,689.30548 6.8101448,671.01219 9.8910403,665.6112 52.717053,608.77189 97.018723,549.97408 161.23607,470.40795 196.07453,431.15014 c 19.38538,-21.84449 29.46463,-30.48632 50.25142,-43.08502 17.4604,-10.58257 31.91162,-15.59139 50.11098,-17.36852 7.56279,-0.7385 72.76181,-2.70476 144.8867,-4.36947 L 572.4598,363.30035 601.04076,329.0531 C 703.20921,206.62932 757.12534,155.55663 832.21028,110.07504 914.55801,60.194121 1008.5829,27.515311 1114.6574,11.909162 c 25.8779,-3.8072773 102.4344,-6.5931381 148.7891,-5.4143829 58.8599,1.4967476 82.0216,5.8812669 103.1262,19.5218389 5.4501,3.522561 11.8617,8.964448 14.248,12.093083 10.0387,13.161485 18.6029,37.486166 23.0777,65.547339 2.8742,18.02424 4.1142,144.99339 1.7215,176.27461 -4.8822,63.82715 -25.7825,145.8773 -54.1004,212.38647 -25.4661,59.81123 -62.7691,121.94217 -99.4589,165.65623 -15.1757,18.08109 -20.3705,23.65427 -124.7961,133.88634 -106.6828,112.61475 -101.7049,107.21126 -117.6615,127.72059 -54.4412,69.97429 -94.61554,153.81972 -116.97829,244.13802 -13.27471,53.6138 -15.25258,77.5953 -19.24832,233.3852 -4.49081,175.0913 -6.03645,205.6053 -11.92249,235.3726 -7.26185,36.7251 -32.37831,95.407 -55.76922,130.2988 -30.34331,45.2626 -81.80081,95.8605 -127.30721,125.1805 -34.64918,22.3248 -78.18288,41.5789 -121.6281,53.7941 -32.18976,9.0506 -38.3365,9.6057 -114.58512,10.349 l -71.4524,0.6967 z M 1099.5315,467.25342 c 35.1603,-10.33509 66.5646,-41.06445 79.0757,-77.37609 7.1428,-20.73094 6.0417,-58.982 -2.2917,-79.61355 -13.4354,-33.26276 -48.1609,-63.48626 -82.1494,-71.49917 -13.5247,-3.18848 -39.1619,-3.20293 -54.3236,-0.0306 -6.4727,1.35431 -18.1993,5.61421 -26.0591,9.46643 -11.608,5.68931 -17.16004,9.87652 -29.57766,22.30662 -16.35342,16.36984 -25.48464,30.50882 -31.4089,48.63433 -4.69846,14.37513 -5.02746,51.11101 -0.58984,65.86097 6.84373,22.74745 23.86723,47.41953 42.73845,61.94059 12.68715,9.76251 30.94285,19.32101 42.57575,22.29222 11.7986,3.01353 49.0684,1.82246 62.0103,-1.98172 z"
     id="path24" />
  <path
     fill="oklch(54.6% 0.245 262.881)"
     d="m 924.73071,1956.2128 c -4.42895,-8.2756 -63.93947,-173.1783 -63.93947,-177.1753 0,-1.2018 6.10486,-17.2687 13.56637,-35.7044 36.69121,-90.6553 39.54635,-107.2202 46.31036,-268.6828 0.74985,-17.8997 1.63416,-25.7686 2.68487,-23.8911 0.8617,1.5398 11.79058,32.4644 24.2864,68.7215 12.49581,36.257 32.5568,94.2927 44.57998,128.9681 12.02318,34.6755 22.26018,64.3703 22.74898,65.9884 0.4887,1.6182 1.4482,2.9422 2.1322,2.9422 2.0511,0 9.0419,-23.8895 104.1661,-355.9651 22.3103,-77.8844 44.0206,-153.2482 48.2452,-167.4753 l 7.6811,-25.8673 11.1834,-1.0564 c 6.1509,-0.581 42.6348,-1.0618 81.0752,-1.0683 l 69.8918,-0.012 4.3584,14.7108 c 2.3971,8.0909 16.5808,57.0779 31.5192,108.8598 75.8254,262.8386 93.6312,323.7923 110.9934,379.9587 11.8508,38.3367 14.725,45.6269 17.0657,43.2862 0.9398,-0.9398 6.1678,-14.4682 11.6177,-30.0631 9.2822,-26.5606 132.9932,-398.8319 159.8518,-481.0262 l 12.2237,-37.4074 37.8998,0.1015 c 51.0827,0.1368 141.1341,2.539 142.3936,3.7985 1.4862,1.4862 -9.4021,33.1342 -113.7633,330.6653 -41.3078,117.7673 -128.2638,364.3971 -146.7222,416.1423 -15.6718,43.9333 -13.1483,40.6082 -31.8466,41.9631 -8.575,0.6213 -50.7707,1.2607 -93.7682,1.4208 l -78.1774,0.291 -13.7064,-47.9151 c -7.5385,-26.3533 -28.6057,-100.874 -46.8159,-165.6015 -66.5713,-236.6254 -80.7011,-284.3461 -84.0637,-283.9105 -2.9804,0.3861 -13.6863,35.5935 -55.6579,183.0366 -22.637,79.5223 -51.7012,181.6032 -64.5869,226.8464 -12.8858,45.2432 -24.0123,82.839 -24.7256,83.5463 -1.4758,1.4633 -110.1402,4.8219 -156.33143,4.8318 -28.59885,0.01 -30.73883,-0.2092 -32.37026,-3.2575 z"
     id="path28" />
  <path
     fill="oklch(54.6% 0.245 262.881)"
     d="M 343.56643,1946.1058 C 241.23742,1919.5589 165.28556,1872.468 101.93755,1796.2937 62.261253,1748.584 27.155859,1674.4201 18.091894,1619.1608 9.9202621,1569.3417 11.419177,1489.7053 21.314002,1447.972 45.373765,1346.4956 114.67148,1251.8831 206.94612,1194.5277 c 40.8013,-25.361 94.87654,-47.3328 141.02424,-57.3008 21.60032,-4.6657 31.34976,-5.2256 93.07859,-5.3451 78.10879,-0.1513 86.09789,0.9174 140.22263,18.7573 35.71695,11.7725 60.46774,22.5504 72.01958,31.3614 l 8.09502,6.1744 -0.798,97.01 c -0.43889,53.3555 -1.60623,97.8174 -2.59408,98.8042 -0.98786,0.9869 -10.61723,-6.7816 -21.3986,-17.2633 -32.73087,-31.8208 -57.86658,-48.1135 -99.79737,-64.6875 -31.92115,-12.6175 -48.53648,-15.1826 -98.12681,-15.1489 -41.85944,0.028 -46.74526,0.4933 -66.57342,6.3349 -31.60307,9.3106 -74.91218,31.4554 -98.18213,50.2025 -44.66168,35.9808 -77.65187,85.9662 -90.69345,137.4148 -10.34695,40.8184 -8.13609,101.5196 5.15784,141.6134 25.87174,78.0279 111.07645,153.3602 193.06441,170.6947 12.96173,2.7405 28.5031,3.3215 67.92605,2.5393 47.99053,-0.9521 52.35568,-1.4184 71.32867,-7.62 51.42351,-16.8084 98.48488,-49.9184 133.94253,-94.2349 19.06225,-23.8249 31.34866,-48.7747 45.55396,-92.5054 l 11.19886,-34.4756 -1.4585,-236.5734 c -1.93812,-314.3671 -3.16238,-370.90908 -8.03092,-370.90908 -2.03817,0 -39.63107,11.19579 -83.53976,24.87956 -89.42775,27.86942 -96.26953,29.66562 -113.3075,29.74762 -17.4974,0.084 -25.48069,-6.1459 -84.25625,-65.7536 -53.21789,-53.97134 -63.31844,-66.14593 -66.46983,-80.11874 -2.88394,-12.78704 0.51278,-25.46985 20.12326,-75.13679 9.94412,-25.18522 17.49148,-46.38006 16.77189,-47.09963 -1.33805,-1.33805 -205.28488,-4.8036 -299.948228,-5.09683 L 38.71145,740.62936 27.578003,730.8293 C 6.9492449,712.67116 0.74461731,688.76572 11.293709,668.08856 24.534036,642.13631 128.06093,508.83577 189.73885,438.32379 c 34.73485,-39.70991 63.97236,-60.20556 94.38702,-66.16583 6.53846,-1.28133 60.03497,-3.45495 118.88112,-4.83029 58.84615,-1.37533 121.14124,-3.11261 138.43352,-3.86064 l 31.44053,-1.36002 29.18884,-34.82185 C 669.33443,247.0396 731.62312,182.55922 772.72726,150.623 830.7625,105.53204 902.18671,68.014041 974.82516,44.464201 1063.0599,15.857937 1131.2521,5.9176967 1238.7412,5.9936839 c 101.6231,0.07184 131.4689,9.5040491 150.3107,47.5028191 15.6172,31.495757 17.3117,45.925171 17.3117,147.412587 0,98.4358 -1.0724,109.72125 -16.6107,174.79754 -22.5322,94.36774 -63.3096,183.34654 -117.6966,256.82078 -21.7037,29.32081 -25.4708,33.48244 -135.5165,149.71034 -53.2399,56.23077 -102.4092,108.65734 -109.2652,116.5035 -77.73469,88.961 -134.98781,220.57435 -147.38628,338.81115 -1.3027,12.4231 -4.02161,83.5735 -6.04201,158.1119 -5.74962,212.12 -7.19562,228.8279 -23.97652,277.0382 -22.23845,63.8894 -55.84462,115.2401 -107.26807,163.9072 -53.76254,50.8807 -106.44423,81.1908 -179.46883,103.2563 -35.79798,10.8169 -62.10283,13.39 -134.81837,13.1878 -56.47203,-0.157 -59.54151,-0.4087 -84.74809,-6.948 z M 1102.1392,465.97449 c 26.6806,-7.51288 56.1837,-33.56316 70.3108,-62.08208 14.0715,-28.4068 14.3584,-70.90436 0.6738,-99.8312 -13.0751,-27.63841 -46.7546,-56.13416 -75.5621,-63.93199 -20.5941,-5.57456 -54.2311,-4.02456 -73.3843,3.38156 -28.84458,11.15359 -57.64427,40.0004 -68.45672,68.56875 -6.41123,16.93949 -8.62413,46.95899 -4.8133,65.29545 8.80469,42.36545 51.35082,85.43435 91.38652,92.50946 13.1959,2.33197 45.0749,0.24915 59.8453,-3.90995 z"
     id="path29" />
  <path
     fill="oklch(54.6% 0.245 262.881)"
     d="m 925.68903,1957.6899 c -2.64796,-3.2399 -60.74119,-161.3407 -63.83258,-173.7204 -1.1914,-4.7711 1.99081,-15.2647 12.61793,-41.6084 33.52829,-83.1139 38.91519,-110.4 43.44065,-220.0385 1.47199,-35.6621 3.18167,-66.445 3.79929,-68.4065 0.99817,-3.1702 1.33626,-3.1702 3.04284,0 1.05594,1.9615 21.43027,60.2727 45.27628,129.5804 23.84602,69.3077 44.23346,127.6189 45.30546,129.5804 1.538,2.8142 2.4778,2.176 4.4554,-3.0256 3.7936,-9.9776 29.5119,-98.4812 93.7763,-322.7087 61.5879,-214.8891 62.0594,-216.4443 66.4732,-219.2508 1.5528,-0.9874 38.1748,-1.8116 81.3821,-1.8316 l 78.5587,-0.036 11.417,39.8251 c 6.2793,21.9039 16.0999,55.8742 21.8234,75.4895 5.7235,19.6154 27.1043,93.4406 47.5127,164.056 46.5073,160.9201 60.896,209.5725 71.6667,242.3268 7.7976,23.7129 8.8267,25.5677 11.8738,21.4004 1.835,-2.5095 43.6808,-126.4053 92.9906,-275.324 l 89.6543,-270.7614 88.9797,1.6089 c 48.9389,0.8849 89.7813,2.1043 90.761,2.7098 2.9467,1.8212 -54.0005,165.9221 -249.1295,717.8996 -12.4816,35.3077 -24.2129,65.8007 -26.0696,67.7623 -2.8141,2.9731 -18.5965,3.9236 -94.8652,5.7135 -50.3192,1.1809 -92.0398,1.5967 -92.7125,0.9241 -1.359,-1.3591 -20.3125,-67.5002 -84.0026,-293.1411 -50.8409,-180.1187 -59.1563,-207.2036 -62.5671,-203.7928 -3.2653,3.2652 -12.3309,34.1036 -82.9199,282.0686 l -59.7903,210.0309 -20.5553,1.4199 c -11.3054,0.7809 -53.208,2.1206 -93.1169,2.9771 -60.24033,1.2928 -73.01738,0.9995 -75.24587,-1.7271 z"
     id="path30" />
</svg>
