<?xml version="1.0" encoding="UTF-8" standalone="no"?>
<!-- Created with Inkscape (http://www.inkscape.org/) -->

<svg
   version="1.1"
   id="svg1"
   width="1874.8302"
   height="1961.9988"
   viewBox="0 0 1874.8302 1961.9988"
   xmlns="http://www.w3.org/2000/svg"
   xmlns:svg="http://www.w3.org/2000/svg">
  <defs
     id="defs1" />
  <g
     id="g1"
     transform="translate(-115.24348,-27.011168)">
    <path
       style="fill:#3880e4;fill-opacity:1"
       d="m 1037.0186,1985.75 c -0.6542,-1.7875 -2.4646,-6.85 -4.023,-11.25 -1.5584,-4.4 -5.5939,-15.2 -8.9677,-24 -3.3738,-8.8 -7.4132,-19.6 -8.9764,-24 -1.5633,-4.4 -6.0831,-16.55 -10.044,-27 -3.9609,-10.45 -8.43123,-22.375 -9.93413,-26.5 -1.5028,-4.125 -4.5871,-12.45 -6.8539,-18.5 -11.434,-30.5167 -17.3291,-46.8601 -17.8599,-49.5145 -0.4627,-2.3133 0.4172,-4.6959 4.1406,-11.2115 11.3606,-19.8805 15.5968,-28.1862 21.8165,-42.774 16.20813,-38.0151 25.94163,-75.3278 32.34703,-124 2.6856,-20.4069 2.7005,-20.8678 3.2733,-101.5 l 0.5755,-81 19.32,58.5 c 21.6201,65.4647 20.8998,63.327 22.7972,67.6511 0.7606,1.7332 1.3828,3.6441 1.3828,4.2465 0,0.6024 4.7836,15.6094 10.6303,33.3489 17.4127,52.8319 43.1083,130.0334 44.3518,133.2535 1.8228,4.72 0.5566,8.5837 18.5148,-56.5 4.0557,-14.6983 11.02,-39.3142 18.9558,-67 9.1371,-31.8767 22.2568,-78.1864 24.9307,-88 0.8242,-3.025 2.6669,-9.325 4.0948,-14 1.428,-4.675 3.8895,-13.45 5.47,-19.5 1.5806,-6.05 6.1061,-22.25 10.0567,-36 9.0701,-31.5682 13.9421,-48.798 19.5111,-69 2.4258,-8.8 4.9003,-17.575 5.4988,-19.5 0.5985,-1.925 2.4131,-8.225 4.0325,-14 4.923,-17.5561 5.1362,-18.2999 7.0232,-24.5 1.0043,-3.3 3.6052,-12.525 5.7797,-20.5 4.7367,-17.372 7.6658,-27.7977 14.3105,-50.9353 2.7539,-9.5895 6.2699,-22.1895 7.8133,-28 2.2435,-8.4461 9.9887,-35.6235 12.6291,-44.3147 0.5008,-1.6484 5.366,-1.75 83.7997,-1.75 h 83.2681 l 1.524,5.25 c 0.8383,2.8875 3.8483,13.575 6.6889,23.75 2.8407,10.175 6.0697,21.425 7.1755,25 1.1059,3.575 6.005,20.45 10.8869,37.5 4.882,17.05 11.4424,39.775 14.5788,50.5 3.1364,10.725 7.2478,25.125 9.1366,32 3.4088,12.4081 8.393,29.6962 16.8658,58.5 2.4268,8.25 7.1445,24.45 10.4837,36 3.3392,11.55 7.6752,26.4 9.6354,33 1.9602,6.6 4.6564,16.05 5.9915,21 1.3351,4.95 4.3965,15.75 6.8032,24 8.0277,27.5188 12.4575,42.8787 16.4387,57 2.1709,7.7 6.9456,24.35 10.6105,37 3.6649,12.65 8.192,28.4 10.0602,35 1.8682,6.6 5.934,20.55 9.0351,31 3.1011,10.45 7.5004,25.4909 9.7763,33.4242 2.2759,7.9334 4.6068,14.5771 5.1798,14.764 0.5736,0.187 4.5682,-10.5663 8.8874,-23.9243 4.3151,-13.3451 11.5675,-35.5139 16.1166,-49.2639 4.5491,-13.75 14.2192,-43.225 21.4891,-65.5 7.2699,-22.275 15.594,-47.7 18.498,-56.5 2.9039,-8.8 9.1007,-27.7 13.7706,-42 4.6699,-14.3 15.4551,-47.15 23.9671,-73 8.512,-25.85 22.3142,-67.925 30.6717,-93.5 16.6342,-50.9034 37.4397,-114.3921 44.8134,-136.75 l 4.6997,-14.25 h 94.7723 c 105.2677,0 96.3786,-0.6471 93.1632,6.7821 -0.885,2.0449 -4.4269,11.8179 -7.8708,21.7179 -3.4438,9.9 -11.6694,33.3 -18.2791,52 -6.6096,18.7 -12.3448,35.125 -12.7448,36.5 -0.7624,2.6203 -7.3402,21.1732 -18.2592,51.5 -3.5645,9.9 -9.3761,26.325 -12.9148,36.5 -11.1822,32.1526 -16.1478,46.2476 -19.3762,55 -3.2563,8.8278 -11.621,32.5434 -22.397,63.5 -11.449,32.89 -32.5627,92.9198 -34.6445,98.5 -1.1285,3.025 -4.681,13.15 -7.8944,22.5 -3.2133,9.35 -7.055,20.375 -8.537,24.5 -4.2882,11.9354 -16.1622,45.9836 -22.4937,64.5 -3.1971,9.35 -11.0714,31.85 -17.4984,50 -6.4269,18.15 -13.3654,37.95 -15.4187,44 -2.0534,6.05 -7.5884,22.025 -12.3,35.5 -4.7115,13.475 -13.5683,38.9 -19.6817,56.5 -6.1134,17.6 -13.0753,37.4 -15.4709,44 -2.3956,6.6 -6.2508,17.7397 -8.5671,24.7549 l -4.2115,12.755 -97.1636,-0.255 -97.1636,-0.2549 -4.1394,-14.5 c -2.2767,-7.975 -7.5989,-26.875 -11.8272,-42 -4.2283,-15.125 -8.5406,-30.2 -9.5829,-33.5 -1.0424,-3.3 -2.9818,-10.275 -4.3098,-15.5 -1.3281,-5.225 -4.0052,-14.9 -5.9492,-21.5 -3.3874,-11.5003 -9.0415,-31.7309 -12.7166,-45.5 -0.9542,-3.575 -3.4256,-12.125 -5.492,-19 -2.0664,-6.875 -4.9955,-17.225 -6.509,-23 -1.5136,-5.775 -4.5756,-16.8 -6.8046,-24.5 -2.2289,-7.7 -5.2206,-18.5 -6.6482,-24 -1.4276,-5.5 -3.447,-12.7 -4.4876,-16 -1.0406,-3.3 -4.3803,-15 -7.4216,-26 -3.0413,-11 -7.3789,-26.525 -9.6391,-34.5 -2.2601,-7.975 -5.6129,-20.125 -7.4507,-27 -1.8377,-6.875 -4.3258,-15.875 -5.5291,-20 -2.8713,-9.8432 -8.6996,-30.7268 -15.4891,-55.5 -8.4615,-30.8736 -15.237,-54.7035 -16.4664,-57.9128 -1.4129,-3.6887 -2.4712,-2.6162 -4.3543,4.4128 -1.903,7.1035 -10.8064,38.2114 -15.1691,53 -1.866,6.325 -6.1546,21.625 -9.5304,34 -3.3757,12.375 -7.4834,26.9402 -9.1281,32.367 -1.6447,5.4269 -4.725,16.4519 -6.8451,24.5 -4.0536,15.3885 -9.664,35.5508 -15.4805,55.633 -4.2297,14.6039 -7.2806,25.3439 -9.0901,32 -8.9795,33.03 -19.3358,70.2478 -22.9566,82.5 -4.086,13.8262 -11.338,39.7366 -14.974,53.5 -1.453,5.5 -3.5051,12.7 -4.5601,16 -1.0551,3.3 -4.1241,14.1 -6.82,24 -5.6635,20.798 -10.6765,38.6882 -12.0489,43 -0.5252,1.65 -3.4871,12.2009 -6.5819,23.4464 -3.0948,11.2454 -5.8505,20.8079 -6.1237,21.25 -0.2731,0.442 -43.8511,0.8036 -96.8398,0.8036 h -96.3431 z m -496.00613,1.6138 c -25.6987,-0.7652 -64.5982,-5.4518 -82,-9.8792 -3.025,-0.7696 -11.125,-2.8005 -18,-4.513 -34.1809,-8.514 -78.43621,-26.7153 -109.614,-45.0818 -74.21894,-43.7217 -133.28412,-106.7734 -168.98415,-180.3898 -12.63689,-26.0583 -18.72025,-42.1244 -27.26244,-72 -7.94365,-27.7822 -13.13944,-69.282 -13.13944,-104.9471 0,-73.9014 16.98687,-139.8295 52.31813,-203.0529 20.35898,-36.4313 51.08524,-74.8114 81.86018,-102.2513 45.76296,-40.8036 93.39144,-69.346 146.32172,-87.6865 37.3879,-12.9549 64.5203,-19.2248 104,-24.0328 14.3114,-1.7428 78.8182,-2.1086 96,-0.5443 11.9089,1.0843 13.6027,1.3481 42,6.5418 18.8349,3.4448 50.6562,12.1322 67.5,18.4279 4.675,1.7474 10.525,3.8635 13,4.7025 2.475,0.8389 5.4,2.0769 6.5,2.7509 1.1,0.6741 4.7,2.2699 8,3.5463 8.9622,3.4664 35.597,16.7251 38.7686,19.2988 l 2.7687,2.2467 -0.2687,110.3717 -0.2686,110.3718 -4,-5.8318 c -17.5871,-25.6409 -42.7868,-50.297 -69.6088,-68.107 -44.9919,-29.875 -96.0325,-45.3047 -149.8657,-45.3047 -32.1959,0 -57.0213,4.197 -88.6798,14.9921 -63.4792,21.6455 -116.75664,67.2356 -148.82713,127.3528 -38.39075,71.9648 -37.90986,162.7625 1.22956,232.1551 13.95447,24.7407 25.4925,39.8589 46.19667,60.5312 17.952,17.9244 38.1618,33.6135 54.5552,42.3519 2.75,1.4659 6.575,3.6222 8.5,4.7919 10.4648,6.3587 43.0327,19.4335 58.3452,23.4233 28.5838,7.4478 66.7798,10.1879 96.6548,6.9337 22.0314,-2.3999 45.6216,-7.2017 54.9243,-11.18 1.9666,-0.841 6.0507,-2.3444 9.0757,-3.3408 14.3987,-4.7431 43.9366,-20.0508 59.5,-30.8353 23.6826,-16.4108 45.7573,-37.6994 62.9159,-60.6759 25.7776,-34.5176 39.9058,-67.7551 48.2454,-113.5 l 2.8257,-15.5 0.2786,-302.75 c 0.1815,-197.2839 -0.063,-302.75 -0.7017,-302.75 -0.933,0 -46.7064,15.59429 -54.0639,18.4187 -1.925,0.739 -13.625,4.7611 -26,8.9379 -12.375,4.1769 -31.725,10.785 -43,14.6847 -19.2112,6.6446 -41.7165,14.1917 -52,17.4382 -13.994,4.4179 -33.0916,3.8406 -45.9415,-1.3887 -13.6336,-5.5482 -15.2927,-6.9107 -41.5618,-34.13 -8.2482,-8.54654 -29.2184,-30.14654 -46.6005,-47.99999 -17.3821,-17.85345 -33.489,-34.64813 -35.7932,-37.32152 -8.4229,-9.7726 -14.103,-25.33078 -14.103,-38.62885 0,-12.89478 2.3104,-19.65992 16.7161,-48.94655 27.1727,-55.24199 30.2124,-61.87734 28.6251,-62.48644 -0.8089,-0.31042 -65.6792,-0.31184 -144.15602,-0.003 -78.47686,0.30869 -156.63521,0.15955 -173.68521,-0.33141 -27.95458,-0.80498 -31.58277,-1.10521 -36.93216,-3.05612 -20.73203,-7.56093 -33.49115,-23.12498 -37.56495,-45.82312 -1.10076,-6.13318 -1.05396,-8.26214 0.3329,-15.14501 3.07072,-15.23958 8.30357,-25.10955 22.64856,-42.71864 3.13634,-3.85 12.78169,-16 21.43411,-27 8.65242,-11 17.38539,-22.01868 19.4066,-24.48595 2.02122,-2.46727 7.92164,-9.89227 13.11204,-16.5 5.19041,-6.60773 17.12565,-21.68905 26.52277,-33.51405 9.39712,-11.825 20.00043,-25.24044 23.5629,-29.8121 6.35005,-8.14889 24.27902,-30.70509 54.80537,-68.94992 8.43047,-10.56209 19.23047,-22.86277 24,-27.33484 27.45748,-25.74505 55.93869,-40.20378 91.53459,-46.46832 6.7859,-1.19426 29.994,-1.43231 139.7494,-1.43345 l 131.6122,-0.002 13.8878,-17.71119 c 7.6383,-9.74115 18.3017,-23.12865 23.6963,-29.75 5.3946,-6.62134 12.1446,-14.91458 15,-18.42942 5.3704,-6.61079 16.5069,-19.99471 29.6288,-35.6082 20.0414,-23.84687 61.7799,-66.92522 80.5628,-83.14892 11.673,-10.08259 31.609,-26.58673 38.4962,-31.86945 25.0677,-19.22758 63.5282,-44.22877 88.0038,-57.20666 23.247,-12.32646 27.38893,-14.42388 39.09433,-19.796943 28.5843,-13.120872 77.3927,-31.276733 101.9269,-37.914929 11.7852,-3.188719 39.1829,-9.777272 52.4788,-12.620024 5.5,-1.175935 12.7,-2.757628 16,-3.514874 7.5652,-1.735964 39.9438,-6.903323 52.5,-8.378563 5.225,-0.613889 12.425,-1.539947 16,-2.057906 17.5641,-2.544744 64.7288,-4.965832 97.0383,-4.981228 23.7184,-0.0113 64.6709,2.114661 75.9617,3.943398 3.025,0.489948 8.875,1.41343 13,2.052181 13.9966,2.167358 30.2982,6.899735 39.7509,11.539739 29.7634,14.609795 39.419,36.463821 47.6962,107.952989 4.7742,41.23454 4.7953,120.21645 0.042,156.13117 -0.8641,6.52786 -1.9843,15.01883 -2.4894,18.86883 -2.0213,15.40777 -3.1941,23.38425 -4.6313,31.5 -0.8279,4.675 -2.1164,12.1 -2.8633,16.5 -7.4893,44.12052 -26.6232,106.42295 -46.9881,153 -7.2877,16.66788 -23.1038,48.68014 -29.1497,59 -2.5777,4.4 -7.1827,12.275 -10.2332,17.5 -14.5849,24.98108 -33.6414,51.76741 -59.0448,82.99523 -26.6448,32.75381 -51.0288,59.0149 -94.6796,101.96781 -46.3775,45.63593 -99.5098,99.04919 -106.9238,107.48902 -3.842,4.37364 -9.2619,10.44864 -12.0441,13.5 -37.3015,40.90952 -77.3259,100.06912 -101.4942,150.01722 -21.8973,45.2544 -41.0639,102.8602 -50.5838,152.0307 -1.97,10.175 -3.9946,20.525 -4.49923,23 -1.3454,6.5995 -3.8477,23.2496 -4.9596,33 -4.1384,36.2917 -4.1612,37.1629 -4.9042,187.5 -0.7501,151.7674 -0.7474,151.6729 -5.0396,181.5 -4.4061,30.6196 -15.5055,69.3311 -27.6238,96.3443 -36.9491,82.3645 -96.3167,147.2044 -178.9251,195.4179 -28.9075,16.8716 -73.7804,35.1103 -106.4119,43.2515 -25.0579,6.2517 -27.6458,6.8254 -36,7.9807 -4.675,0.6465 -10.3,1.5625 -12.5,2.0354 -12.0009,2.5799 -58.8168,5.0393 -82.5,4.334 z M 1195.5125,497.57947 c 28.861,-3.91691 51.1536,-15.10989 70.7374,-35.51672 17.3,-18.02703 27.7961,-39.35247 31.2849,-63.56275 2.3924,-16.60141 1.7766,-29.71154 -2.2076,-47 -2.3409,-10.15748 -10.0819,-27.77329 -16.2593,-37 -10.0977,-15.08223 -28.7246,-31.33713 -45.5554,-39.75432 -6.282,-3.14168 -25.0567,-9.18545 -33.0602,-10.64245 -8.4558,-1.53933 -29.369,-1.3443 -39.0241,0.36394 -8.7888,1.55496 -25.3686,6.9426 -32.4645,10.54939 -30.219,15.36016 -53.5898,44.31898 -61.3213,75.98344 -6.8263,27.95711 -4.2874,53.52567 7.9111,79.67261 17.1399,36.73839 51.2671,61.41081 92.459,66.84351 12.5819,1.6594 15.6871,1.66656 27.5,0.0634 z"
       id="path1" />
  </g>
  <path
     style="fill:#0000ff;stroke-width:1.68123"
     d="m 390.30707,1956.9629 c -37.9737,-4.3655 -67.55167,-11.3568 -103.98059,-24.5775 -22.79166,-8.2715 -60.07406,-26.2849 -79.53485,-38.4281 -51.971,-32.4293 -99.79929,-78.8794 -133.345504,-129.5035 C 49.56702,1728.4183 25.594891,1672.2847 16.720674,1631.6245 5.8092601,1581.6302 5.5149076,1508.8351 16.018768,1458.039 c 15.173131,-73.3766 51.568386,-142.5525 103.762502,-197.2199 66.83759,-70.0048 149.55592,-113.2838 249.41262,-130.4948 19.25785,-3.3193 27.54268,-3.738 73.81095,-3.7304 49.87478,0.01 53.13138,0.2061 75.65547,4.5979 46.46824,9.0605 82.86319,20.752 121.04876,38.8856 28.83111,13.6914 25.55573,-2.5779 24.72041,122.7906 -0.66903,100.4111 -0.90095,107.32 -3.47188,103.4232 -13.5184,-20.4898 -43.14808,-49.3194 -68.04088,-66.2037 -16.00613,-10.8567 -48.58435,-26.6032 -68.37209,-33.0474 -45.46903,-14.8076 -101.75303,-16.707 -147.27389,-4.9699 -51.59697,13.3037 -89.38057,34.6887 -126.01395,71.3221 -53.07435,53.0743 -79.77303,120.8924 -75.75833,192.4359 3.58989,63.9733 27.77892,116.4144 75.70479,164.1259 32.78103,32.6342 64.85397,52.4371 108.58462,67.0434 26.9278,8.994 46.1382,11.7173 82.37635,11.6776 48.69062,-0.053 77.68363,-6.644 118.49948,-26.9375 29.33339,-14.5845 44.73604,-25.8132 69.86991,-50.9352 40.65653,-40.6375 61.13342,-78.3825 72.99148,-134.5452 l 4.27391,-20.2424 v -305.117 c 0,-167.8143 -0.25134,-305.11696 -0.55855,-305.11696 -0.30722,0 -17.14056,5.75259 -37.40743,12.78352 -20.26688,7.03095 -61.24694,21.02721 -91.06682,31.10281 -51.14132,17.27973 -54.98364,18.31923 -67.71162,18.31923 -16.10173,0 -28.98468,-4.0012 -39.65907,-12.3176 -4.01449,-3.1277 -30.36351,-29.43906 -58.55337,-58.4698 -54.89268,-56.53009 -60.06559,-63.2217 -63.36859,-81.97323 -2.61171,-14.82691 0.81295,-25.31798 23.82613,-72.98884 11.05984,-22.90997 20.10879,-43.26126 20.10879,-45.22506 v -3.57055 l -134.07831,1.07226 C 185.58708,745.10332 106.33797,744.97679 83.221025,744.23241 42.201993,742.91155 40.979083,742.77039 32.419928,738.36869 20.979913,732.48545 12.291453,723.63781 7.3458564,712.8352 2.143273,701.47126 0.3564327,691.10564 1.9856058,681.73989 4.7874725,665.63261 14.126219,651.86585 69.843741,581.70654 99.951672,543.79474 140.21486,493.10558 159.3175,469.06395 c 19.10264,-24.04163 39.67957,-48.68408 45.72649,-54.76098 18.62559,-18.71794 42.32213,-33.84055 65.40162,-41.73783 25.10847,-8.59157 24.84951,-8.57824 166.6853,-8.57824 h 132.60795 l 23.11167,-29.00127 C 703.40781,196.25474 771.34209,135.41414 875.08166,82.224957 950.04681,43.788959 1034.3481,18.747328 1128.9478,6.8142174 c 60.5799,-7.64174436 148.7271,-7.68421734 192.4812,-0.092746 49.7254,8.6274896 68.4219,24.0597236 78.9301,65.1492946 9.1165,35.647554 12.4221,77.883234 11.4511,146.309974 -0.8127,57.2617 -2.6272,76.22604 -12.3165,128.7231 -17.5907,95.30762 -58.6816,194.54153 -111.2576,268.68489 -34.9183,49.24245 -58.1046,75.10739 -153.4953,171.22821 -88.6891,89.36793 -104.3302,106.17076 -127.4669,136.93436 -73.88639,98.2429 -113.71446,198.9125 -129.73806,327.9265 -1.01578,8.1787 -2.41443,81.1608 -3.27025,170.6451 -0.90781,94.9193 -2.24335,162.9606 -3.39896,173.167 -9.95273,87.9024 -50.31893,170.2653 -115.28935,235.2357 -66.01318,66.0133 -154.46423,110.4628 -247.84498,124.55 -25.19213,3.8004 -90.83884,4.7437 -117.42523,1.6873 z M 1083.5545,470.65591 c 46.4429,-5.95465 86.919,-43.07911 97.7129,-89.62177 3.3485,-14.43829 3.323,-40.09491 -0.054,-54.57076 -9.4655,-40.57302 -38.5214,-72.09106 -78.7381,-85.40997 -13.6947,-4.5354 -17.874,-5.15629 -34.8924,-5.18383 -32.6874,-0.0529 -58.4128,9.47832 -80.31542,29.75683 -39.33403,36.41728 -50.20435,90.86091 -27.52726,137.86946 18.60533,38.56802 51.63858,62.46156 93.82208,67.86331 11.3685,1.45578 13.5523,1.40457 29.9923,-0.70327 z"
     id="path2" />
  <path
     style="fill:#0000ff;stroke-width:1.68123"
     d="m 892.27216,1876.6897 c -17.27934,-46.4725 -32.62259,-88.0459 -34.09611,-92.3853 l -2.67913,-7.8897 11.79611,-22.3725 c 21.49594,-40.7691 34.70068,-80.4321 43.12017,-129.5199 5.34543,-31.1652 7.31305,-68.6417 7.61488,-145.0375 l 0.2192,-55.4806 48.6683,146.6875 c 26.76756,80.6782 49.30002,146.6876 50.07202,146.6876 1.5379,0 2.4962,-3.2302 32.1721,-108.4395 11.2152,-39.7612 32.4863,-115.0384 47.269,-167.2827 14.7827,-52.2443 38.1954,-135.087 52.0282,-184.095 13.8328,-49.0079 25.5558,-90.4293 26.051,-92.0475 0.8416,-2.75 6.3059,-2.9421 83.6747,-2.9421 h 82.7744 l 9.5069,33.2043 c 5.2287,18.2624 21.3003,74.0583 35.7146,123.9909 14.4143,49.9326 43.5295,150.9327 64.7004,224.4446 45.813,159.0767 49.1231,170.0603 51.3026,170.2332 2.4917,0.1977 3.5807,-3.0399 96.9808,-288.3146 l 86.2736,-263.508 93.7287,-0.025 c 53.069,-0.014 93.7287,0.6184 93.7287,1.4586 0,0.816 -4.1078,13.1101 -9.1284,27.32 -98.1836,277.8901 -157.0979,445.7376 -230.6552,657.1391 -20.7523,59.6418 -38.0609,109.3853 -38.4635,110.5411 -0.5741,1.6483 -21.524,2.1015 -97.1362,2.1015 h -96.4042 l -6.35,-22.2763 c -3.4925,-12.252 -15.6908,-55.5647 -27.1073,-96.2506 -11.4165,-40.6858 -28.4127,-101.2102 -37.7693,-134.4986 -9.3566,-33.2884 -28.325,-101.151 -42.152,-150.8058 -27.9868,-100.5043 -27.8736,-100.14 -30.333,-97.6806 -1.5864,1.5864 -14.3275,46.052 -60.3618,210.6587 -36.7,131.2299 -74.3877,265.3707 -77.9382,277.4034 l -3.7206,12.6092 -95.8422,0.434 -95.84226,0.4339 z"
     id="path3" />
  <path
     style="fill:#2568fc;fill-opacity:1;stroke-width:2.37762"
     d="m 395.8741,1956.563 c -50.17563,-6.0575 -87.7005,-16.0572 -131.57647,-35.0625 C 149.98537,1871.9848 66.451697,1781.1716 27.514158,1664.0825 14.964076,1626.3432 10.468681,1593.9726 10.568645,1542.0608 10.682281,1483.049 16.390032,1448.4422 33.733711,1401.6083 83.205046,1268.0186 197.257,1170.7869 345.03297,1136.219 c 26.16398,-6.1204 32.73805,-6.6761 88.88308,-7.5138 57.75934,-0.8618 62.06626,-0.6132 90.98347,5.2518 48.28019,9.792 118.59066,34.8324 131.60539,46.8698 7.62596,7.0533 8.43558,22.0846 6.59695,122.4761 l -1.66146,90.7155 -10.24677,-12.579 c -68.38324,-83.9476 -186.15248,-118.3092 -292.06763,-85.2168 -77.28033,24.1456 -142.39512,86.135 -170.03697,161.8755 -11.4955,31.4984 -15.08119,56.3336 -13.64231,94.4892 1.90076,50.4033 12.52088,84.6357 38.25626,123.3136 41.7226,62.7052 109.73179,108.5735 178.82178,120.605 21.95561,3.8234 97.94427,1.5701 115.6869,-3.4304 45.47381,-12.8163 82.68321,-33.5712 115.05461,-64.1758 43.61577,-41.2353 64.38083,-76.0976 78.40854,-131.6395 l 8.28014,-32.7848 -0.71177,-303.544 c -0.39147,-166.9491 -1.34937,-304.18112 -2.12864,-304.95994 -0.77929,-0.77881 -11.47859,2.19574 -23.77622,6.61008 -12.29765,4.41436 -53.00212,18.33693 -90.45438,30.93904 -70.72515,23.79792 -82.33453,26.14802 -101.7137,20.59012 -14.14638,-4.0571 -25.47774,-13.9637 -74.78295,-65.38019 -56.43712,-58.85371 -63.77068,-68.50943 -65.20933,-85.85748 -1.28444,-15.48869 0.8189,-21.87791 22.58687,-68.61114 9.71092,-20.84823 18.24791,-40.86424 18.97107,-44.48004 l 1.31482,-6.57417 -176.81557,-0.69476 -176.815571,-0.69479 -8.321677,-5.1831 C 5.2356981,719.90408 -3.6832055,691.91531 9.4495451,665.56132 19.942239,644.50524 179.85455,442.70429 209.06949,413.65144 c 13.88544,-13.8084 24.43451,-21.78694 38.20322,-28.89403 36.9642,-19.08014 28.57752,-18.18641 184.51102,-19.66237 l 139.3362,-1.31884 26.95738,-33.28671 C 678.81002,230.80154 737.11255,172.15011 796.50344,130.87594 906.69807,54.29527 1040.4083,10.940598 1189.1982,3.5471956 c 44.6414,-2.2182405 109.1218,0.065646 133.9486,4.7444383 36.9478,6.9631151 56.818,19.0457301 67.5987,41.1052571 22.7404,46.531562 27.2817,183.026379 9.4911,285.264559 -19.9656,114.73696 -69.7123,227.92721 -137.6681,313.2406 -23.1818,29.10302 -51.379,59.21775 -140.668,150.23398 -46.5483,47.44866 -93.0661,96.75413 -103.373,109.56773 -72.72708,90.41491 -115.75163,186.95924 -136.41782,306.11294 -5.73067,33.041 -6.06467,40.4984 -8.25085,184.2252 -1.25313,82.3846 -2.7909,162.1501 -3.41726,177.2567 -3.7293,89.9422 -42.6495,177.3005 -110.21299,247.3784 -52.42336,54.3744 -110.01907,90.5928 -181.26942,113.9893 -44.48716,14.6083 -72.48457,19.0154 -127.21094,20.0245 -26.15385,0.4823 -51.2972,0.4248 -55.87412,-0.1278 z M 1102.0279,467.14572 c 48.4912,-14.12129 83.334,-62.2869 83.1816,-114.98775 -0.1631,-56.42128 -42.7844,-106.29472 -99.0896,-115.94998 -60.3334,-10.34605 -119.58564,28.07982 -135.09082,87.60822 -17.49348,67.16193 27.77205,136.11158 97.13782,147.96283 15.64,2.67214 34.2813,1.06855 53.861,-4.63332 z"
     id="path4" />
  <path
     style="fill:#2568fc;fill-opacity:1;stroke-width:2"
     d="m 891.61983,1871.7797 c -18.27451,-49.4065 -33.46436,-91.1686 -33.75522,-92.8048 -0.29086,-1.6362 5.88693,-15.9448 13.72842,-31.7968 32.6663,-66.037 46.39431,-131.7213 46.41428,-222.0779 0.004,-18.2051 0.60038,-46.0649 1.32522,-61.9105 l 1.31791,-28.8104 45.372,135.8104 C 990.97703,1644.8853 1012.77,1709.15 1014.4512,1713 l 3.0568,7 2.1388,-5.3483 c 1.1764,-2.9416 36.7018,-127.5916 78.9454,-277 L 1175.3988,1166 l 5.8006,-1.2634 c 3.1903,-0.6948 40.1558,-1.3698 82.1455,-1.5 l 76.3449,-0.2366 2.0719,6.5 c 1.1396,3.575 25.1227,86.6 53.2959,184.5 107.0595,372.0249 103.9657,361.6589 107.5786,360.4546 3.2475,-1.0825 7.8444,-14.6578 92.598,-273.4546 42.3283,-129.25 80.1411,-244.675 84.0285,-256.5 l 7.068,-21.5 79.3347,0.2484 c 43.634,0.1366 85.3283,0.8116 92.654,1.5 l 13.3195,1.2516 -65.9016,187 c -36.2459,102.85 -98.7385,280.9989 -138.8725,395.8864 -40.134,114.8874 -73.3891,209.3046 -73.9004,209.8158 -0.5112,0.5113 -43.5767,1.3612 -95.7011,1.8887 l -94.7716,0.9591 -2.1406,-6.775 c -2.2357,-7.0756 -42.8653,-151.6848 -99.1163,-352.775 -38.9282,-139.1632 -39.6159,-141.4604 -42.6546,-142.4733 -3.1255,-1.0418 -1.7769,-5.6378 -77.7476,264.9611 L 1115,1958.9755 l -53.1775,0.012 c -29.2477,0.01 -72.03227,0.5994 -95.07692,1.3171 l -41.89936,1.3048 z"
     id="path25" />
  <path
     style="fill:#2568fc;fill-opacity:1;stroke-width:2"
     d="M 392.13904,1954.7856 C 318.76542,1947.913 234.78452,1913.9669 171.64641,1865.6598 92.865686,1805.3846 35.423438,1713.8335 16.883687,1619 c -4.514422,-23.0919 -6.212439,-97.5132 -2.949165,-129.257 8.998864,-87.5372 54.911038,-177.8856 123.285598,-242.6078 58.11396,-55.0098 136.94656,-95.4586 218.3905,-112.0558 25.30082,-5.156 117.8439,-7.9267 144.57118,-4.3283 38.3213,5.1592 106.44504,25.3662 137.9404,40.916 25.46236,12.5713 23.91712,5.5557 23.64092,107.3329 -0.12686,46.75 -0.80046,90.777 -1.49688,97.8377 L 659,1389.6754 l -7.26002,-8.8377 c -38.17562,-46.4717 -92.2088,-78.8227 -153.82664,-92.0998 -27.65312,-5.9585 -81.70222,-6.5359 -108.33296,-1.1573 -54.54488,11.0165 -100.2262,35.6524 -139.58038,75.2758 -41.94356,42.2304 -67.5595,92.8899 -74.22227,146.786 -4.23506,34.258 0.51211,83.882 10.96082,114.5778 27.58227,81.03 114.02343,155.4915 199.28321,171.665 19.14886,3.6324 66.09696,4.1433 98.48812,1.0717 69.98106,-6.6362 147.25074,-58.6417 188.90426,-127.1398 12.58434,-20.6946 20.22878,-40.0056 29.75516,-75.166 l 7.18494,-26.5185 -0.67712,-305.4001 c -0.37242,-167.97 -1.37222,-306.0949 -2.22176,-306.94422 -0.84956,-0.84934 -36.84956,10.3087 -80,24.79566 C 535.3744,1011.4984 523.11196,1015 506.93288,1015 c -20.4604,0 -28.89034,-5.6082 -68.67188,-45.68516 -47.50852,-47.86138 -75.42904,-79.29722 -81.60864,-91.88352 -8.19176,-16.68464 -6.34592,-28.39316 10.3152,-65.43132 18.83886,-41.8793 26.95316,-61.47052 26.99584,-65.17902 0.0322,-2.79254 -6.34614,-3.33914 -52.4634,-4.49592 -28.875,-0.72428 -108.3707,-1.31872 -176.65711,-1.32096 L 40.68578,741 31.23708,734.74144 C 10.765922,721.1819 1.0327589,699.7058 5.9912016,679.03668 7.3733882,673.27508 12.215809,663.03062 16.752135,656.2712 37.004672,626.09362 142.31639,492.55472 188.35196,438.67666 c 12.30878,-14.40566 28.0886,-30.90116 35.0663,-36.6567 13.90182,-11.46686 44.4101,-27.6408 58.58174,-31.05706 9.64642,-2.32538 142.97264,-5.65308 234.22796,-5.84608 L 571.45592,365 596.18722,334.5 C 655.06582,261.88768 707.37264,205.40014 749,169.4734 843.23626,88.142243 969.08282,32.812291 1104.8287,13.029033 1153.1294,5.9898167 1178.7008,4.2449021 1232,4.3512393 c 71.2541,0.1421588 99.2495,3.6632544 126,15.8475407 27.9016,12.708599 39.1537,34.932949 47.4837,93.78685 4.2403,29.95896 4.7855,135.96287 0.8745,170.01437 -15.1749,132.11902 -61.2875,251.8313 -134.6671,349.6067 -26.5794,35.41598 -34.0013,43.56144 -131.5677,144.3933 -99.8094,103.14996 -113.4918,117.7991 -130.7615,140 -36.85106,47.3737 -74.48502,114.442 -94.0093,167.536 -16.82522,45.7542 -31.54322,104.705 -37.31606,149.464 -1.06406,8.25 -2.8775,64.05 -4.02988,124 -3.82248,198.8562 -5.32024,238.5083 -9.96274,263.754 C 841.845,1743.4716 752.65084,1856.4671 635,1912.918 c -36.62674,17.5741 -77.53376,31.1256 -112,37.1028 -26.52026,4.5993 -102.92692,7.3813 -130.86096,4.7648 z M 1096.808,469.04912 c 42.4303,-10.85184 73.9587,-43.1274 85.248,-87.26808 7.2241,-28.24586 3.4395,-59.04034 -10.4965,-85.40894 -13.4533,-25.45502 -44.3963,-49.89936 -73.5595,-58.11044 -40.8018,-11.48802 -84.9726,0.13888 -115.71764,30.45988 -21.27618,20.98272 -36.1323,55.35396 -36.24764,83.86278 -0.10988,27.16468 12.99868,60.23438 32.16968,81.15614 14.97722,16.34498 30.2959,26.49948 50.6828,33.59672 20.3492,7.08412 44.5325,7.69366 67.9208,1.71194 z"
     id="path26" />
  <path
     style="fill:#2568fc;fill-opacity:1;stroke-width:2"
     d="M 925.01709,1959 C 921.90206,1953.803 860,1781.8343 860,1778.3774 c 0,-2.5239 3.69347,-12.1914 8.20771,-21.4832 20.7236,-42.6561 33.0054,-78.3213 40.74714,-118.3258 6.72299,-34.7404 8.7186,-60.0848 10.12343,-128.5684 0.67693,-33 1.69231,-61.35 2.2564,-63 0.56408,-1.65 18.93841,50.1 40.83184,115 50.51768,149.7525 54.02068,159.6151 55.98838,157.6345 1.6028,-1.6133 42.6317,-144.6256 118.6083,-413.4269 21.4209,-75.7859 40.1372,-138.5471 41.5919,-139.4694 1.4547,-0.9223 30.9949,-1.6961 65.6449,-1.7196 34.65,-0.023 70.2,-0.5915 79,-1.2624 l 16,-1.2198 36.7411,127.7318 c 105.968,368.4014 121.2905,420.5479 124.5074,423.7318 1.3512,1.3373 2.9953,0.6793 4.9617,-1.9856 2.7989,-3.7931 59.065,-172.8947 143.0812,-430.0144 21.2066,-64.9 38.5915,-118.0503 38.6331,-118.1119 0.5349,-0.792 181.0626,2.4272 181.8766,3.2434 0.6207,0.6223 -8.3953,28.0723 -20.0356,61 -26.3805,74.6246 -243.3859,692.5752 -250.1733,712.4006 -2.7364,7.9927 -6.4641,15.2945 -8.2837,16.2262 -1.8197,0.9318 -44.7127,2.2652 -95.3178,2.9632 l -92.0093,1.269 -34.687,-123.4952 c -19.0778,-67.9224 -49.9842,-177.9453 -68.681,-244.4953 -18.6968,-66.55 -35.2457,-124.0043 -36.7753,-127.6762 -1.5491,-3.7185 -3.8954,-6.3047 -5.2962,-5.8378 -3.3773,1.1258 -7.6504,15.7254 -80.2222,274.0875 -34.54,122.9654 -63.142,223.909 -63.5599,224.319 -1.1693,1.1474 -188.06151,2.244 -188.74271,1.1075 z"
     id="path27" />
</svg>
