<?xml version="1.0" encoding="UTF-8" standalone="no"?>
<!-- Created with Inkscape (http://www.inkscape.org/) -->

<svg
   version="1.1"
   id="svg1"
   width="1287.2488"
   height="1363.3759"
   viewBox="0 0 1287.2488 1363.3759"
   xmlns="http://www.w3.org/2000/svg"
   xmlns:svg="http://www.w3.org/2000/svg">
  <defs
     id="defs1" />
  <g
     id="g1"
     transform="translate(-387.07064,-280.43682)">
    <path
       style="fill:#2563eb;fill-opacity:1"
       d="m 1020.2793,1642.5486 c -21.31296,-57.7021 -44.56176,-121.266 -45.47606,-124.3347 -1.2091,-4.0582 -1.1646,-4.185 6.8405,-19.5 15.8226,-30.2712 24.57106,-57.418 30.74926,-95.4153 2.4442,-15.033 2.6552,-19.1427 3.4915,-68 0.4895,-28.6 1.0091,-56.05 1.1546,-61 l 0.2646,-9 3.1738,9.5 c 1.7456,5.225 8.7749,26.6 15.6206,47.5 39.0705,119.2818 49.1589,149.4383 49.7643,148.7569 0.3698,-0.4163 5.7206,-18.9819 11.8908,-41.2569 6.1702,-22.275 16.7775,-60.3 23.5719,-84.5 17.4977,-62.323 36.1765,-129.1303 54.1009,-193.5 18.983,-68.171 17.5707,-63.3532 18.829,-64.2347 0.5768,-0.4041 26.5543,-0.7416 57.7277,-0.75 l 56.6791,-0.015 1.4818,5.25 c 6.8703,24.3419 93.587,328.5991 99.8963,350.5 4.4762,15.5375 8.4093,28.25 8.7404,28.25 0.331,0 2.2565,-4.8375 4.2788,-10.75 4.6055,-13.4647 120.7446,-371.9888 120.7446,-372.7413 0,-0.7869 129.6991,-0.1438 130.4894,0.647 0.3605,0.3606 -3.0237,11.1606 -7.5203,24 -4.4966,12.8394 -12.144,34.8193 -16.9942,48.8443 -4.8502,14.025 -14.7344,42.375 -21.9649,63 -31.5347,89.9527 -83.0674,238.6965 -138.3237,399.257 l -7.1434,20.7569 -66.9902,-0.2569 -66.9902,-0.257 -4.1672,-15 c -2.2919,-8.25 -9.4242,-33.9 -15.8496,-57 -36.8227,-132.3813 -40.8896,-147.0465 -59.4833,-214.5 -8.2627,-29.975 -15.5274,-56.2754 -16.1437,-58.4453 -0.7969,-2.8058 -1.3477,-3.5279 -1.907,-2.5 -0.7488,1.3762 -19.7461,68.8427 -31.3809,111.4453 -7.5993,27.826 -30.0742,108.8246 -51.1936,184.5 -6.984,25.025 -12.9294,46.4 -13.2121,47.5 -1.1967,4.6567 1.1841,4.5 -68.3789,4.5 -51.8142,0 -66.0077,-0.2673 -66.3706,-1.25 z m -357.47556,-0.86 c -55.6806,-4.894 -109.7219,-25.2358 -153.1966,-57.6651 -39.6178,-29.5522 -68.0084,-63.4117 -89.358,-106.5711 -15.0932,-30.5118 -23.1476,-57.8423 -27.0108,-91.6538 -2.2922,-20.0626 -1.5384,-60.7691 1.4723,-79.5 18.7162,-116.4436 106.5293,-209.578 223.4228,-236.9621 27.5502,-6.4541 33.3216,-7.016 72.1703,-7.0274 35.1127,-0.01 36.3678,0.058 50.9227,2.7623 18.0498,3.3538 27.0231,5.5651 44.0773,10.8618 18.9876,5.8971 43.5907,16.46 55.2482,23.7198 l 4.2483,2.6456 v 76.75 c 9e-4,42.2125 -0.3358,76.7305 -0.7483,76.7067 -0.4125,-0.024 -3,-3.2625 -5.75,-7.1971 -6.0689,-8.6831 -22.4158,-25.9154 -32.0887,-33.8268 -26.854,-21.9636 -60.243,-35.9609 -95.4113,-39.9982 -14.8453,-1.7043 -42.5721,-0.6662 -55.4728,2.077 -52.504,11.1641 -95.2498,41.3294 -122.5037,86.4495 -30.0371,49.728 -32.7067,114.3781 -6.8084,164.8791 9.3981,18.3259 17.8962,29.8565 33.739,45.7783 15.6449,15.723 24.3821,22.7299 38.5459,30.9125 40.4678,23.3784 85.5671,30.3335 132.7843,20.4776 12.3969,-2.5877 23.5349,-6.4372 35.996,-12.4408 21.8374,-10.521 36.5769,-21.0935 53.2881,-38.2226 27.3194,-28.0028 41.3437,-54.9172 49.3853,-94.7766 l 3.0461,-15.0995 -0.074,-205.2345 c -0.041,-112.8791 -0.3782,-207.10508 -0.75,-209.39127 l -0.6758,-4.15669 -38,13.22297 c -20.9,7.27264 -48.35,16.79312 -61,21.15672 l -23,7.9337 -11.5,-0.025 c -12.9551,-0.029 -19.4786,-1.9078 -27.2824,-7.8588 -2.3197,-1.769 -20.6922,-20.41417 -40.8277,-41.43365 -33.6175,-35.09331 -36.883,-38.80844 -39.9493,-45.4497 -2.7498,-5.95561 -3.4106,-8.73307 -3.743,-15.73245 -0.5279,-11.11515 0.5148,-14.10126 16.6676,-47.73475 7.0699,-14.72089 13.1727,-27.77775 13.5619,-29.01525 l 0.7076,-2.25 -111.8174,-0.0357 c -61.4995,-0.0196 -116.1234,-0.42079 -121.3864,-0.89147 -15.0036,-1.34182 -25.3107,-7.78506 -31.7069,-19.82077 -8.7001,-16.37078 -6.071,-31.52127 8.8936,-51.25209 3.5457,-4.675 26.1926,-33.7 50.3263,-64.5 75.0349,-95.76105 75.4465,-96.25142 90.0561,-107.28808 8.9112,-6.73194 26.4061,-15.42336 38,-18.87829 8.9162,-2.65703 9.3861,-2.68864 50.5,-3.39702 22.825,-0.39327 65.6047,-0.76489 95.066,-0.82582 l 53.5661,-0.11116 11.4339,-14.71639 c 30.0922,-38.73107 50.216,-62.49511 74.0388,-87.43156 53.7975,-56.31251 112.4392,-93.71706 190.14116,-121.28131 29.6534,-10.51938 81.4868,-21.46636 120.9395,-25.54194 32.9423,-3.40302 89.4224,-3.1314 114.3144,0.54975 21.3293,3.15427 36.1569,8.71109 45.3861,17.00898 13.6123,12.23864 20.8727,43.39641 23.1443,99.32411 3.5786,88.10493 -13.1091,171.33656 -49.7412,248.08851 -16.6065,34.79413 -36.788,65.52365 -66.3313,100.99985 -17.2733,20.74201 -26.6683,30.67372 -78.9881,83.5 -62.5674,63.17312 -75.3468,77.75233 -98.7329,112.63805 -37.6405,56.14932 -60.5682,117.25342 -71.24066,189.86192 -3.2731,22.268 -4.0202,44.7764 -4.9955,150.5 -0.9871,106.9976 -1.0153,107.6042 -6.0823,130.5 -5.5835,25.2302 -12.5664,44.7718 -23.7682,66.515 -24.7767,48.0925 -60.9214,86.6903 -109.1502,116.5579 -30.3081,18.7695 -73.6858,34.7442 -109.5,40.3255 -20.6122,3.2122 -55.4073,4.3455 -76.5,2.4916 z M 1139.3037,604.83586 c 21.0196,-5.47301 37.9962,-18.4815 49.4675,-37.90487 5.3699,-9.09243 8.8769,-20.21895 10.2522,-32.52615 1.4737,-13.18741 -0.4105,-26.0722 -5.7713,-39.46607 -12.605,-31.4933 -43.8479,-51.62642 -77.3512,-49.84561 -21.974,1.168 -41.4707,10.20466 -55.3697,25.66375 -24.2034,26.91991 -28.2456,64.17122 -10.4219,96.04172 6.154,11.00386 20.6835,25.29827 31.1944,30.68965 19.8752,10.19457 38.1665,12.51176 58,7.34758 z"
       id="path1" />
    <path
       style="fill:#2563eb;fill-opacity:1;stroke-width:1.70009"
       d="m 645.22915,1638.8432 c -127.62624,-20.7514 -224.17473,-111.856 -248.58892,-234.5724 -4.29986,-21.613 -4.23133,-83.4113 0.11689,-105.4053 12.88557,-65.1777 48.01143,-124.9472 97.85962,-166.5161 36.44412,-30.3911 75.11276,-49.7582 124.619,-62.4152 20.09032,-5.1363 22.41908,-5.3567 64.19871,-6.076 41.44759,-0.7135 44.29831,-0.554 64.88802,3.6312 27.6754,5.6255 54.20813,14.4582 76.42252,25.4411 l 17.64747,8.725 0.3792,75.6538 0.37921,75.6539 -5.45012,-6.8004 c -30.4461,-37.9889 -66.51347,-60.4915 -111.71039,-69.6967 -21.96934,-4.4745 -65.31008,-2.9302 -85.05805,3.0308 -68.0069,20.5281 -117.93221,74.1414 -130.12154,139.7338 -3.87055,20.8278 -2.74321,59.1641 2.28568,77.7271 8.07485,29.8064 22.52118,53.65 47.60237,78.5675 19.13565,19.0108 30.77799,27.504 50.49134,36.8339 51.22698,24.2447 109.7449,23.9066 159.7987,-0.9231 43.80562,-21.7303 77.8442,-60.2669 92.40462,-104.6152 1.99546,-6.0778 5.1466,-17.9359 7.00254,-26.3513 3.25688,-14.7678 3.37572,-22.1467 3.41123,-211.8292 0.0361,-192.83076 -0.47588,-222.54271 -3.83481,-222.54271 -0.91993,0 -28.08754,9.18046 -60.37249,20.40102 -55.22052,19.1918 -59.4649,20.39882 -71.60664,20.3637 -8.99349,-0.026 -14.96859,-1.0023 -19.70711,-3.21996 -10.73075,-5.02211 -82.52873,-79.52617 -87.78868,-91.09746 -1.79924,-3.95809 -3.10684,-10.82312 -3.12857,-16.42519 -0.0402,-10.37248 2.73274,-17.78661 21.0479,-56.27605 5.23397,-10.99923 9.51631,-20.32429 9.51631,-20.72236 0,-0.39808 -53.74396,-1.01086 -119.43102,-1.36174 -132.41116,-0.70729 -127.96945,-0.32538 -139.27473,-11.97471 -11.90223,-12.26443 -14.19859,-28.44285 -6.28489,-44.27857 3.97688,-7.95792 3.97739,-7.95862 55.06576,-73.37269 84.03649,-107.60123 86.1266,-109.8636 114.13785,-123.54518 17.31757,-8.45844 18.43456,-8.75644 37.69079,-10.05533 10.91438,-0.7362 55.59506,-1.38756 99.29042,-1.44743 l 79.4461,-0.10888 14.90866,-18.99813 c 63.07644,-80.37851 114.03396,-129.45515 167.44489,-161.26437 75.88461,-45.19358 159.60971,-68.40297 255.48431,-70.82268 81.1918,-2.04914 115.3948,6.76959 126.8702,32.7115 8.9663,20.26983 13.3869,55.40584 13.3869,106.4025 0,20.24393 -0.7965,44.72985 -1.7699,54.41317 -9.4819,94.32368 -42.6365,180.355 -96.8716,251.36778 -18.553,24.29232 -42.4325,50.41819 -97.8001,107.00011 -30.5951,31.26618 -61.157,63.49122 -67.9153,71.61118 -46.0712,55.35413 -78.7558,122.60078 -93.55823,192.49058 -8.81685,41.629 -9.1857,47.1313 -10.9651,163.5751 -0.92877,60.778 -2.4615,118.921 -3.40608,129.2065 -6.07761,66.1793 -43.47361,134.1878 -99.38926,180.7496 -8.46945,7.0526 -21.13679,16.5885 -28.14964,21.1908 -29.07577,19.0814 -76.96524,38.2591 -111.35562,44.5931 -21.64338,3.9862 -79.96026,4.94 -100.25842,1.6396 z M 1148.1091,602.77757 c 5.4459,-2.10986 14.5861,-7.39381 20.3116,-11.74213 38.5291,-29.26171 42.451,-87.63075 8.2374,-122.59614 -15.4564,-15.79602 -34.7188,-23.82654 -57.1517,-23.82654 -22.6285,0 -40.3447,7.22161 -56.3081,22.95263 -16.4444,16.20516 -24.4249,35.1093 -24.3842,57.76109 0.041,22.85156 7.533,41.70021 22.7836,57.32044 10.8294,11.09189 20.7375,17.37376 34.6136,21.94549 13.4288,4.42434 38.0122,3.56467 51.8978,-1.81484 z"
       id="path2" />
    <path
       style="fill:#2563eb;fill-opacity:1;stroke-width:1.70009"
       d="m 645.22915,1638.8486 c -114.5201,-18.661 -205.13898,-94.2815 -239.54241,-199.8958 -9.88123,-30.3341 -12.12939,-46.8332 -12.02281,-88.2347 0.10584,-41.1114 1.96608,-54.2644 12.14247,-85.8543 17.48467,-54.2766 48.81349,-100.0525 93.00573,-135.8948 35.26871,-28.6049 72.18394,-46.7017 120.42361,-59.0348 20.09032,-5.1363 22.41908,-5.3567 64.19871,-6.076 41.44759,-0.7135 44.29831,-0.554 64.88802,3.6312 27.6754,5.6255 54.20813,14.4582 76.42252,25.4411 l 17.64747,8.725 0.3792,75.6538 0.37921,75.6539 -5.45012,-6.8004 c -30.50008,-38.0562 -68.25193,-61.4123 -112.83113,-69.8058 -20.73926,-3.9048 -64.13866,-2.6378 -81.38719,2.3761 -52.89238,15.3748 -94.52391,49.5392 -117.38572,96.3312 -14.17928,29.0211 -16.92105,41.555 -16.92105,77.3539 0,25.78 0.52295,31.6653 3.91759,44.0886 8.5576,31.318 23.26695,55.1202 50.15287,81.1557 19.07633,18.473 30.75391,26.8524 49.47697,35.503 48.42924,22.3756 106.73833,22.7094 153.32631,0.8775 20.45004,-9.5832 36.05156,-20.4272 51.71897,-35.9479 29.12272,-28.8501 43.23217,-55.0234 52.62765,-97.6255 3.25668,-14.7668 3.37536,-22.1237 3.40103,-210.8106 0.0257,-188.8773 -0.53127,-223.56131 -3.5901,-223.56131 -0.78818,0 -27.96707,9.18046 -60.39755,20.40102 -55.36137,19.15438 -59.75152,20.39875 -71.84368,20.3637 -8.96801,-0.026 -14.94432,-1.00405 -19.67952,-3.22064 -10.89442,-5.09978 -82.40952,-79.24693 -87.72758,-90.9563 -1.85673,-4.08817 -3.16767,-10.8966 -3.18967,-16.56567 -0.0402,-10.37248 2.73274,-17.78661 21.0479,-56.27605 5.23397,-10.99923 9.51631,-20.32429 9.51631,-20.72236 0,-0.39808 -53.74396,-1.01086 -119.43102,-1.36174 -97.85809,-0.52271 -120.6543,-1.07561 -126.20327,-3.06087 -14.70539,-5.2612 -26.2604,-24.34318 -23.95097,-39.55271 1.76255,-11.60788 8.44036,-21.59663 50.22713,-75.13041 92.94834,-119.07779 95.85402,-122.25774 124.00097,-135.70555 16.98216,-8.11357 18.49605,-8.50968 37.40189,-9.78568 10.83684,-0.73139 55.45409,-1.37882 99.14945,-1.43869 l 79.4461,-0.10888 14.90866,-18.99813 c 87.00545,-110.87132 145.92983,-159.17368 240.17,-196.87575 53.9194,-21.57121 115.9669,-33.52558 182.7592,-35.2113 81.3811,-2.05391 115.3681,6.70911 126.8702,32.7115 8.9663,20.26983 13.3869,55.40584 13.3869,106.4025 0,20.24393 -0.7965,44.72985 -1.7699,54.41317 -9.4479,93.98529 -42.7814,180.3404 -97.2263,251.87862 -18.1634,23.86601 -40.9313,48.77657 -97.4256,106.59456 -61.2682,62.70377 -75.915,79.33736 -94.7738,107.62909 -30.639,45.96434 -49.6959,88.34298 -62.453,138.88338 -12.79041,50.6719 -14.47194,72.6731 -16.11212,210.8106 -0.58287,49.09 -1.81062,95.7573 -2.72833,103.7052 -8.83946,76.5556 -58.01592,152.4243 -128.67389,198.5162 -28.26969,18.441 -74.47929,36.967 -109.16784,43.7667 -20.48282,4.015 -80.5658,4.9928 -101.10847,1.6454 z M 1148.1091,602.71213 c 54.0832,-20.59541 69.3979,-93.25915 28.3061,-134.30495 -36.5586,-36.51768 -96.5662,-30.46828 -124.3619,12.53698 -21.2533,32.88302 -16.9311,74.87038 10.5418,102.40475 18.2072,18.24802 34.946,24.84753 60.3115,23.77864 10.3907,-0.43786 18.4783,-1.85478 25.2025,-4.41542 z"
       id="path3" />
    <path
       style="fill:#2563eb;fill-opacity:1;stroke-width:1.70009"
       d="m 1022.3781,1641.8317 c -2.2387,-1.4537 -46.52891,-121.492 -46.52891,-126.1059 0,-1.7051 4.52565,-12.5617 10.057,-24.1259 23.19171,-48.4859 30.48661,-86.3251 30.92921,-160.4328 0.1173,-19.636 0.6976,-40.6483 1.2896,-46.694 l 1.0764,-10.9922 29.531,90.0462 c 33.8618,103.2514 35.7929,108.7261 37.6639,106.7806 0.7583,-0.7885 25.2104,-86.7242 54.338,-190.9683 29.1276,-104.244 53.3522,-189.9283 53.8324,-190.4096 0.4803,-0.4812 26.2238,-0.875 57.2078,-0.875 h 56.3345 l 53.825,188.917 c 29.6037,103.9043 54.6289,190.3536 55.6117,192.1097 2.3557,4.2094 -1.3985,14.9476 48.2161,-137.9144 23.3686,-71.9986 50.6898,-156.1529 60.7136,-187.0094 l 18.2252,-56.1029 63.4075,0.3074 c 34.8741,0.1691 63.8033,0.7031 64.287,1.1868 0.4837,0.4838 -28.5937,85.6472 -64.6164,189.2522 -36.0227,103.605 -79.1439,227.9625 -95.8249,276.35 l -30.3291,87.9772 -66.3034,-0.016 -66.3033,-0.016 -48.0914,-173.738 c -26.4502,-95.5559 -48.4451,-174.0917 -48.8774,-174.5241 -0.4324,-0.4323 -1.1702,-0.4019 -1.6397,0.068 -0.4695,0.4694 -22.4491,78.5705 -48.8436,173.5577 l -47.9899,172.7042 -4.9217,0.9844 c -7.2217,1.4443 -124.0152,1.1514 -126.2762,-0.3168 z"
       id="path4" />
    <path
       style="fill:#005cfa;fill-opacity:1;stroke-width:1.70009"
       d="m 645.22915,1638.8531 c -99.23368,-16.1993 -179.66672,-73.8997 -222.72761,-159.7785 -12.52482,-24.979 -21.08761,-49.851 -25.75305,-74.8038 -4.74247,-25.3648 -4.33483,-85.0207 0.74348,-108.8055 5.44765,-25.5146 12.95518,-46.8488 25.12703,-71.4036 14.21972,-28.6861 29.41966,-49.8626 52.55495,-73.2197 40.34052,-40.7271 83.07171,-64.8965 141.95716,-80.2931 22.80636,-5.9631 23.22464,-6.0055 66.30334,-6.719 41.3922,-0.6855 44.32584,-0.5201 64.88802,3.6595 27.71092,5.6327 55.64594,14.9319 77.06616,25.6544 l 17.00383,8.5117 0.40306,75.6538 0.40303,75.6539 -6.20313,-7.6504 c -11.13488,-13.7328 -31.76488,-32.9876 -43.9101,-40.9832 -32.39779,-21.3284 -62.86171,-30.4204 -101.92735,-30.4204 -48.76958,0 -86.23464,14.0316 -123.80293,46.3675 -23.37277,20.1174 -46.27832,57.3543 -54.09413,87.9392 -4.51686,17.6754 -6.21556,53.0231 -3.4136,71.0325 3.02245,19.4266 11.19007,42.4415 20.96184,59.0669 11.51446,19.5903 43.58238,52.5008 62.52076,64.1634 72.35632,44.5584 165.43542,34.3699 224.36433,-24.559 27.80776,-27.8077 41.46324,-51.994 51.5387,-91.284 l 3.76106,-14.6665 v -211.9445 c 0,-116.5695 -0.55802,-212.50231 -1.24002,-213.18408 -0.68203,-0.68176 -28.22342,8.06655 -61.20309,19.4407 -56.26507,19.40492 -60.7494,20.67607 -72.7137,20.61201 -8.78893,-0.0471 -14.86356,-1.05743 -19.55099,-3.25187 -4.06585,-1.90345 -16.41482,-12.99729 -30.71039,-27.58906 -58.44922,-59.66022 -61.14197,-63.38728 -59.86409,-82.85849 0.64507,-9.8287 2.60132,-15.19283 15.47991,-42.44644 8.10785,-17.15778 14.74153,-31.45558 14.74153,-31.7729 0,-0.31733 -53.74396,-0.86331 -119.43102,-1.2133 -89.55353,-0.47715 -121.05305,-1.16852 -125.91486,-2.7637 -14.32129,-4.69881 -26.63497,-24.80054 -24.26622,-39.6139 1.91823,-11.99594 8.44223,-21.81171 49.55517,-74.55882 91.92439,-117.93724 96.39285,-122.83974 124.35584,-136.43521 16.90418,-8.21872 18.1474,-8.5455 37.46675,-9.84792 10.99034,-0.74091 55.67224,-1.39611 99.29313,-1.45598 l 79.31073,-0.10888 22.04431,-27.62639 c 63.01171,-78.9676 108.07909,-121.4967 163.50195,-154.2932 74.31386,-43.97524 157.54086,-66.76741 252.56236,-69.16559 81.3811,-2.05391 115.3681,6.70911 126.8702,32.7115 16.0099,36.19314 18.3726,138.37277 4.8136,208.17317 -14.86,76.49757 -45.1903,145.01517 -90.6844,204.86033 -18.2708,24.0344 -38.6649,46.37262 -95.4555,104.55527 -61.2321,62.73294 -76.229,79.74835 -95.8979,108.80548 -37.0851,54.78618 -60.0134,112.35907 -71.59495,179.77487 -4.56699,26.5843 -6.26736,65.2443 -7.53389,171.2928 -0.58068,48.6225 -1.82134,94.9073 -2.757,102.8552 -9.06798,77.0278 -57.88219,152.3422 -128.666,198.5162 -27.96383,18.2415 -70.35188,35.4777 -105.87466,43.0516 -21.81354,4.651 -82.04059,6.0153 -104.40165,2.365 z M 1147.971,602.7119 c 20.7494,-7.79326 38.4579,-26.08826 47.3648,-48.93357 5.5041,-14.11741 5.5318,-41.36351 0.056,-55.20362 -9.0418,-22.85374 -26.369,-40.80401 -47.421,-49.12615 -13.976,-5.52491 -42.8568,-5.56501 -56.7186,-0.0788 -29.4643,11.66138 -49.6728,38.64784 -52.0388,69.49251 -1.9616,25.57369 5.606,45.80934 24.1018,64.4478 12.6982,12.79617 20.8643,17.86654 35.3661,21.95902 12.4148,3.5035 36.4766,2.25513 49.2895,-2.55723 z"
       id="path5" />
    <path
       style="fill:#005cfa;fill-opacity:1;stroke-width:1.70009"
       d="m 1022.366,1641.8317 c -2.2379,-1.444 -46.51681,-121.4205 -46.51681,-126.0401 0,-1.6926 4.51313,-12.559 10.02918,-24.1475 23.23013,-48.8035 30.46023,-86.497 30.94463,-161.327 0.1241,-19.1685 0.71,-39.8041 1.302,-45.8568 l 1.0764,-11.005 29.537,90.059 c 33.7533,102.9147 35.8066,108.7506 37.5733,106.7934 0.7117,-0.7885 4.4119,-12.5267 8.2226,-26.0849 3.8107,-13.5582 27.6819,-98.8501 53.047,-189.5376 25.3651,-90.6876 46.5099,-165.2788 46.9885,-165.7584 0.4786,-0.4796 26.2327,-0.872 57.2314,-0.872 h 56.3612 l 51.1318,179.3591 c 59.3796,208.2904 58.3776,204.9139 60.2307,202.9585 1.5213,-1.6053 28.6207,-84.084 87.6083,-266.6413 20.2302,-62.6095 37.1565,-114.4408 37.6138,-115.1808 1.0079,-1.6309 60.7664,-1.7685 99.7801,-0.2298 l 28.2887,1.1156 -1.1049,4.4097 c -0.6077,2.4252 -28.7786,83.9736 -62.6021,181.2185 -33.8234,97.2449 -76.3378,219.8423 -94.4764,272.4387 l -32.9793,95.6298 -66.3176,-0.019 -66.3175,-0.019 -32.1031,-116.0116 c -55.5684,-200.8091 -64.5081,-232.4674 -65.6442,-232.4674 -1.2469,0 -11.3836,35.6701 -62.1621,218.7429 l -35.4444,127.7883 -4.9658,0.9932 c -7.252,1.4504 -124.0487,1.1657 -126.3324,-0.308 z"
       id="path6" />
    <path
       style="fill:#005cfa;fill-opacity:1;stroke-width:1.70009"
       d="m 1046.8278,1641.9586 c -13.792,-0.3392 -25.0763,-0.8698 -25.0763,-1.179 0,-0.3093 -5.0266,-13.8683 -11.1702,-30.1311 -20.99141,-55.5666 -33.03203,-89.9974 -33.03203,-94.457 0,-2.4515 4.49574,-14.4834 9.99054,-26.7375 23.09169,-51.4972 27.91309,-77.6905 30.15269,-163.8122 0.6383,-24.545 1.6215,-44.6259 2.1848,-44.6243 0.5633,0 15.1774,42.6524 32.4757,94.7797 17.2984,52.1273 32.2167,94.6716 33.1517,94.5428 2.327,-0.3205 5.4324,-10.6614 35.8264,-119.3006 36.8406,-131.6821 66.5542,-237.0576 70.6865,-250.6816 l 3.4876,-11.4983 56.1664,0.4477 56.1665,0.4477 53.2112,186.1594 c 29.2662,102.3877 54.3321,188.4545 55.702,191.2597 l 2.4907,5.1002 2.5593,-5.9503 c 2.1049,-4.8939 114.2303,-347.4886 121.019,-369.7686 l 2.0721,-6.8004 16.8186,-1.1244 c 19.5161,-1.3048 106.9637,0.5983 108.7317,2.3663 0.6568,0.6568 -1.6474,9.444 -5.1205,19.5271 -8.4025,24.3943 -43.5486,125.8867 -120.5618,348.1496 l -63.6199,183.6093 -65.6819,0.445 c -51.6852,0.3502 -65.8302,-0.012 -66.3779,-1.7001 -0.3828,-1.1798 -20.6082,-74.0587 -44.9454,-161.9531 -48.7268,-175.9786 -51.1591,-184.4593 -52.9034,-184.4593 -0.6625,0 -3.9934,9.4856 -7.402,21.0792 -6.5371,22.234 -63.5911,226.7315 -80.2077,287.4863 -5.3705,19.636 -10.2257,36.2018 -10.7893,36.8129 -1.3197,1.4307 -73.401,2.7668 -106.0051,1.9649 z"
       id="path7" />
    <path
       style="fill:#005cfa;fill-opacity:1;stroke-width:1.70009"
       d="m 640.08226,1637.364 c -85.68129,-16.3713 -153.82592,-60.3238 -199.40534,-128.6142 -18.76995,-28.1225 -35.29494,-67.2542 -42.3258,-100.2288 -4.47862,-21.0046 -4.46997,-92.9705 0.0137,-113.9057 7.40848,-34.5921 26.79981,-78.8521 47.29773,-107.9555 13.94162,-19.7946 48.94039,-54.6729 69.48371,-69.2445 21.40709,-15.1843 51.72743,-30.132 79.88375,-39.3821 35.18307,-11.5585 44.74396,-12.8827 94.04334,-13.0248 37.08878,-0.107 45.08681,0.3492 59.81442,3.4112 24.84932,5.1664 48.2413,12.7879 71.82862,23.403 l 20.82605,9.3725 0.0641,61.4333 c 0.0353,33.7883 0.48408,67.3662 0.9974,74.6175 l 0.93332,13.1843 -20.12337,-20.0297 c -21.39052,-21.2909 -30.66678,-28.2146 -52.42502,-39.1297 -27.47485,-13.7827 -50.65567,-18.2068 -88.91426,-16.9691 -29.61662,0.9581 -46.1316,4.6866 -69.40216,15.6686 -39.97267,18.8642 -68.11477,47.0425 -88.29246,88.4061 -12.33692,25.2903 -14.47965,34.9489 -15.48294,69.7916 -0.77468,26.9034 -0.53532,30.0506 3.46227,45.5237 8.68588,33.6198 24.26963,58.7992 53.92903,87.1357 17.58819,16.8038 26.27427,22.8573 46.28958,32.2602 82.15003,38.5932 179.44753,11.3285 230.58502,-64.6146 11.18808,-16.6151 18.02159,-31.9444 24.91979,-55.9013 l 5.93231,-20.6025 -0.51052,-211.9447 c -0.28079,-116.5695 -1.06918,-212.50299 -1.75199,-213.18546 -0.6828,-0.68246 -28.13256,7.74496 -60.99946,18.7276 -85.07324,28.4277 -82.61176,28.56092 -118.41291,-6.40901 -30.79219,-30.07727 -55.6191,-57.35512 -59.97778,-65.89883 -4.0982,-8.03314 -4.42169,-23.53964 -0.71088,-34.07675 1.44088,-4.09151 8.02456,-19.15262 14.63038,-33.46911 6.60584,-14.31651 11.72675,-26.31385 11.37981,-26.66078 -0.34692,-0.34692 -55.50076,-1.29601 -122.56407,-2.10906 l -121.9333,-1.47828 -7.17339,-5.04165 c -15.42098,-10.83827 -20.82215,-31.52226 -12.37826,-47.40301 10.93991,-20.57517 113.83406,-151.67968 137.65426,-175.39477 17.37307,-17.29641 38.92008,-28.9148 57.87612,-31.20747 6.51048,-0.78743 52.00428,-1.97585 101.09732,-2.64094 l 89.26009,-1.20928 17.8453,-22.27576 c 78.04594,-97.42241 130.37657,-143.11119 204.65453,-178.67963 46.0093,-22.03182 95.8726,-36.46794 154.058,-44.6019 31.807,-4.44643 124.3672,-4.41297 143.6572,0.0519 16.4264,3.80206 31.9832,11.69763 37.6267,19.09673 22.0447,28.90205 25.2669,147.55525 6.3443,233.61813 -8.9192,40.56584 -28.379,91.98747 -48.5429,128.27262 -29.2105,52.56466 -45.6169,72.41539 -145.675,176.25761 -52.3818,54.36292 -66.8504,71.17908 -86.1171,100.09016 -31.298,46.96492 -51.6306,94.67554 -64.48219,151.30764 -8.13933,35.8671 -10.4167,65.3082 -11.90135,153.8578 -2.42437,144.5984 -3.04922,154.3652 -11.80993,184.5966 -12.63363,43.596 -36.9709,83.6225 -72.32122,118.9438 -21.0058,20.9885 -35.14686,32.2488 -56.30545,44.8348 -24.9025,14.8131 -66.0646,31.0568 -95.09348,37.5265 -17.49352,3.8988 -94.05645,5.2046 -111.35561,1.8993 z M 1137.1533,606.11924 c 28.6498,-5.43332 55.7754,-33.24594 61.4119,-62.96731 5.5342,-29.1814 -2.5768,-55.29673 -23.7115,-76.345 -18.9638,-18.88624 -44.3427,-25.97891 -73.3911,-20.51066 -27.5965,5.19493 -52.6297,29.4228 -60.3469,58.40543 -5.1089,19.18686 -2.0394,44.15515 7.4469,60.57679 5.5571,9.61972 19.3428,24.32042 29.1369,31.0708 14.7958,10.19771 37.5134,13.93086 59.4538,9.76995 z"
       id="path8" />
    <path
       style="fill:#005cfa;fill-opacity:1;stroke-width:1.70009"
       d="m 1041.0598,1641.9886 -18.9436,-0.6638 -8.8967,-23.3222 c -18.80207,-49.2885 -35.67023,-97.3562 -35.67023,-101.6463 0,-2.4622 4.28433,-14.153 9.52073,-25.9795 23.3813,-52.8072 28.1801,-79.0741 30.5618,-167.2851 0.6249,-23.1424 1.6312,-42.0771 2.2362,-42.0771 0.6051,0 14.241,39.5907 30.3021,87.9794 30.6796,92.4311 33.6431,100.7301 35.9706,100.7301 1.7368,0 -1.3127,10.467 44.5779,-153.0077 36.7701,-130.9851 54.4551,-193.5024 61.204,-216.3588 l 3.3952,-11.4984 56.3869,0.4479 56.387,0.4478 50.2764,175.9589 c 56.477,197.6594 59.1901,206.7392 61.1519,204.6526 2.0299,-2.1591 23.761,-67.8864 90.9899,-275.2062 11.8253,-36.4668 24.3776,-75.1012 27.8939,-85.8543 l 6.3933,-19.551 15.1662,-1.063 c 16.3428,-1.1454 92.0324,-0.2298 104.148,1.26 6.9499,0.8545 7.3135,1.1631 6.2699,5.3212 -0.8522,3.3956 -161.1264,466.9518 -184.4257,533.409 l -4.7683,13.6007 h -65.902 -65.902 l -35.3779,-127.5065 c -54.0397,-194.7655 -61.3271,-220.1856 -62.8527,-219.2427 -0.7763,0.4798 -3.3169,7.1635 -5.6456,14.8527 -4.1579,13.7285 -52.6355,187.2792 -78.4617,280.8939 -7.2228,26.1813 -13.606,48.1294 -14.1848,48.7736 -1.2705,1.4138 -85.2121,2.8665 -111.8007,1.9348 z"
       id="path9" />
    <path
       style="fill:#005cfa;fill-opacity:1;stroke-width:1.70009"
       d="m 638.38218,1637.1005 c -112.61152,-21.0235 -201.4615,-98.7136 -233.56704,-204.2302 -9.00918,-29.6091 -9.54522,-34.1271 -9.54522,-80.4521 0,-47.268 1.18667,-56.5804 11.15175,-87.5137 5.87875,-18.2487 23.93918,-55.8773 34.03684,-70.9152 18.20195,-27.1073 47.11425,-56.6046 75.68954,-77.221 30.47452,-21.9867 83.61547,-43.9452 121.18063,-50.0734 5.25466,-0.8572 28.67989,-1.6306 52.05607,-1.7185 37.04837,-0.1394 44.75445,0.3023 60.05473,3.4419 22.9238,4.7039 52.92839,14.6571 74.67706,24.772 l 17.42588,8.1045 0.0349,49.4828 c 0.0192,27.2156 0.51298,60.867 1.09735,74.781 l 1.06245,25.2981 -19.37326,-19.418 c -21.01549,-21.0641 -35.78017,-31.7856 -58.31443,-42.3455 -21.39721,-10.027 -36.99128,-13.5611 -64.76405,-14.6775 -49.87627,-2.0047 -85.94381,8.6581 -122.59713,36.2442 -30.33314,22.8294 -56.30381,61.7457 -66.46351,99.5936 -4.37712,16.306 -4.25218,69.5226 0.19877,84.6668 8.91773,30.3422 21.77356,52.4961 44.26014,76.2715 25.17883,26.622 51.02629,42.7627 83.39864,52.0792 80.38869,23.1352 166.52737,-11.7293 208.64691,-84.4493 9.01416,-15.5631 14.33414,-28.807 20.95711,-52.1718 l 4.5129,-15.9209 -0.60258,-211.3241 c -0.33143,-116.2282 -1.1054,-211.82678 -1.71993,-212.44124 -0.61453,-0.61446 -27.7734,7.66261 -60.35304,18.3935 -32.57964,10.73087 -62.89023,20.01783 -67.35689,20.63766 -4.46663,0.61985 -12.49954,0.23565 -17.8509,-0.85375 -9.6711,-1.9688 -9.94558,-2.19734 -45.56299,-37.93794 -19.70828,-19.77646 -39.21676,-40.48776 -43.35218,-46.02509 l -7.51892,-10.06789 0.0132,-15.4334 0.0132,-15.43339 14.11217,-30.36017 c 7.76169,-16.69808 13.87605,-30.58766 13.58744,-30.86573 -0.28861,-0.27807 -48.72216,-0.97752 -107.63013,-1.5543 -128.04021,-1.25372 -136.53319,-1.64812 -144.01138,-6.68768 -11.35544,-7.65243 -18.55267,-25.2448 -15.96688,-39.02826 1.94527,-10.36918 28.51549,-46.668 96.04817,-131.21594 40.73074,-50.99309 54.2051,-64.40715 74.98065,-74.64519 10.58449,-5.21596 19.82754,-8.47664 26.81895,-9.46098 5.86747,-0.82607 51.38727,-2.05814 101.1551,-2.7379 l 90.48696,-1.23596 13.60068,-17.10655 c 42.51478,-53.47387 83.28406,-97.45701 114.75579,-123.802 71.86517,-60.15837 167.2047,-97.90696 269.4635,-106.69092 30.9703,-2.66032 93.8092,-2.23407 113.7507,0.77159 27.4536,4.13791 43.6783,13.23807 50.9292,28.56531 18.3712,38.83354 18.9103,153.34225 1.075,228.33025 -16.2648,68.38505 -44.1764,128.6739 -84.0648,181.58005 -18.7498,24.86879 -34.8925,42.77224 -93.7339,103.95817 -66.7716,69.43215 -79.6447,83.93153 -98.0079,110.39015 -28.9541,41.71844 -52.0976,92.9065 -65.1393,144.0731 -10.93343,42.8953 -13.63883,75.3492 -15.27127,183.1934 -2.22422,146.9407 -4.22016,161.536 -28.94503,211.6607 -28.53426,57.8474 -78.02402,106.4359 -136.10388,133.6252 -20.13558,9.4262 -51.08373,20.1911 -70.36021,24.4738 -18.43159,4.0951 -94.00963,5.1827 -113.05569,1.627 z M 1136.6201,605.93273 c 38.249,-7.00662 66.7096,-47.17924 63.012,-88.94228 -2.91,-32.86732 -31.361,-64.51307 -63.6623,-70.81103 -66.9596,-13.05545 -118.6678,55.20247 -88.4846,116.80498 5.3725,10.96517 25.6431,31.35174 36.7375,36.94779 15.4108,7.77325 32.2149,9.69764 52.3974,6.00054 z"
       id="path10" />
    <path
       style="fill:#005cfa;fill-opacity:1;stroke-width:1.70009"
       d="m 1035.9283,1641.8704 -13.8745,-0.5703 -7.0734,-18.2096 c -14.5653,-37.4967 -36.13547,-98.3297 -36.95709,-104.228 -0.67974,-4.8797 1.22274,-10.8872 9.42187,-29.7515 23.13642,-53.2315 27.62882,-78.2224 30.14942,-167.7194 0.6255,-22.2074 1.6254,-40.3751 2.222,-40.3727 0.5967,0 15.1377,42.0905 32.3135,93.5292 17.1757,51.4388 31.8643,93.9179 32.6413,94.3981 2.9155,1.8018 -1.4439,16.6015 67.877,-230.4338 18.7605,-66.8558 36.0282,-127.8779 38.3726,-135.6047 l 4.2625,-14.0485 56.3907,0.4479 56.3908,0.4478 50.3914,175.9589 c 58.4683,204.162 59.2032,206.6243 61.0827,204.654 1.4575,-1.528 36.1187,-106.5508 93.0723,-282.0079 l 32.0073,-98.605 16.5378,-1.4244 c 17.5813,-1.5144 107.2403,0.6182 109.2185,2.5977 1.3638,1.3648 -5.3241,21.4491 -51.6911,155.2346 -18.7958,54.2327 -57.3768,165.5459 -85.7354,247.3625 l -51.5611,148.7575 h -66.0642 -66.0642 l -37.0345,-133.4568 c -41.7117,-150.3115 -58.9134,-211.0294 -60.1308,-212.2467 -0.4568,-0.4569 -1.2642,-0.3971 -1.7942,0.1329 -1.0402,1.0403 -8.5836,26.8663 -24.7123,84.6074 -7.6729,27.4691 -62.9427,225.6239 -71.1288,255.0129 -1.1635,4.1772 -1.5612,4.2688 -23.1682,5.3314 -22.6049,1.1118 -70.7993,1.2162 -95.3619,0.2065 z"
       id="path11" />
  </g>
</svg>
