<?xml version="1.0" encoding="UTF-8" standalone="no"?>
<!-- Created with Inkscape (http://www.inkscape.org/) -->

<svg
   version="1.1"
   id="svg1"
   width="1874.8303"
   height="1961.9987"
   viewBox="0 0 1874.8303 1961.9987"
   sodipodi:docname="logo.svg"
   inkscape:version="1.4.2 (f4327f4, 2025-05-13)"
   xmlns:inkscape="http://www.inkscape.org/namespaces/inkscape"
   xmlns:sodipodi="http://sodipodi.sourceforge.net/DTD/sodipodi-0.dtd"
   xmlns="http://www.w3.org/2000/svg"
   xmlns:svg="http://www.w3.org/2000/svg">
  <sodipodi:namedview
     id="namedview1"
     pagecolor="#ffffff"
     bordercolor="#000000"
     borderopacity="0.25"
     inkscape:showpageshadow="2"
     inkscape:pageopacity="0.0"
     inkscape:pagecheckerboard="0"
     inkscape:deskcolor="#d1d1d1"
     inkscape:zoom="0.29740082"
     inkscape:cx="946.53406"
     inkscape:cy="546.40065"
     inkscape:window-width="2560"
     inkscape:window-height="1369"
     inkscape:window-x="-8"
     inkscape:window-y="-8"
     inkscape:window-maximized="1"
     inkscape:current-layer="g1" />
  <defs
     id="defs1" />
  <g
     id="g1"
     transform="matrix(0.68675954,0,0,0.69461713,206.17011,285.57322)">
    <rect
       style="fill:#020618;fill-opacity:1;stroke-width:1.43574"
       id="rect2"
       width="2781.0032"
       height="2856.0405"
       x="-339.37619"
       y="-415.96396" />
    <path
       style="fill:#3880e4;fill-opacity:1"
       d="m 1037.0186,1985.75 c -0.6542,-1.7875 -2.4646,-6.85 -4.023,-11.25 -1.5584,-4.4 -5.5939,-15.2 -8.9677,-24 -3.3738,-8.8 -7.4132,-19.6 -8.9764,-24 -1.5633,-4.4 -6.0831,-16.55 -10.044,-27 -3.9609,-10.45 -8.43123,-22.375 -9.93413,-26.5 -1.5028,-4.125 -4.5871,-12.45 -6.8539,-18.5 -11.434,-30.5167 -17.3291,-46.8601 -17.8599,-49.5145 -0.4627,-2.3133 0.4172,-4.6959 4.1406,-11.2115 11.3606,-19.8805 15.5968,-28.1862 21.8165,-42.774 16.20813,-38.0151 25.94163,-75.3278 32.34703,-124 2.6856,-20.4069 2.7005,-20.8678 3.2733,-101.5 l 0.5755,-81 19.32,58.5 c 21.6201,65.4647 20.8998,63.327 22.7972,67.6511 0.7606,1.7332 1.3828,3.6441 1.3828,4.2465 0,0.6024 4.7836,15.6094 10.6303,33.3489 17.4127,52.8319 43.1083,130.0334 44.3518,133.2535 1.8228,4.72 0.5566,8.5837 18.5148,-56.5 4.0557,-14.6983 11.02,-39.3142 18.9558,-67 9.1371,-31.8767 22.2568,-78.1864 24.9307,-88 0.8242,-3.025 2.6669,-9.325 4.0948,-14 1.428,-4.675 3.8895,-13.45 5.47,-19.5 1.5806,-6.05 6.1061,-22.25 10.0567,-36 9.0701,-31.5682 13.9421,-48.798 19.5111,-69 2.4258,-8.8 4.9003,-17.575 5.4988,-19.5 0.5985,-1.925 2.4131,-8.225 4.0325,-14 4.923,-17.5561 5.1362,-18.2999 7.0232,-24.5 1.0043,-3.3 3.6052,-12.525 5.7797,-20.5 4.7367,-17.372 7.6658,-27.7977 14.3105,-50.9353 2.7539,-9.5895 6.2699,-22.1895 7.8133,-28 2.2435,-8.4461 9.9887,-35.6235 12.6291,-44.3147 0.5008,-1.6484 5.366,-1.75 83.7997,-1.75 h 83.2681 l 1.524,5.25 c 0.8383,2.8875 3.8483,13.575 6.6889,23.75 2.8407,10.175 6.0697,21.425 7.1755,25 1.1059,3.575 6.005,20.45 10.8869,37.5 4.882,17.05 11.4424,39.775 14.5788,50.5 3.1364,10.725 7.2478,25.125 9.1366,32 3.4088,12.4081 8.393,29.6962 16.8658,58.5 2.4268,8.25 7.1445,24.45 10.4837,36 3.3392,11.55 7.6752,26.4 9.6354,33 1.9602,6.6 4.6564,16.05 5.9915,21 1.3351,4.95 4.3965,15.75 6.8032,24 8.0277,27.5188 12.4575,42.8787 16.4387,57 2.1709,7.7 6.9456,24.35 10.6105,37 3.6649,12.65 8.192,28.4 10.0602,35 1.8682,6.6 5.934,20.55 9.0351,31 3.1011,10.45 7.5004,25.4909 9.7763,33.4242 2.2759,7.9334 4.6068,14.5771 5.1798,14.764 0.5736,0.187 4.5682,-10.5663 8.8874,-23.9243 4.3151,-13.3451 11.5675,-35.5139 16.1166,-49.2639 4.5491,-13.75 14.2192,-43.225 21.4891,-65.5 7.2699,-22.275 15.594,-47.7 18.498,-56.5 2.9039,-8.8 9.1007,-27.7 13.7706,-42 4.6699,-14.3 15.4551,-47.15 23.9671,-73 8.512,-25.85 22.3142,-67.925 30.6717,-93.5 16.6342,-50.9034 37.4397,-114.3921 44.8134,-136.75 l 4.6997,-14.25 h 94.7723 c 105.2677,0 96.3786,-0.6471 93.1632,6.7821 -0.885,2.0449 -4.4269,11.8179 -7.8708,21.7179 -3.4438,9.9 -11.6694,33.3 -18.2791,52 -6.6096,18.7 -12.3448,35.125 -12.7448,36.5 -0.7624,2.6203 -7.3402,21.1732 -18.2592,51.5 -3.5645,9.9 -9.3761,26.325 -12.9148,36.5 -11.1822,32.1526 -16.1478,46.2476 -19.3762,55 -3.2563,8.8278 -11.621,32.5434 -22.397,63.5 -11.449,32.89 -32.5627,92.9198 -34.6445,98.5 -1.1285,3.025 -4.681,13.15 -7.8944,22.5 -3.2133,9.35 -7.055,20.375 -8.537,24.5 -4.2882,11.9354 -16.1622,45.9836 -22.4937,64.5 -3.1971,9.35 -11.0714,31.85 -17.4984,50 -6.4269,18.15 -13.3654,37.95 -15.4187,44 -2.0534,6.05 -7.5884,22.025 -12.3,35.5 -4.7115,13.475 -13.5683,38.9 -19.6817,56.5 -6.1134,17.6 -13.0753,37.4 -15.4709,44 -2.3956,6.6 -6.2508,17.7397 -8.5671,24.7549 l -4.2115,12.755 -97.1636,-0.255 -97.1636,-0.2549 -4.1394,-14.5 c -2.2767,-7.975 -7.5989,-26.875 -11.8272,-42 -4.2283,-15.125 -8.5406,-30.2 -9.5829,-33.5 -1.0424,-3.3 -2.9818,-10.275 -4.3098,-15.5 -1.3281,-5.225 -4.0052,-14.9 -5.9492,-21.5 -3.3874,-11.5003 -9.0415,-31.7309 -12.7166,-45.5 -0.9542,-3.575 -3.4256,-12.125 -5.492,-19 -2.0664,-6.875 -4.9955,-17.225 -6.509,-23 -1.5136,-5.775 -4.5756,-16.8 -6.8046,-24.5 -2.2289,-7.7 -5.2206,-18.5 -6.6482,-24 -1.4276,-5.5 -3.447,-12.7 -4.4876,-16 -1.0406,-3.3 -4.3803,-15 -7.4216,-26 -3.0413,-11 -7.3789,-26.525 -9.6391,-34.5 -2.2601,-7.975 -5.6129,-20.125 -7.4507,-27 -1.8377,-6.875 -4.3258,-15.875 -5.5291,-20 -2.8713,-9.8432 -8.6996,-30.7268 -15.4891,-55.5 -8.4615,-30.8736 -15.237,-54.7035 -16.4664,-57.9128 -1.4129,-3.6887 -2.4712,-2.6162 -4.3543,4.4128 -1.903,7.1035 -10.8064,38.2114 -15.1691,53 -1.866,6.325 -6.1546,21.625 -9.5304,34 -3.3757,12.375 -7.4834,26.9402 -9.1281,32.367 -1.6447,5.4269 -4.725,16.4519 -6.8451,24.5 -4.0536,15.3885 -9.664,35.5508 -15.4805,55.633 -4.2297,14.6039 -7.2806,25.3439 -9.0901,32 -8.9795,33.03 -19.3358,70.2478 -22.9566,82.5 -4.086,13.8262 -11.338,39.7366 -14.974,53.5 -1.453,5.5 -3.5051,12.7 -4.5601,16 -1.0551,3.3 -4.1241,14.1 -6.82,24 -5.6635,20.798 -10.6765,38.6882 -12.0489,43 -0.5252,1.65 -3.4871,12.2009 -6.5819,23.4464 -3.0948,11.2454 -5.8505,20.8079 -6.1237,21.25 -0.2731,0.442 -43.8511,0.8036 -96.8398,0.8036 h -96.3431 z m -496.00613,1.6138 c -25.6987,-0.7652 -64.5982,-5.4518 -82,-9.8792 -3.025,-0.7696 -11.125,-2.8005 -18,-4.513 -34.1809,-8.514 -78.43621,-26.7153 -109.614,-45.0818 -74.21894,-43.7217 -133.28412,-106.7734 -168.98415,-180.3898 -12.63689,-26.0583 -18.72025,-42.1244 -27.26244,-72 -7.94365,-27.7822 -13.13944,-69.282 -13.13944,-104.9471 0,-73.9014 16.98687,-139.8295 52.31813,-203.0529 20.35898,-36.4313 51.08524,-74.8114 81.86018,-102.2513 45.76296,-40.8036 93.39144,-69.346 146.32172,-87.6865 37.3879,-12.9549 64.5203,-19.2248 104,-24.0328 14.3114,-1.7428 78.8182,-2.1086 96,-0.5443 11.9089,1.0843 13.6027,1.3481 42,6.5418 18.8349,3.4448 50.6562,12.1322 67.5,18.4279 4.675,1.7474 10.525,3.8635 13,4.7025 2.475,0.8389 5.4,2.0769 6.5,2.7509 1.1,0.6741 4.7,2.2699 8,3.5463 8.9622,3.4664 35.597,16.7251 38.7686,19.2988 l 2.7687,2.2467 -0.2687,110.3717 -0.2686,110.3718 -4,-5.8318 c -17.5871,-25.6409 -42.7868,-50.297 -69.6088,-68.107 -44.9919,-29.875 -96.0325,-45.3047 -149.8657,-45.3047 -32.1959,0 -57.0213,4.197 -88.6798,14.9921 -63.4792,21.6455 -116.75664,67.2356 -148.82713,127.3528 -38.39075,71.9648 -37.90986,162.7625 1.22956,232.1551 13.95447,24.7407 25.4925,39.8589 46.19667,60.5312 17.952,17.9244 38.1618,33.6135 54.5552,42.3519 2.75,1.4659 6.575,3.6222 8.5,4.7919 10.4648,6.3587 43.0327,19.4335 58.3452,23.4233 28.5838,7.4478 66.7798,10.1879 96.6548,6.9337 22.0314,-2.3999 45.6216,-7.2017 54.9243,-11.18 1.9666,-0.841 6.0507,-2.3444 9.0757,-3.3408 14.3987,-4.7431 43.9366,-20.0508 59.5,-30.8353 23.6826,-16.4108 45.7573,-37.6994 62.9159,-60.6759 25.7776,-34.5176 39.9058,-67.7551 48.2454,-113.5 l 2.8257,-15.5 0.2786,-302.75 c 0.1815,-197.2839 -0.063,-302.75 -0.7017,-302.75 -0.933,0 -46.7064,15.59429 -54.0639,18.4187 -1.925,0.739 -13.625,4.7611 -26,8.9379 -12.375,4.1769 -31.725,10.785 -43,14.6847 -19.2112,6.6446 -41.7165,14.1917 -52,17.4382 -13.994,4.4179 -33.0916,3.8406 -45.9415,-1.3887 -13.6336,-5.5482 -15.2927,-6.9107 -41.5618,-34.13 -8.2482,-8.54654 -29.2184,-30.14654 -46.6005,-47.99999 -17.3821,-17.85345 -33.489,-34.64813 -35.7932,-37.32152 -8.4229,-9.7726 -14.103,-25.33078 -14.103,-38.62885 0,-12.89478 2.3104,-19.65992 16.7161,-48.94655 27.1727,-55.24199 30.2124,-61.87734 28.6251,-62.48644 -0.8089,-0.31042 -65.6792,-0.31184 -144.15602,-0.003 -78.47686,0.30869 -156.63521,0.15955 -173.68521,-0.33141 -27.95458,-0.80498 -31.58277,-1.10521 -36.93216,-3.05612 -20.73203,-7.56093 -33.49115,-23.12498 -37.56495,-45.82312 -1.10076,-6.13318 -1.05396,-8.26214 0.3329,-15.14501 3.07072,-15.23958 8.30357,-25.10955 22.64856,-42.71864 3.13634,-3.85 12.78169,-16 21.43411,-27 8.65242,-11 17.38539,-22.01868 19.4066,-24.48595 2.02122,-2.46727 7.92164,-9.89227 13.11204,-16.5 5.19041,-6.60773 17.12565,-21.68905 26.52277,-33.51405 9.39712,-11.825 20.00043,-25.24044 23.5629,-29.8121 6.35005,-8.14889 24.27902,-30.70509 54.80537,-68.94992 8.43047,-10.56209 19.23047,-22.86277 24,-27.33484 27.45748,-25.74505 55.93869,-40.20378 91.53459,-46.46832 6.7859,-1.19426 29.994,-1.43231 139.7494,-1.43345 l 131.6122,-0.002 13.8878,-17.71119 c 7.6383,-9.74115 18.3017,-23.12865 23.6963,-29.75 5.3946,-6.62134 12.1446,-14.91458 15,-18.42942 5.3704,-6.61079 16.5069,-19.99471 29.6288,-35.6082 20.0414,-23.84687 61.7799,-66.92522 80.5628,-83.14892 11.673,-10.08259 31.609,-26.58673 38.4962,-31.86945 25.0677,-19.22758 63.5282,-44.22877 88.0038,-57.20666 23.247,-12.32646 27.38893,-14.42388 39.09433,-19.796943 28.5843,-13.120872 77.3927,-31.276733 101.9269,-37.914929 11.7852,-3.188719 39.1829,-9.777272 52.4788,-12.620024 5.5,-1.175935 12.7,-2.757628 16,-3.514874 7.5652,-1.735964 39.9438,-6.903323 52.5,-8.378563 5.225,-0.613889 12.425,-1.539947 16,-2.057906 17.5641,-2.544744 64.7288,-4.965832 97.0383,-4.981228 23.7184,-0.0113 64.6709,2.114661 75.9617,3.943398 3.025,0.489948 8.875,1.41343 13,2.052181 13.9966,2.167358 30.2982,6.899735 39.7509,11.539739 29.7634,14.609795 39.419,36.463821 47.6962,107.952989 4.7742,41.23454 4.7953,120.21645 0.042,156.13117 -0.8641,6.52786 -1.9843,15.01883 -2.4894,18.86883 -2.0213,15.40777 -3.1941,23.38425 -4.6313,31.5 -0.8279,4.675 -2.1164,12.1 -2.8633,16.5 -7.4893,44.12052 -26.6232,106.42295 -46.9881,153 -7.2877,16.66788 -23.1038,48.68014 -29.1497,59 -2.5777,4.4 -7.1827,12.275 -10.2332,17.5 -14.5849,24.98108 -33.6414,51.76741 -59.0448,82.99523 -26.6448,32.75381 -51.0288,59.0149 -94.6796,101.96781 -46.3775,45.63593 -99.5098,99.04919 -106.9238,107.48902 -3.842,4.37364 -9.2619,10.44864 -12.0441,13.5 -37.3015,40.90952 -77.3259,100.06912 -101.4942,150.01722 -21.8973,45.2544 -41.0639,102.8602 -50.5838,152.0307 -1.97,10.175 -3.9946,20.525 -4.49923,23 -1.3454,6.5995 -3.8477,23.2496 -4.9596,33 -4.1384,36.2917 -4.1612,37.1629 -4.9042,187.5 -0.7501,151.7674 -0.7474,151.6729 -5.0396,181.5 -4.4061,30.6196 -15.5055,69.3311 -27.6238,96.3443 -36.9491,82.3645 -96.3167,147.2044 -178.9251,195.4179 -28.9075,16.8716 -73.7804,35.1103 -106.4119,43.2515 -25.0579,6.2517 -27.6458,6.8254 -36,7.9807 -4.675,0.6465 -10.3,1.5625 -12.5,2.0354 -12.0009,2.5799 -58.8168,5.0393 -82.5,4.334 z M 1195.5125,497.57947 c 28.861,-3.91691 51.1536,-15.10989 70.7374,-35.51672 17.3,-18.02703 27.7961,-39.35247 31.2849,-63.56275 2.3924,-16.60141 1.7766,-29.71154 -2.2076,-47 -2.3409,-10.15748 -10.0819,-27.77329 -16.2593,-37 -10.0977,-15.08223 -28.7246,-31.33713 -45.5554,-39.75432 -6.282,-3.14168 -25.0567,-9.18545 -33.0602,-10.64245 -8.4558,-1.53933 -29.369,-1.3443 -39.0241,0.36394 -8.7888,1.55496 -25.3686,6.9426 -32.4645,10.54939 -30.219,15.36016 -53.5898,44.31898 -61.3213,75.98344 -6.8263,27.95711 -4.2874,53.52567 7.9111,79.67261 17.1399,36.73839 51.2671,61.41081 92.459,66.84351 12.5819,1.6594 15.6871,1.66656 27.5,0.0634 z"
       id="path1" />
  </g>
</svg>
